<svg xmlns="http://www.w3.org/2000/svg" viewBox="0 0 100 100"><defs><style>.cls-1{fill:none;}</style></defs><title>bishop</title><g id="Layer_2" data-name="Layer 2"><g id="Layer_2-2" data-name="Layer 2"><g id="bishop"><path d="M76.08,78c-10.41.27-20.82.25-31.23.16C37.16,78.09,27.17,76.26,23.3,85c-1.58,3.56-1,7.88-1,11.68a.5.5,0,0,0,.37.48,156,156,0,0,0,19,1.25,375.31,375.31,0,0,0,40.25-.66c1.89-.15,3.79-.29,5.65-.59a.49.49,0,0,0,.37-.48c0-3.33.48-7.11-.51-10.34A12,12,0,0,0,76.08,78a.5.5,0,0,0,0,1,11,11,0,0,1,9.63,5.92c1.23,2.41,1.16,5,1.16,7.59,0,1-.07,2.13,0,3.18a4.31,4.31,0,0,1,0,.88c0,.19.5-.41.3-.36a17.46,17.46,0,0,1-1.91.23C73,97.74,60.61,97.7,48.34,97.54c-6.24-.08-12.48-.27-18.7-.71-2.05-.15-4.7,0-6.67-.64.58.2.21.56.31-.51s0-2.3,0-3.42c0-2.66,0-5.21,1.32-7.64,2.68-4.9,7.46-5.65,12.45-5.57,13,.23,26,.27,39-.06A.5.5,0,0,0,76.08,78Z"/><path d="M22.58,91.82c-1.24,6.16,8.94,6.94,12.77,5.72.2-.06.17-.39-.05-.37-4.1.2-12.17.66-12.36-5.3a.18.18,0,0,0-.36-.05Z"/><path d="M26.21,96.62a5.16,5.16,0,0,0-1.38-.86c-.55-.28-1.1-.53-1.65-.79-.3-.14-.69.16-.48.48a3.12,3.12,0,0,0,1.82,1.38l.09-.66c-.46-.06-1.08-.14-1.27-.64l-.77.33a2.8,2.8,0,0,0,1.27,1.23l.38-.91c-.35-.13-.44-.85-1-.52a.5.5,0,0,0-.23.56,1.38,1.38,0,0,0,.93.92c.61.22.86-.74.26-1a1.88,1.88,0,0,1-.92-.75.42.42,0,0,0-.73.43,2.22,2.22,0,0,0,2,1c.39,0,.45-.56.09-.66a2.13,2.13,0,0,1-1.39-1.09l-.49.49c.58.29,1.16.58,1.75.85a5.19,5.19,0,0,0,1.5.54c.18,0,.26-.24.14-.35Z"/><path d="M78.77,97.58c2.55,0,5.08-.38,7-2.2,1.45-1.35,2.63-4,1.4-5.86a.12.12,0,0,0-.22,0c-.47,2.18-.41,4.07-2.42,5.55-1.65,1.21-3.87,1.61-5.84,2.06a.22.22,0,0,0,.06.42Z"/><path d="M86.76,91.94a4.34,4.34,0,0,1-2.65,3.84c-.66.32-.19,1.35.5,1.17s1.53-.36,2.26-.63c.22-.08.47-.3.43-.56l-.11-.86-1,.27c.32.67-.65.55-1,.67a.46.46,0,0,0-.26.66,1.14,1.14,0,0,0,1.71.2,1.65,1.65,0,0,0,.48-1.94.54.54,0,0,0-1.06.14l0,.86.43-.57c-.77.11-1.54.34-2.29.52l.49,1.17a4.52,4.52,0,0,0,2.41-5c0-.24-.4-.17-.41,0Z"/><path d="M31.1,97c-5-.1-8.66-3.82-7.76-8.84A.21.21,0,0,0,23,88a6.09,6.09,0,0,0,.81,6.75,7.86,7.86,0,0,0,7.34,2.73c.3,0,.32-.48,0-.48Z"/><path d="M32.49,98.11a108.5,108.5,0,0,0,11,.24c3.83,0,7.64.17,11.47.15,3.66,0,7.31-.15,11-.26,3.41-.11,7.22.34,10.53-.48a.23.23,0,0,0,0-.44c-3.17-.73-6.78-.26-10-.3-3.83,0-7.64-.12-11.47-.08-3.66,0-7.31.28-11,.33a112.55,112.55,0,0,0-11.47.45.2.2,0,0,0,0,.39Z"/><path d="M23.52,92.19c0-3.44.6-6.77,3-9.37S31.79,80,35,79.18a.31.31,0,0,0,0-.59c-3.29-.81-7.26,1.45-9.37,3.87a10.94,10.94,0,0,0-2.51,9.78.19.19,0,0,0,.38,0Z"/><path d="M76.54,78.56c3.24,1.77,7,3,9,6.38s.38,7.07.31,10.73a.28.28,0,0,0,.53.14c1.67-3.21,2.1-7.88.4-11.16-1.9-3.68-6.13-5.68-10-6.59-.29-.07-.49.35-.21.5Z"/><path d="M72.87,97.69c3.56.36,8.61.32,11.95-1.18.25-.1.1-.44-.12-.45-2.09-.17-4.25.39-6.35.58-1.85.17-3.7.27-5.55.53-.32,0-.2.5.07.52Z"/><path d="M51.72,14.18c2.75,1.6,5.57,1.38,8.6,2A20.72,20.72,0,0,1,69,20.64,39.83,39.83,0,0,1,80.65,36.9c5.28,13.64,3.09,28.58-2.28,41.82-.35.86,1,1.23,1.39.38,5.54-13.72,7.67-29.31,1.9-43.33A39.81,39.81,0,0,0,70.44,20.34a24.41,24.41,0,0,0-7.57-4.45c-3.55-1.22-7.53-.48-10.94-2.08-.24-.12-.46.23-.21.37Z"/><path d="M33.21,78.64c-4.53-4.23,3.15-9.28,6.06-11.79,3.45-3,7.16-5.76,10.34-9,3.7-3.81,6.91-11.37.69-14.58-.71-.37-1.34.71-.63,1.08,5.14,2.65,2.53,8.83-.38,12s-6.42,6-9.61,8.84C37.31,67.35,26.38,75.27,33,79a.21.21,0,0,0,.25-.33Z"/><path d="M49.62,43.33c-1.57,2.92-3.36,5.49-6.26,7.24a14.15,14.15,0,0,1-4.65,1.78c-1.82.36-3.58,0-5.39.18-.35,0-.61.58-.2.76,3.16,1.43,7.67.2,10.53-1.48A13.24,13.24,0,0,0,50,43.47c0-.19-.23-.33-.33-.14Z"/><path d="M33.72,52.77c-3.1-.9-3.59,2.33-4.4,4.51C27,63.52,18,60.49,14.5,57c-5.17-5.13.73-9.6,4.11-13.38a26.31,26.31,0,0,0,5.76-10,.56.56,0,0,0-1.08-.3c-1.73,5.79-5.62,9.23-9.47,13.59-2.63,3-3.58,6.75-1,10.09a14.47,14.47,0,0,0,11.6,5,7.29,7.29,0,0,0,4.62-2.27c1.61-1.82,1.3-6.72,4.56-6.46.28,0,.32-.4.07-.48Z"/><path d="M23.93,34.59c1-4.43,1.92-8.57,4.4-12.46a27.42,27.42,0,0,1,4.61-5.47c1.23-1.14,2.86-2.06,3.31-3.77.62-2.38-.86-4.57.85-6.8,2.36-3.09,6.3-1.74,8.13,1.1,1.94,3,2.83,6,6.5,7.24.62.21.87-.75.27-1-4.76-1.7-4.44-7.79-8.84-9.8A5.86,5.86,0,0,0,35,8.17c-.16,1.13.38,2.27.24,3.36-.29,2.21-1.66,3-3.11,4.36A27.34,27.34,0,0,0,27.91,21c-2.54,3.88-4.6,8.84-4.38,13.54,0,.22.35.29.4.06Z"/><path d="M34.84,30.45a2.85,2.85,0,0,0,1.94-1.81c.37-.85.54-1.78,1-2.6a4.09,4.09,0,0,1,3.44-2.3,3.11,3.11,0,0,1,3.1,2.5,4,4,0,0,1-.75,2.65,4.43,4.43,0,0,1-2.3,1.95,6.23,6.23,0,0,1-2.32.11l-2.58-.2-1.5-.11"/><path d="M21.25,39.12C23.68,37.19,24.51,34,25,31.05a22.07,22.07,0,0,1,4.7-10.93.29.29,0,0,0-.41-.4,18.6,18.6,0,0,0-4.77,8c-1.23,3.79-1.55,7.62-3.74,11-.2.31.23.56.47.36Z"/><path d="M48.43,11.79c1.39,2.3,4.1,3.2,6.63,3.6,3.6.58,7.29.57,10.44,2.66a.2.2,0,0,0,.24-.32c-2.15-2-4.53-2.51-7.34-3-3.56-.58-6.63-1.26-9.69-3.25a.21.21,0,0,0-.28.28Z"/><path d="M30.52,55.37a3.17,3.17,0,0,1,2.76-1.93c1,0,1.87.41,2.82.23a.27.27,0,0,0,.12-.45c-1.84-1.75-6-.74-5.89,2.1a.1.1,0,0,0,.19,0Z"/><path d="M46.25,49.44a8.64,8.64,0,0,0,2-2.31c.3-.46.57-1,.83-1.43s.56-1.5,1.36-1.11a.42.42,0,0,0,.62-.36c0-1.39-1.81-.88-2.33-.09s-.87,1.68-1.34,2.49A20.62,20.62,0,0,0,46,49.24c-.06.14.13.28.25.2Z"/><path d="M27.65,80.47c2.63-.21,3.76-1.44,3.91-3.92.32-5.2,4.36-6.86,7.85-9.85.27-.23-.07-.57-.35-.45a16.33,16.33,0,0,0-7,5.87,10,10,0,0,0-1.38,3.57c-.08.48,0,1-.1,1.52-.41,1.77-1.62,2.14-3,2.85a.22.22,0,0,0,.11.41Z"/><path d="M31.4,77.26a3.45,3.45,0,0,1-.67,1.7l.93.25q0-.45-.09-.9l-.46.47c.53,0,1.23.2,1.58-.29a.27.27,0,0,0,0-.3c-.32-.49-1.07-.32-1.58-.34a.46.46,0,0,0-.47.46c0,.3,0,.6,0,.9a.5.5,0,0,0,.93.25,2.65,2.65,0,0,0,.28-2.26.24.24,0,0,0-.47.06Z"/><path d="M32.93,79.29a15.14,15.14,0,0,0,4.7-.54.25.25,0,0,0-.07-.49,15.22,15.22,0,0,0-4.67.72.16.16,0,0,0,0,.31Z"/><path d="M82.8,80.5c-3.35-1.67-1.62-5-1.14-7.65a.15.15,0,0,0-.27-.11c-1.75,2.33-2.48,7.37,1.23,8.19.25,0,.43-.3.18-.43Z"/><path d="M79.83,77.35c-.12.75-.43,1.76.16,2.38.41.43,1.07-.23.65-.65-.15-.16-.13-.59-.16-.79s-.15-.63-.22-.94-.4-.22-.43,0Z"/><path d="M76.24,78.59c2.68.3,5-3.79,5.21-6,0-.21-.29-.27-.39-.1-1.26,2.28-2.11,4.87-4.89,5.65a.25.25,0,0,0,.07.48Z"/><path d="M79.07,76.27a7.39,7.39,0,0,1-1.56,1.83c-.34.3,0,.75.41.7.78-.12,1.42,1.29,2.21.78a.15.15,0,0,0,.06-.2,3.18,3.18,0,0,0-1.08-1A1.84,1.84,0,0,0,77.7,78l.4.7a4.5,4.5,0,0,0,1.42-2.23.25.25,0,0,0-.45-.19Z"/><path d="M36,12.87c-1.44-4,1-8.9,5.82-7.64,3.24.85,3.88,4.54,6,6.72,4.34,4.56,11.5,3.9,16.88,6.4a30,30,0,0,1,13.21,13C81.38,37.84,82.71,44.78,84,52c.06.37.67.29.66-.09C84,37.1,77.3,19.8,61.69,15.45c-4.09-1.14-8.89-1.18-12.26-4.08-2.54-2.18-3.2-6-6.67-7.14-5-1.66-10.28,4.08-7,8.74.08.11.28,0,.23-.1Z"/><rect class="cls-1" width="100" height="100"/></g></g></g></svg>