<svg xmlns="http://www.w3.org/2000/svg" viewBox="0 0 100 100"><defs><style>.cls-1{fill:none;}</style></defs><title>bishop (2)</title><g id="Layer_2" data-name="Layer 2"><g id="Layer_2-2" data-name="Layer 2"><g id="bishop"><path d="M76.49,76.42c-10.4.26-20.82.24-31.22.16-7.7-.07-17.68-1.89-21.55,6.84-1.58,3.56-1,7.88-1,11.68a.49.49,0,0,0,.37.48A155.78,155.78,0,0,0,42,96.83a375.49,375.49,0,0,0,40.26-.66c1.88-.15,3.78-.3,5.65-.59a.5.5,0,0,0,.37-.48c0-3.33.47-7.11-.52-10.34a12,12,0,0,0-11.28-8.34c-.64,0-.64,1,0,1a11,11,0,0,1,9.64,5.91c1.22,2.42,1.16,5,1.16,7.59,0,1.06-.08,2.14,0,3.19a4.31,4.31,0,0,1,0,.88c0,.18.49-.41.3-.36-.62.13-1.29.16-1.92.23C73.45,96.17,61,96.13,48.75,96c-6.23-.08-12.47-.26-18.7-.7-2-.15-4.69,0-6.67-.64.58.2.22.55.32-.51s0-2.3,0-3.42c0-2.66,0-5.22,1.32-7.64,2.68-4.9,7.46-5.66,12.44-5.57,13,.22,26,.27,39-.06A.5.5,0,0,0,76.49,76.42Z"/><path d="M23,90.25c-1.24,6.16,8.93,6.94,12.77,5.72.19-.06.17-.39-.05-.38-4.11.21-12.17.67-12.36-5.29,0-.2-.32-.26-.36,0Z"/><path d="M26.63,95.05a5,5,0,0,0-1.39-.86c-.54-.28-1.09-.53-1.64-.8-.3-.14-.69.17-.49.49a3.14,3.14,0,0,0,1.83,1.38l.09-.67c-.46,0-1.08-.13-1.27-.63l-.77.32a2.77,2.77,0,0,0,1.27,1.24l.38-.91c-.35-.13-.44-.85-1-.52a.52.52,0,0,0-.23.56,1.4,1.4,0,0,0,.94.92c.61.21.85-.74.26-1a2,2,0,0,1-.93-.75.42.42,0,0,0-.72.42,2.21,2.21,0,0,0,2,1c.38,0,.45-.57.09-.66a2.2,2.2,0,0,1-1.4-1.09l-.48.49c.58.28,1.16.58,1.75.85a5.11,5.11,0,0,0,1.49.53.2.2,0,0,0,.15-.34Z"/><path d="M79.18,96c2.56,0,5.08-.38,7-2.2,1.45-1.35,2.64-4,1.41-5.86a.13.13,0,0,0-.23,0c-.47,2.18-.4,4.07-2.41,5.55-1.66,1.21-3.87,1.61-5.84,2.06a.21.21,0,0,0,.05.42Z"/><path d="M87.18,90.37a4.37,4.37,0,0,1-2.65,3.84c-.67.32-.19,1.34.49,1.17s1.54-.36,2.27-.63a.6.6,0,0,0,.43-.56l-.11-.86-1,.27c.32.67-.64.55-.94.67a.46.46,0,0,0-.27.66,1.15,1.15,0,0,0,1.72.2,1.66,1.66,0,0,0,.48-1.95c-.19-.54-1.08-.49-1.06.15l0,.86.43-.57c-.77.11-1.54.34-2.3.52l.5,1.17a4.56,4.56,0,0,0,2.41-5c0-.24-.4-.17-.41.05Z"/><path d="M31.52,95.46c-5-.09-8.66-3.81-7.77-8.83,0-.22-.26-.38-.38-.16a6.08,6.08,0,0,0,.81,6.75A7.86,7.86,0,0,0,31.52,96a.25.25,0,0,0,0-.49Z"/><path d="M32.91,96.53a105.65,105.65,0,0,0,11,.25c3.82,0,7.64.16,11.47.15,3.66,0,7.31-.16,11-.27,3.41-.1,7.21.35,10.53-.47a.24.24,0,0,0,0-.45c-3.17-.73-6.79-.25-10-.29-3.82,0-7.64-.12-11.46-.08-3.66,0-7.31.28-11,.33-3.82.06-7.67,0-11.47.44a.2.2,0,0,0,0,.39Z"/><path d="M23.94,90.62c-.05-3.45.6-6.77,3-9.37s5.23-2.84,8.45-3.64a.31.31,0,0,0,0-.59c-3.28-.81-7.26,1.45-9.37,3.86a11,11,0,0,0-2.5,9.79.19.19,0,0,0,.38,0Z"/><path d="M77,77c3.24,1.77,7,3,9,6.38s.38,7.07.32,10.73a.29.29,0,0,0,.53.14c1.66-3.21,2.1-7.88.4-11.16-1.91-3.68-6.13-5.69-10-6.59A.28.28,0,0,0,77,77Z"/><path d="M73.29,96.12c3.56.36,8.61.32,11.95-1.18.24-.11.09-.44-.12-.46-2.09-.16-4.26.4-6.35.59-1.85.17-3.71.27-5.55.52-.33,0-.21.5.07.53Z"/><path d="M38.66,76.63c-7.5-9.18-10.86-20.5-8.12-32.24A36.74,36.74,0,0,1,49.47,20.33c.93-.48.11-1.88-.82-1.41A38.1,38.1,0,0,0,28.89,44.7c-2.34,11.32.66,24.37,9.18,32.51a.41.41,0,0,0,.59-.58Z"/><path d="M59.22,17c-9,10.06-11.09,23.5-7.92,36.37a.6.6,0,0,0,.57.44h8c.3,0,.65-.27.6-.6-1.22-9.63.77-20.38,6-28.55l-.83.21a34.75,34.75,0,0,1,14.26,19c3.34,11.33-.72,24.92-9.66,32.68-.58.5.26,1.33.83.84,6.79-5.76,10.61-15,11.18-23.7.63-9.67-4-18.91-10.77-25.54a32,32,0,0,0-5.23-4.27.62.62,0,0,0-.83.22C60.08,32.38,58,43.39,59.26,53.21l.6-.6H53.73c-.35,0-1.22.17-1.51,0s-.08-.44-.16-1.18c-.26-2.51-.89-4.94-1-7.49a38.27,38.27,0,0,1,8.74-26.37c.33-.4-.21-1-.56-.57Z"/><path d="M59.59,17.44c3.14-1.39,4-4.65,3-7.79a8.41,8.41,0,0,0-7.89-5.51,9.71,9.71,0,0,0-8.63,6,8.63,8.63,0,0,0-.69,5.08c.44,2.26,2.15,2.94,3.12,4.79.41.8,1.62.09,1.2-.71a6.78,6.78,0,0,0-1.54-1.76,5.57,5.57,0,0,1-1.41-5.17,8.79,8.79,0,0,1,6.07-6.68A7.31,7.31,0,0,1,60.56,8.4c1.91,2.73,1.92,6.85-1.15,8.72a.18.18,0,0,0,.18.32Z"/><path d="M56.11,21.6c3-2.7,6.86-5.71,6.35-10.21a7.41,7.41,0,0,0-5.87-6.68.45.45,0,0,0-.24.87c3.91,1.19,6.44,4.91,4.42,8.88-1.28,2.5-3.34,4.63-4.9,7-.09.15.12.29.24.18Z"/><path d="M56.34,21.88c3-2.9,6.91-5.66,6.46-10.25a.36.36,0,0,0-.72,0c0,2.66-.94,4.08-2.8,5.95A18.76,18.76,0,0,0,56,21.64a.2.2,0,0,0,.32.24Z"/><path d="M51.16,51.25c-.84-5.82-1.1-11.28.31-17,1.36-5.58,4.12-10,7.2-14.68.23-.35-.28-.73-.57-.44-7.55,7.71-10.5,22.1-7.34,32.28a.21.21,0,0,0,.4-.11Z"/><path d="M54.81,52.86A3.68,3.68,0,0,1,52,51.1c-.49-.91-.25-1.78-.47-2.72a.13.13,0,0,0-.22-.05c-.81.84-.31,2.49.26,3.34a3.67,3.67,0,0,0,3.27,1.6.21.21,0,0,0,0-.41Z"/><path d="M52.26,52.89a14.13,14.13,0,0,0-.65-4.17c-.15-.62-1.12-.36-1,.27.24,1,1.09,5.74,3,4.19.2-.16.06-.46-.14-.53a2.09,2.09,0,0,1-1.39-1.53,9.39,9.39,0,0,1-.54-2.27l-1,.14a14,14,0,0,0,1.18,4,.23.23,0,0,0,.43-.12Z"/><path d="M56.79,53.4a2.53,2.53,0,0,0,2.5-1.11c.56-.71,1.06-1.95.42-2.74a.21.21,0,0,0-.34,0c-.34.73-.23,1.51-.74,2.18A5.63,5.63,0,0,1,56.73,53a.22.22,0,0,0,.06.39Z"/><path d="M59.34,51.33a3,3,0,0,0-.69,1.42.39.39,0,1,0,.77.1,3.32,3.32,0,0,1,.3-1.23c.13-.23-.2-.52-.38-.29Z"/><path d="M36.51,74.45c-.37,1.08,1,1.82,1.77,2.22.95.49,2.89,1.29,3.86.59a.24.24,0,0,0,0-.38c-.67-.56-1.71-.46-2.52-.72-1-.32-2.35-.73-2.85-1.75-.06-.15-.27-.09-.31,0Z"/><path d="M35.09,72.46c1.33,3.27,6,5.51,9.44,5,.2,0,.15-.3,0-.36-1.85-.69-3.76-.78-5.53-1.75a14,14,0,0,1-3.57-3.07c-.13-.14-.41,0-.34.2Z"/><path d="M64.78,77.33c3.48-.09,8.22-1.7,10.09-4.89.09-.17-.11-.39-.28-.28-1.48,1-2.66,2.27-4.29,3.08a17.92,17.92,0,0,1-5.58,1.68c-.23,0-.18.42.06.41Z"/><path d="M68.91,76.84a5.25,5.25,0,0,1,1.48-.42,3.78,3.78,0,0,0,1.22-.69l-.52-.4a2.46,2.46,0,0,1-1,.86c-.37.16-.71.12-1,.46a.33.33,0,0,0,.11.44c.43.26,1-.07,1.37-.32a4.15,4.15,0,0,0,1.1-1.11c.22-.32-.25-.61-.51-.39a3.34,3.34,0,0,1-1.47.67,2.24,2.24,0,0,0-1.07.52c-.2.19.06.55.3.38Z"/><path d="M35.1,76.92a1.56,1.56,0,0,0,1.46-1,2.6,2.6,0,0,0,0-2.15.19.19,0,0,0-.34.05c-.17.49,0,1-.09,1.54a1.38,1.38,0,0,1-1.11,1.15c-.21,0-.15.35.05.36Z"/><path d="M36.78,75.61c-.05.29-.1.59-.14.88l.58-.16c-.11-.14-.22-.29-.34-.42s-.58.06-.43.33l.14.24.37-.37-.26-.17a.27.27,0,0,0-.4.24v.2l.45-.19L36.51,76c-.17-.16-.55,0-.44.26l.12.28a.28.28,0,0,0,.46.12l.61-.55-.76-.59c-.75,1,1,2.58,1.82,1.51.13-.16.16-.47-.07-.57a2.29,2.29,0,0,1-.53-.29c-.22-.15-.23-.29-.33-.53a.49.49,0,0,0-.94,0l-.26.75.51-.07L36.55,76l-.41.32.23.21a.27.27,0,0,0,.45-.18l0-.2-.41.23.26.17c.23.16.49-.15.37-.37L36.92,76l-.47.28c.07.14.15.27.23.41a.32.32,0,0,0,.58-.16c0-.27,0-.54,0-.81s-.45-.36-.5-.07Z"/><path d="M74.07,76.44c-.74.08-1.08-.65-.85-1.28.13-.38.62-.66.55-1.08a.14.14,0,0,0-.09-.09c-.75-.24-1.2,1.24-1.14,1.77a1.23,1.23,0,0,0,1.59,1.13c.23-.08.22-.48-.06-.45Z"/><path d="M72.93,74.93a1.77,1.77,0,0,0-.55,2,.35.35,0,0,0,.54.07,2.7,2.7,0,0,1,.31-.28.28.28,0,0,0-.07-.51,6.21,6.21,0,0,1-.9-.28c-.36-.14-.62.47-.26.63l.53.23.09-.71-.35,0v.74l.63,0c.42,0,.55-.67.1-.77l-.69-.13c-.51-.09-.73.69-.21.78l.69.11L72.9,76l-.63.07c-.46,0-.48.74,0,.74h.35a.36.36,0,0,0,.1-.71L72.26,76l-.09.68a7.74,7.74,0,0,1,.84.14L73,76.29a1.81,1.81,0,0,1-.37.18l.43.24a2.14,2.14,0,0,1,.16-1.59.15.15,0,0,0-.24-.19Z"/><path d="M73.49,77a33.18,33.18,0,0,1,4.86,1c1.6.48,3,1.36,4.6,1.86a.32.32,0,0,0,.3-.53c-2.35-2.21-6.59-3-9.7-2.7-.21,0-.31.37-.06.4Z"/><path d="M46.3,21.49a3.38,3.38,0,0,0,1.38-2.31,2.82,2.82,0,0,0-1-2.7c-.14-.08-.36.05-.29.22a5.06,5.06,0,0,1,.78,2.2A3.1,3.1,0,0,1,46,21.12c-.2.17.07.54.29.37Z"/><path d="M47.38,18.17a9.16,9.16,0,0,0,.06,1.48c0,.18.15.39.37.37a1,1,0,0,0,.61-.21.19.19,0,0,0,0-.26.83.83,0,0,0-.52-.25l.27.35a10,10,0,0,0-.33-1.54.23.23,0,0,0-.46.06Z"/><path d="M64.69,27.73c.16-1.22,1.32-1.6,2.41-1.44.78.12,1.4.56,2.15.74a.19.19,0,0,0,.18-.31c-1.2-1.43-5.29-1.65-5.09,1,0,.19.32.26.35.05Z"/><path d="M67.49,25.69a1.71,1.71,0,0,0-1.95-.22c-.29.15-.08.59.22.52s1,0,1.31-.37a.2.2,0,0,0,0-.22c-.31-.4-1-.09-1.43,0l.22.52a1.28,1.28,0,0,1,1.47,0c.15.1.34-.14.19-.26Z"/><rect class="cls-1" width="100" height="100"/></g></g></g></svg>