<svg xmlns="http://www.w3.org/2000/svg" viewBox="0 0 100 100"><defs><style>.cls-1{fill:none;}</style></defs><title>king</title><g id="Layer_2" data-name="Layer 2"><g id="Layer_2-2" data-name="Layer 2"><g id="king"><path d="M69.08,74.86c-10.41.26-20.83.24-31.23.15C30.16,75,20.17,73.13,16.3,81.85c-1.58,3.57-1,7.88-1,11.68a.51.51,0,0,0,.37.49,157.84,157.84,0,0,0,19,1.24,372.72,372.72,0,0,0,40.25-.65c1.89-.15,3.78-.3,5.65-.59a.5.5,0,0,0,.37-.49c0-3.32.48-7.1-.51-10.33a12,12,0,0,0-11.28-8.34.5.5,0,0,0,0,1,11,11,0,0,1,9.63,5.91c1.23,2.42,1.16,5,1.16,7.59,0,1.06-.08,2.14,0,3.19a4.22,4.22,0,0,1,0,.87c0,.19.49-.4.3-.36a17.67,17.67,0,0,1-1.92.24C66,94.61,53.61,94.56,41.34,94.4c-6.24-.08-12.48-.26-18.7-.7-2.05-.15-4.7,0-6.68-.64.58.19.22.55.32-.51s0-2.3,0-3.43c0-2.66,0-5.21,1.32-7.63,2.68-4.9,7.46-5.66,12.44-5.57,13,.22,26,.27,39-.06C69.72,75.84,69.72,74.84,69.08,74.86Z"/><path d="M15.58,88.69c-1.24,6.16,8.93,6.94,12.77,5.72.2-.07.17-.39-.05-.38-4.11.2-12.17.67-12.36-5.29,0-.2-.32-.26-.36,0Z"/><path d="M19.21,93.48a5,5,0,0,0-1.39-.85c-.54-.28-1.09-.54-1.64-.8-.3-.14-.69.16-.49.49a3.18,3.18,0,0,0,1.83,1.38l.09-.67c-.46-.06-1.08-.14-1.27-.63l-.77.32A2.82,2.82,0,0,0,16.84,94l.38-.92c-.35-.13-.44-.85-1-.52a.51.51,0,0,0-.22.57A1.4,1.4,0,0,0,17,94c.61.21.85-.74.26-1a1.93,1.93,0,0,1-.93-.74.42.42,0,0,0-.72.42,2.23,2.23,0,0,0,2,1c.39,0,.45-.57.09-.67A2.15,2.15,0,0,1,16.3,92l-.48.48c.58.29,1.16.59,1.75.86a5.37,5.37,0,0,0,1.5.53c.18,0,.25-.23.14-.35Z"/><path d="M71.77,94.44c2.55,0,5.07-.38,7-2.19,1.45-1.36,2.63-4,1.4-5.86a.13.13,0,0,0-.23,0c-.46,2.18-.4,4.07-2.41,5.54-1.65,1.22-3.87,1.61-5.84,2.07a.21.21,0,0,0,.06.41Z"/><path d="M79.76,88.81a4.35,4.35,0,0,1-2.65,3.83c-.67.32-.19,1.35.5,1.17a22.22,22.22,0,0,0,2.26-.62.6.6,0,0,0,.43-.57l-.11-.86-1,.28c.32.67-.64.55-.94.67a.46.46,0,0,0-.27.66,1.17,1.17,0,0,0,1.72.2,1.66,1.66,0,0,0,.48-1.95.54.54,0,0,0-1.06.14l0,.86.43-.56a22.31,22.31,0,0,0-2.29.52l.49,1.17a4.55,4.55,0,0,0,2.41-5c0-.23-.4-.16-.41.06Z"/><path d="M24.1,93.9c-5-.09-8.66-3.82-7.77-8.83,0-.23-.26-.38-.38-.16a6.08,6.08,0,0,0,.81,6.75,7.88,7.88,0,0,0,7.34,2.72.24.24,0,0,0,0-.48Z"/><path d="M25.49,95c3.64.36,7.32.25,11,.25,3.83,0,7.64.16,11.47.14,3.66,0,7.31-.15,11-.26,3.41-.1,7.21.35,10.53-.48a.23.23,0,0,0,0-.44c-3.17-.73-6.79-.25-10-.29-3.83,0-7.64-.13-11.47-.08-3.66,0-7.31.27-11,.33-3.82.06-7.67,0-11.47.44a.2.2,0,0,0,0,.39Z"/><path d="M71.69,75.46c3.51-5.83,9.07-9.83,13.43-14.95,4-4.69,6.43-10.35,6.09-16.59A21.88,21.88,0,0,0,66.84,23.64a22.29,22.29,0,0,0-8.42,2.87c-.7.41-2.72,2.25-3.53,1.38-.35-.36-.42-1.84-.52-2.29-.24-1.08-1.35-3.6-1-4.67.36-1.27,3.7-.67,4.73-.66s2.79.37,3.68-.25.59-2.15.46-3.16l-.66-5.54c-.14-1.1-.28-2-1.51-2.27a21.91,21.91,0,0,0-4.51,0c-.68,0-1.55.22-1.94-.48-.29-.5,0-1.89,0-2.45,0-1,.37-2.91-.26-3.85s-2-.73-2.94-.73H44.49c-1,0-2.31-.23-3,.73s-.27,2.87-.27,3.92c0,.61.24,1.8-.23,2.26s-1.53.22-2.15.22c-1.14,0-3.09-.41-4.16.19s-.93,2-1.07,2.95l-.79,5.57c-.14,1-.49,2.21.49,2.91s2.7.3,3.69.3,4.24-.52,4.86.21-.4,3.65-.56,4.58c-.09.5-.07,1.89-.4,2.29-.68.86-2.58-.89-3.3-1.31A22.18,22.18,0,0,0,7.11,34.94a22.32,22.32,0,0,0-.93,18.55c2.33,5.76,7.07,9.93,11.35,14.23a41.6,41.6,0,0,1,6.47,8A.64.64,0,0,0,25.11,75c-3-5.17-7.64-9-11.7-13.3C8.52,56.55,5.28,50.42,6,43.1,7.48,28,25,19.71,37.68,27.85c1.09.7,2.76,2.57,4.09,1.14.77-.83.72-2.75.9-3.77.32-1.88,1.82-5.59-1.08-5.94a36.29,36.29,0,0,0-4.3,0c-1.22,0-3.15.52-3.32-.86s.45-3.2.64-4.54c.13-.94,0-3.5,1-4s3.22,0,4.19,0c1.28,0,2.32,0,2.71-1.45a15.61,15.61,0,0,0,0-3.68c0-2,.33-2,2.2-2h5.09c1.61,0,2.63-.34,2.64,1.56,0,2.13-.89,5.73,2,5.93,1.54.1,3.17-.22,4.7,0s1.33,1.65,1.52,3.18a28.05,28.05,0,0,1,.58,4.72c-.1,1.7-2,1.15-3.42,1.16-1.77,0-5.72-.8-5.42,2a35.08,35.08,0,0,0,1,4.15c.21,1,.26,2.8,1,3.57,1.5,1.54,4-1.38,5.23-2A20.79,20.79,0,0,1,89.12,38c2.94,8.06.5,16.31-5,22.58-4.29,4.9-9.49,9-12.8,14.69a.21.21,0,0,0,.37.21Z"/><path d="M24.6,76.41c7.77.15,15.54-.15,23.32-.32S63.47,76,71.26,76c.57,0,.55-.82,0-.87a211.31,211.31,0,0,0-23.34-.55c-7.78.14-15.56.31-23.32.87a.46.46,0,0,0,0,.92Z"/><path d="M22.51,72.31C24,74.8,28.8,77,31.63,76.12a.31.31,0,0,0,0-.59c-1.43-.52-3-.51-4.46-1.06-1.61-.6-2.91-1.66-4.44-2.38-.14-.06-.31.07-.22.22Z"/><path d="M26.86,75.09a15.33,15.33,0,0,1-3.15-2.47,4,4,0,0,0-2.57-1.46.23.23,0,0,0-.16.38c.52.44,1.11.76,1.62,1.21s.89.92,1.35,1.36a3.91,3.91,0,0,0,2.8,1.37.21.21,0,0,0,.11-.39Z"/><path d="M66.09,75.15c3.12.87,7-1.8,8.89-4.08.07-.09,0-.27-.13-.22-3.17,1.25-5,3.93-8.7,3.9a.21.21,0,0,0-.06.4Z"/><path d="M73.57,71.78a6,6,0,0,1-1.81,1.73,6.75,6.75,0,0,1-2.12.9.6.6,0,0,0,.16,1.18,2.87,2.87,0,0,0,1.67-.19.42.42,0,0,0,0-.71,3,3,0,0,0-1.67-.3L70,75.57a6.63,6.63,0,0,0,2.39-1.3A7.35,7.35,0,0,0,74,72c.15-.25-.25-.49-.39-.23Z"/><path d="M71.88,73.55A101.29,101.29,0,0,0,85.22,59.74c3.19-4,6-9.12,5.68-14.35a.28.28,0,0,0-.56,0C89.7,51.58,87,56.47,83,61.13,79.36,65.32,75,68.94,71.62,73.29a.18.18,0,0,0,.26.26Z"/><path d="M39.15,43.74C35,39.62,25.41,37.85,22.92,44.87a5.9,5.9,0,0,0,1.92,6.81c1.67,1.3,3.55,2.07,5,3.68A13.14,13.14,0,0,1,33,61.43c.21.92,1.65.53,1.42-.39a15.37,15.37,0,0,0-3-6.13C29.53,52.75,27,52,25.05,50.14c-3.71-3.38.21-7.92,4.05-8.47,3.52-.51,6.63,1.31,9.84,2.43a.22.22,0,0,0,.21-.36Z"/><path d="M33.85,62a21.1,21.1,0,0,0,5.15.09.59.59,0,0,0,0-1.18,19.72,19.72,0,0,0-5.15.1.52.52,0,0,0,0,1Z"/><path d="M39.28,61.56c.57-2.64.22-5.58.22-8.27,0-3,.28-6.16,0-9.15a.5.5,0,0,0-1,0c-.28,3,0,6.14,0,9.15,0,2.69-.35,5.63.22,8.27a.29.29,0,0,0,.56,0Z"/><path d="M33.55,41.52a10.47,10.47,0,0,1,3.66,1.65,5.21,5.21,0,0,1,1.44,3.47.22.22,0,0,0,.4.11,3.22,3.22,0,0,0-.6-4.12,7.1,7.1,0,0,0-4.85-1.51c-.23,0-.25.32-.05.4Z"/><path d="M34.85,42.14a8.13,8.13,0,0,1,2.9,2c.71,1,.63,2.21,1.2,3.23a.22.22,0,0,0,.4-.06c.75-2.88-1.87-5-4.35-5.51-.21,0-.35.24-.15.35Z"/><path d="M31.19,40.81c1,.29,2,.5,2.92.84a23.32,23.32,0,0,0,2.88,1,.31.31,0,0,0,.24-.56,10.4,10.4,0,0,0-6-1.51.12.12,0,0,0,0,.24Z"/><path d="M37.46,61.52a1.58,1.58,0,0,0,1.42-1.38,10,10,0,0,0,.28-3.56.16.16,0,0,0-.3,0,6.47,6.47,0,0,0-.43,1.86c-.12.86-.06,2.3-1,2.69-.21.08-.21.45.06.43Z"/><path d="M39.24,61.89A2.45,2.45,0,0,0,39.61,60a10.12,10.12,0,0,0-.32-2.91.14.14,0,0,0-.26,0,7.18,7.18,0,0,0,0,2.07,5.1,5.1,0,0,1-.09,2.52c-.1.2.17.44.32.25Z"/><path d="M38.23,62c2.06.54,1.4-2.5,1.08-3.56a.13.13,0,0,0-.26,0,11.78,11.78,0,0,0,0,1.68,5.31,5.31,0,0,1,0,.69c0,.51-.42.7-.85.83a.17.17,0,0,0,0,.33Z"/><path d="M33,61.17a1.56,1.56,0,0,0,1.15.82.41.41,0,0,0,.4-.1l.07-.09a.27.27,0,0,0,0-.34c-.28-.42-1-.32-1.4-.54-.16-.08-.36.09-.26.25Z"/><path d="M34.78,61.54a2.12,2.12,0,0,1-.79-.27c-.19-.15-.24-.41-.38-.59a.39.39,0,0,0-.7.09c-.42,1,1.16,1.47,1.87,1.26a.26.26,0,0,0,0-.49Z"/><path d="M36,61.16a4.88,4.88,0,0,1-2-.91,2.45,2.45,0,0,1-.74-1.64c0-.12-.18-.11-.24,0a1.68,1.68,0,0,0,.37,2.05,3.81,3.81,0,0,0,2.54.95c.25,0,.29-.35.06-.42Z"/><path d="M33.2,59.38c.35,2.92,6.73,2.52,5.7-.36a.3.3,0,0,0-.58,0c-.31,1.15-1,1.43-2.13,1.43-1,0-2.1-.15-2.59-1.17a.21.21,0,0,0-.4.1Z"/><path d="M56.16,44.1c3-1.05,6-2.76,9.24-2.52,4,.3,8.66,4.91,4.66,8.56-1.89,1.73-4.3,2.5-6,4.5A15.21,15.21,0,0,0,60.74,61c-.24.92,1.21,1.31,1.42.39a13.22,13.22,0,0,1,3.09-6.07c1.47-1.61,3.34-2.38,5-3.68a5.88,5.88,0,0,0,1.91-6.81c-2.48-7-12-5.25-16.22-1.13-.15.15,0,.43.2.36Z"/><path d="M61.26,61a19.72,19.72,0,0,0-5.15-.1.59.59,0,0,0,0,1.18A21.11,21.11,0,0,0,61.26,62a.52.52,0,0,0,0-1Z"/><path d="M56.39,61.56c.57-2.64.22-5.58.22-8.27,0-3,.28-6.16,0-9.15a.5.5,0,0,0-1,0c-.28,3,0,6.14,0,9.15,0,2.69-.35,5.63.21,8.27a.3.3,0,0,0,.57,0Z"/><path d="M61.5,41.12a7.09,7.09,0,0,0-4.84,1.51,3.19,3.19,0,0,0-.6,4.12.21.21,0,0,0,.39-.11,5.2,5.2,0,0,1,1.45-3.47,10.57,10.57,0,0,1,3.66-1.65.21.21,0,0,0-.06-.4Z"/><path d="M60.11,41.79c-2.48.54-5.11,2.63-4.35,5.51a.22.22,0,0,0,.4.06c.57-1,.49-2.25,1.2-3.23a8.26,8.26,0,0,1,2.9-2,.19.19,0,0,0-.15-.35Z"/><path d="M63.89,40.57a10.42,10.42,0,0,0-6,1.51.31.31,0,0,0,.24.56,23.32,23.32,0,0,0,2.88-1c1-.34,2-.55,2.92-.84a.12.12,0,0,0,0-.24Z"/><path d="M57.71,61.09c-1-.38-.91-1.85-1-2.69a6.81,6.81,0,0,0-.43-1.86.16.16,0,0,0-.3,0,10,10,0,0,0,.28,3.56,1.58,1.58,0,0,0,1.42,1.38c.27,0,.27-.35.06-.43Z"/><path d="M56.19,61.64a5.22,5.22,0,0,1-.09-2.52,6.84,6.84,0,0,0,0-2.07c0-.13-.21-.11-.25,0A10.12,10.12,0,0,0,55.5,60a2.44,2.44,0,0,0,.36,1.93c.16.19.43,0,.33-.25Z"/><path d="M56.87,61.63c-.44-.13-.77-.33-.85-.83a4,4,0,0,1,0-.69,10.47,10.47,0,0,0,0-1.68.13.13,0,0,0-.25,0c-.32,1.06-1,4.1,1.07,3.56a.17.17,0,0,0,0-.33Z"/><path d="M61.83,60.92c-.44.22-1.12.11-1.41.54a.29.29,0,0,0,0,.34l.06.09a.42.42,0,0,0,.4.1,1.55,1.55,0,0,0,1.16-.82c.1-.16-.1-.33-.26-.25Z"/><path d="M60.33,62c.71.21,2.29-.24,1.86-1.26a.38.38,0,0,0-.69-.09c-.14.18-.19.44-.38.59a2.18,2.18,0,0,1-.79.27.26.26,0,0,0,0,.49Z"/><path d="M59.18,61.58a3.77,3.77,0,0,0,2.54-.95,1.67,1.67,0,0,0,.38-2.05c-.06-.07-.23-.09-.25,0a2.46,2.46,0,0,1-.73,1.64,4.88,4.88,0,0,1-2,.91c-.23.07-.2.45,0,.42Z"/><path d="M61.5,59.28c-.48,1-1.57,1.16-2.58,1.17-1.19,0-1.8-.24-2.14-1.43a.3.3,0,0,0-.58,0c-1,2.88,5.36,3.28,5.7.36,0-.21-.31-.29-.4-.1Z"/><path d="M34.58,12.4C34.85,10,37.22,10.34,39,9.8a.17.17,0,0,0,0-.32c-1.82-.53-5.17.53-4.69,3,0,.18.29.12.31,0Z"/><path d="M56.25,9.75a4.34,4.34,0,0,1,3.44,1.68c.66.89.65,2,1.11,2.9a.24.24,0,0,0,.41,0c.78-1.22-.1-2.92-1-3.84a4.58,4.58,0,0,0-4-1.26c-.3,0-.22.51.07.52Z"/><path d="M49,2.82a3.46,3.46,0,0,1,2.56,1A2.14,2.14,0,0,1,52,5.07a1.73,1.73,0,0,0,.12,1,.2.2,0,0,0,.22.09c1.1-.42.47-2.19-.07-2.83A3.32,3.32,0,0,0,49,2.43c-.24,0-.16.38.05.39Z"/><path d="M42.5,5.58a2.4,2.4,0,0,1,1.15-2.4,11.9,11.9,0,0,1,2.48-.64.24.24,0,0,0,0-.46c-1.94-.61-4.77,1.46-3.94,3.58a.16.16,0,0,0,.31-.08Z"/><path d="M40,20.5c.72.38,1.49.3,1.91,1.16a1.74,1.74,0,0,1,.11,1.19,3.39,3.39,0,0,0-.29,1,.33.33,0,0,0,.41.32c1.23-.2,1.09-2.25.63-3s-1.94-1.74-2.81-1a.22.22,0,0,0,0,.34Z"/><path d="M38.31,20.67a2.78,2.78,0,0,1,2.94,1.21c.56,1,0,2,.33,2.93a.28.28,0,0,0,.47.12c1-1,.63-3-.21-4a3,3,0,0,0-3.72-.74c-.26.13-.07.49.19.45Z"/><path d="M53.91,23a2.31,2.31,0,0,1,1.53-2.33c.81-.31,1.78-.1,2.52-.57a.22.22,0,0,0,0-.37c-1.05-.66-2.93-.13-3.82.62a2,2,0,0,0-.52,2.77.17.17,0,0,0,.29-.12Z"/><path d="M54.19,20.38a1.21,1.21,0,0,0-1.26,1.19c0,.47.69.54.81.11a2.52,2.52,0,0,0,.15-1.35.2.2,0,0,0-.33-.09A2.44,2.44,0,0,0,53,21.46l.81.11a.93.93,0,0,1,.49-.75c.22-.09.21-.46-.06-.44Z"/><path d="M37.37,26.69a3.3,3.3,0,0,0,3.56.62,2.92,2.92,0,0,0,1.44-3,.15.15,0,0,0-.26-.06c-.6.66-.65,1.68-1.43,2.21-1,.68-2.13.05-3.19-.08a.17.17,0,0,0-.12.29Z"/><path d="M41.1,26.35a1.12,1.12,0,0,1-.68.68,1.45,1.45,0,0,0-.7.4.74.74,0,0,0,.2,1.11.32.32,0,0,0,.4-.06c.11-.13,0-.18.09-.32s-.14,0,.1-.13.3-.12.43-.19c.53-.3.59-.8.66-1.35,0-.27-.39-.37-.5-.14Z"/><path d="M53.75,26.28a4,4,0,0,0,2.52,1.79c.76.13,1.88-.07,2.09-.93a.26.26,0,0,0-.24-.32c-.72.08-1.23.53-2,.3a8.57,8.57,0,0,1-2-1.17c-.19-.13-.47.13-.33.33Z"/><path d="M56.6,27.72c-.63-.14-1.26-.28-1.88-.4-.31-.06-.53.36-.22.52s.77.53,1.2.49a.19.19,0,0,0,.16-.28c-.22-.38-.7-.51-1.08-.7l-.22.52,1.91.3c.29,0,.43-.39.13-.45Z"/><path d="M81.11,27.57c3.31,3.33,6.12,6.91,7.54,11.47a21.77,21.77,0,0,1,1,7.39c-.1,2.42-1,4.74-1.05,7.13,0,.25.36.44.53.22,3-3.76,2.24-10.84.91-15.12A19.93,19.93,0,0,0,81.3,27.31a.16.16,0,0,0-.19.26Z"/><path d="M13.12,62.88C4.05,53.16,4,37.28,14.65,28.54c.37-.3-.16-.82-.52-.52-5.19,4.3-8.68,10.1-9,16.94a23.36,23.36,0,0,0,7.66,18.25.23.23,0,0,0,.33-.33Z"/><path d="M16.52,89.06c-.05-3.45.6-6.77,3-9.37S24.79,76.85,28,76a.3.3,0,0,0,0-.58c-3.29-.81-7.27,1.45-9.38,3.86a11,11,0,0,0-2.5,9.79.19.19,0,0,0,.38,0Z"/><path d="M69.54,75.42c3.24,1.78,7,3,8.95,6.38s.38,7.07.32,10.73a.29.29,0,0,0,.53.15c1.66-3.21,2.1-7.88.4-11.16-1.91-3.68-6.13-5.69-10-6.6-.3-.06-.49.35-.21.5Z"/><path d="M65.87,94.56c3.56.36,8.61.31,11.95-1.18.25-.11.09-.44-.12-.46-2.09-.16-4.26.4-6.35.59-1.85.17-3.71.27-5.55.52-.32,0-.21.5.07.53Z"/><rect class="cls-1" width="100" height="100"/></g></g></g></svg>