<svg xmlns="http://www.w3.org/2000/svg" viewBox="0 0 100 100"><defs><style>.cls-1{fill:none;}</style></defs><title>pawn</title><g id="Layer_2" data-name="Layer 2"><g id="Layer_2-2" data-name="Layer 2"><g id="pawn"><path d="M87.29,97c.54-9.73-3.91-17.63-11.68-23.23-4.17-3-8.59-5.66-11.76-9.8a26.67,26.67,0,0,1-5.41-15.87l-.53.53,10.65.77a.52.52,0,0,0,.51-.39c.43-3.12,3.26-6.55,1-9.57a15,15,0,0,0-3.45-2.74c-2.11-1.51-4.23-3-6.34-4.5l.12,1C70.08,25.24,68.83,9.28,58.07,3A18.36,18.36,0,0,0,31.38,13.82,19.19,19.19,0,0,0,37.55,33.2l.14-1.1-6.36,4.46a15.37,15.37,0,0,0-3.52,2.78c-2.31,3.06.5,6.52.94,9.69a.72.72,0,0,0,.69.53l10.65-.78-.71-.71a26.87,26.87,0,0,1-4.82,15.27c-3.15,4.46-7.86,7.22-12.22,10.32-3.57,2.55-6.9,5.45-8.83,9.47A27.83,27.83,0,0,0,11.25,97a.67.67,0,0,0,.66.66q32.83,0,65.68,0l9.4,0a.6.6,0,0,0,0-1.2q-32.83,0-65.68-.05h-9.4l.66.66c-.34-5.36.32-11,3.38-15.59S23.78,74.22,28,71.13c7.62-5.55,12.56-13.47,12.77-23.06a.72.72,0,0,0-.71-.71l-10.65.76.69.53c-.5-3.65-3.55-6.87.33-9.73,2.6-1.93,5.29-3.74,7.94-5.61a.71.71,0,0,0,.14-1.1c-5.79-4.94-8.17-13.24-5-20.33a16.85,16.85,0,0,1,30.84,0,17.6,17.6,0,0,1-4.81,20.4.62.62,0,0,0,.12,1L66,37.69a19.47,19.47,0,0,1,2.64,1.9c1.52,1.51,1.27,3,.69,4.87-.21.66-.71,2.93-1.18,3.36-.71.66-1.6.34-2.51.28l-7.74-.56a.54.54,0,0,0-.53.53c.15,9.56,5,17.5,12.62,23,4.12,3,8.63,5.55,11.76,9.65A25.48,25.48,0,0,1,86.69,97C86.68,97.36,87.27,97.35,87.29,97Z"/><path d="M37.92,31.92c-4.06-5.45-7-12.17-4.9-19S42,1.48,49,1.63A17.36,17.36,0,0,1,64.41,13c2.39,6.7.16,14.28-4.91,19.1-.68.65.35,1.68,1,1,8.84-8.4,8.24-23.16-2.26-29.9-10-6.39-24.23-1.09-26.66,10.82a19.55,19.55,0,0,0,6,18.08c.14.12.41,0,.28-.21Z"/><path d="M28.61,46.26c.66,2.28,4.5,3.26,6.4,2.07a.24.24,0,0,0-.06-.42c-1-.4-2.22,0-3.31-.26A4.43,4.43,0,0,1,29,46c-.17-.2-.49,0-.42.25Z"/><path d="M63.65,48.31c2.46.59,7-.51,6.11-4a.16.16,0,0,0-.31,0c-.31,1.36-.73,2.55-2.11,3.18-1.18.53-2.41.32-3.64.45-.17,0-.24.28-.05.33Z"/><path d="M66.8,48.59c.43-.08.86-.13,1.29-.17l-.1-.76c-.5.15-1.36.34-1.62.83a.31.31,0,0,0,.18.46c.54.16,1.27-.33,1.74-.58s0-.85-.39-.67-.8.33-1.21.47a.22.22,0,0,0,.11.42Z"/><path d="M35.89,33.72c1.59-.14.76-3.26-.26-2.8a.11.11,0,0,0-.06.11c0,.35.44.5.6.81a1.48,1.48,0,0,1-.36,1.68c-.06.07,0,.21.08.2Z"/><path d="M37,33c0-.32.2-.55.19-.86A.15.15,0,0,0,37,32c-.46.11-.47.68-.38,1.06A.19.19,0,0,0,37,33Z"/><path d="M62.1,33.67a1.83,1.83,0,0,1-.59-1.36,3.47,3.47,0,0,1,.54-1.19.14.14,0,0,0-.15-.2c-1.32.31-1.06,2.54,0,3a.19.19,0,0,0,.23-.29Z"/><path d="M84.89,85.84c.38,1.87.83,3.71,1.14,5.6s.22,3.81.61,5.65c.09.44.85.47.92,0,.54-3.6-.92-8.11-2.43-11.35-.07-.14-.27,0-.24.1Z"/><path d="M85.34,97a2.14,2.14,0,0,0,1.5-1.33,3,3,0,0,0-.06-2.58c-.06-.07-.18-.1-.23,0a4.62,4.62,0,0,0-.19,1.66,2.3,2.3,0,0,1-1.17,1.89c-.21.11-.06.41.15.36Z"/><path d="M12.08,92.75A3.11,3.11,0,0,0,13,96.34c.87.74,2.61,1.21,3.52.3a.15.15,0,0,0-.11-.26c-1.13,0-2.13.3-3.09-.53a3.25,3.25,0,0,1-.89-3c0-.17-.25-.23-.32-.08Z"/><path d="M13.83,96.44a3.39,3.39,0,0,1-1-1.25l-.62.35a3.48,3.48,0,0,1,.33.55c.14.14.12.28,0,.43a.6.6,0,0,1,0-.23c0-.14,0-.25-.15-.32-.51-.25-.59.65-.44.91a.81.81,0,0,0,1.27.14c.54-.56-.05-1.32-.34-1.83a.36.36,0,0,0-.62.35,2.94,2.94,0,0,0,1.42,1.32.24.24,0,0,0,.24-.42Z"/><path d="M12.92,96.49a1.24,1.24,0,0,0-.47-1,.13.13,0,0,0-.18.08,1.19,1.19,0,0,0,.25,1c.11.15.41.12.4-.11Z"/><path d="M31.06,20.29c.47-5.86,2.6-11.35,7.59-14.81A16.71,16.71,0,0,1,55,4c9.59,4.66,12.21,16.56,7,25.51a.61.61,0,0,0,1.06.62c6.67-9.59,3.25-23.65-8.16-27.8C43-2,30.4,7.81,30.83,20.29a.12.12,0,1,0,.23,0Z"/><path d="M17.9,96.31c-4.43,1-5.4-4.14-4.88-7.32a16.43,16.43,0,0,1,2.64-6.31c2.76-4.16,6.87-7.09,10.83-10,6.3-4.62,12.66-9.85,13.12-18.25,0-.4-.58-.39-.62,0C37.65,66.8,23.46,71.26,16.34,79.68,13.49,83.05,11.23,87.41,11.6,92c.25,3.13,3.07,7.21,6.46,4.72a.2.2,0,0,0-.16-.37Z"/><path d="M35.83,48.78c1.54.17,3,.23,3.08,2.06,0,.58.12,1.15.12,1.73a4.94,4.94,0,0,0,.08,1.92.35.35,0,0,0,.64.08,11.13,11.13,0,0,0,.67-3.16,3.33,3.33,0,0,0-.35-2.53c-1-1.55-2.91-1.25-4.36-.55-.24.11-.09.42.12.45Z"/><path d="M58.59,51.72a2.66,2.66,0,0,1,.95-2.52,2.15,2.15,0,0,1,1.31-.48A2.91,2.91,0,0,0,62,48.65a.16.16,0,0,0,.11-.18c-.39-1.27-2.58-.68-3.31-.11a2.71,2.71,0,0,0-.56,3.51.2.2,0,0,0,.36-.15Z"/><path d="M63.57,64.61c5.35,7,13.76,11,18.9,18.22a19.74,19.74,0,0,1,3,6.31,13,13,0,0,1,.49,4c-.1,2.28-2.16,2.76-4,2.86-5.21.29-10.44.07-15.65.5a.3.3,0,0,0,0,.6c3.26.18,6.52.11,9.78.09,2.61,0,5.94.54,8.48-.08,4.16-1,2.69-7.08,1.64-9.9-3.91-10.6-15.23-15-22.5-22.71-.08-.09-.25,0-.17.13Z"/><path d="M11.52,97.92c12.82.78,25.8.29,38.65.39,6.27,0,12.55.11,18.82.09,5.9,0,12.06.25,17.82-1.2.53-.13.44-1-.13-1-12.23,1.39-24.72.7-37,.8-12.68.1-25.49-.38-38.15.39a.26.26,0,0,0,0,.51Z"/><path d="M11.32,96.64a1.39,1.39,0,0,0,.06,1,.31.31,0,0,0,.6-.17,1.38,1.38,0,0,0-.43-.93.17.17,0,0,0-.23.06Z"/><path d="M11.32,96.74a1,1,0,0,0,0,1c.26.43.87,0,.67-.39a3.2,3.2,0,0,0-.29-.62c-.08-.12-.3-.16-.36,0Z"/><path d="M15.44,97.86c4.8.89,9.93.71,14.79.84q7.64.19,15.26.17c5.09,0,10.17-.06,15.25-.21,4.88-.14,10.05,0,14.86-.8.45-.07.31-.74-.11-.76-4.85-.25-9.88.41-14.75.59-5.08.19-10.17.33-15.25.36q-7.38,0-14.77-.14c-5-.11-10.23-.72-15.24-.32-.15,0-.21.24,0,.27Z"/><path d="M34.3,9.25C39.23,4.1,46.44,1.42,53.44,3.74a17.38,17.38,0,0,1,8,5.67c2.3,2.87,2.94,5.92,4.05,9.3a.35.35,0,0,0,.69-.09C66.71,11.69,59.71,5,53.63,3.06c-6.86-2.16-15.18.25-19.52,6-.08.11.1.24.19.14Z"/><path d="M59,47.93c-2.81,9.71,4.71,17.46,11.69,22.95,4,3.17,8.4,6.22,11.4,10.46s6.14,12.88-.51,15.16a.7.7,0,0,0,.19,1.37c4.49,0,5.87-5.22,5.45-8.84C86.6,84,83.54,79.6,80,76.14c-4.07-4-9-7-13-10.94C62,60.39,59.75,54.85,59.4,48a.22.22,0,0,0-.44-.06Z"/><rect class="cls-1" width="100" height="100"/></g></g></g></svg>