<svg xmlns="http://www.w3.org/2000/svg" viewBox="0 0 100 100"><defs><style>.cls-1{fill:none;}</style></defs><title>queen</title><g id="Layer_2" data-name="Layer 2"><g id="Layer_2-2" data-name="Layer 2"><g id="queen"><path d="M72.32,77.78c4.83-10.86,9.8-21.66,14.57-32.55a13,13,0,0,1,.94-2.15c.63-.9,1.44-.7,2.57-1.35a9.62,9.62,0,0,0,4.11-12C90.17,19.48,74.45,24,76.23,35c.08.49.32,1,.36,1.51.16,1.88.45-.67.32.1,0,.33-.74.93-.94,1.18l-3.72,4.66-5.7,7.11,1.18.49L68,33c0-2.84-.3-6,.12-8.81.17-1.19-.22-.53,1-1.17,2.06-1.07,3.49-3.93,4-6.09A10.3,10.3,0,0,0,54.72,8.58a10,10,0,0,0-1.91,6.33,10.75,10.75,0,0,0,.76,3.63A9.52,9.52,0,0,0,54.26,20c.08.13,1.31,1.51,1.21,1.17.1.34-.33,1.24-.41,1.58l-1.06,4L48.94,46.11h1.32L42.41,22l-.32.78c5.3-3.94,5.93-12,.53-16.14A10.16,10.16,0,0,0,28.45,21a15.27,15.27,0,0,0,3.43,2.89c.22.16.11-.47.29-.11.06.14,0,.5,0,.65.26,4.33-.22,8.82-.32,13.16l-.3,12,1.17-.48L22.65,36.34l.11.83c4.7-6.93-1.15-15.85-9.3-14.92a10.53,10.53,0,0,0-8.71,7.59A9.66,9.66,0,0,0,8.18,40.27c.78.65,2.13,1.13,2.71,1.85a6.63,6.63,0,0,1,.62,1.41L14,49.37l7.52,17.31Q24,72.34,26.47,78c.34.79,1.48.11,1.14-.67l-9.1-21L13.17,44A13.7,13.7,0,0,0,12,41.34a7.2,7.2,0,0,0-1.86-1.27,9.61,9.61,0,0,1-4.38-5.92c-1.17-6,4.58-11.52,10.43-10.48a8.24,8.24,0,0,1,5.37,12.81.68.68,0,0,0,.11.83l10,12.83c.39.49,1.16,0,1.17-.49l.64-26a.67.67,0,0,0-.34-.6c-7.6-3.49-7.32-15.18,1.4-17a9,9,0,0,1,9.69,4.81A8.93,8.93,0,0,1,41.4,21.62a.72.72,0,0,0-.32.78l7.86,24.08a.69.69,0,0,0,1.32,0L55,28.41l1.21-4.64a9.26,9.26,0,0,0,.59-2.24c0-.62-.17-.59-.57-1.18a9.88,9.88,0,0,1-2-5.44,8.91,8.91,0,0,1,6.49-8.86,9,9,0,0,1,10.49,4.82c2.13,4.38,0,9.51-4.12,11.78a.7.7,0,0,0-.34.6l-.36,26.84c0,.55.79,1,1.18.48L78,37.49a.69.69,0,0,0,.17-.67c-1.79-4.58.37-10.08,5.38-11.35a8.21,8.21,0,0,1,7.71,14A9.36,9.36,0,0,1,88,41.35c-.43.16-.74.14-1,.47a7.18,7.18,0,0,0-.84,1.92c-3.61,8.38-7.24,16.75-10.68,25.2q-1.76,4.31-3.57,8.58c-.13.3.31.56.44.26Z"/><path d="M70.63,77.15c-10.41.26-20.82.24-31.23.15-7.69-.06-17.68-1.88-21.55,6.84-1.57,3.57-1,7.88-1,11.68a.53.53,0,0,0,.37.49,158,158,0,0,0,19,1.24,375.53,375.53,0,0,0,40.26-.65c1.88-.15,3.78-.3,5.65-.59a.51.51,0,0,0,.36-.49c0-3.32.48-7.11-.51-10.33a12,12,0,0,0-11.28-8.34c-.64,0-.64,1,0,1a11,11,0,0,1,9.63,5.91c1.23,2.42,1.16,5,1.16,7.59,0,1-.07,2.14,0,3.19a4.22,4.22,0,0,1,0,.87c0,.19.5-.4.3-.36a15.32,15.32,0,0,1-1.91.23c-12.22,1.32-24.65,1.27-36.92,1.11-6.24-.08-12.48-.26-18.7-.71-2.05-.14-4.7,0-6.67-.63.58.19.21.55.31-.51s0-2.3,0-3.43c0-2.66,0-5.21,1.32-7.63,2.68-4.9,7.46-5.66,12.45-5.57,13,.22,26,.27,39-.06C71.27,78.13,71.27,77.13,70.63,77.15Z"/><path d="M24.22,38.83a4.71,4.71,0,0,1-.89-2.45,13.15,13.15,0,0,1,.27-2.16.16.16,0,0,0-.28-.11c-1.15,1.42-.44,3.68.62,4.93.13.15.4,0,.28-.21Z"/><path d="M29.74,22.2a4,4,0,0,1,2.18,2.47c.31.94.23,2,.63,2.87.08.18.36.11.4-.05.61-2.11-.93-5-3.08-5.59-.17,0-.3.22-.13.3Z"/><path d="M43.11,24.8A5.94,5.94,0,0,1,43.5,22c.31-.74.94-1.27,1.23-2a.17.17,0,0,0-.2-.21,3.38,3.38,0,0,0-1.57,2,5.53,5.53,0,0,0-.27,3c.05.23.45.18.42-.06Z"/><path d="M42.73,21.87c0,.31-.11.62-.15.93h.49l-.18-.55c-.07-.19-.38-.23-.42,0a1.5,1.5,0,0,0-.06.86.13.13,0,0,0,.21.05,1.53,1.53,0,0,0,.27-.8h-.42c0,.19.07.38.11.57s.48.21.5-.06,0-.63,0-.94-.35-.28-.39-.06Z"/><path d="M55.22,25.07c1.16-2.52,0-5-.77-7.48a.2.2,0,0,0-.4.06,9,9,0,0,0,.71,2.91,8.55,8.55,0,0,1,.13,4.38c0,.18.24.33.33.13Z"/><path d="M67.85,25.56a5.14,5.14,0,0,1,1.48-3c.45-.53,1.15-1,1.34-1.7,0-.07,0-.15-.12-.12-.88.31-1.62,1.51-2.17,2.22a3.48,3.48,0,0,0-.94,2.56.21.21,0,0,0,.41,0Z"/><path d="M74.86,40.25c2-1.78,2.48-5.24,1.83-7.71,0-.22-.34-.15-.36,0a31.73,31.73,0,0,1-.2,4.13,7.69,7.69,0,0,1-1.58,3.23c-.16.22.09.5.31.31Z"/><path d="M76.55,35.34a6.13,6.13,0,0,1-.45,1.78c-.17.43.55.64.7.19a6.34,6.34,0,0,1,.39-.66.27.27,0,0,0-.3-.38,1.28,1.28,0,0,0-.75.76l.66.28a6.87,6.87,0,0,0,.25-2,.25.25,0,0,0-.5,0Z"/><path d="M17.13,91c-1.24,6.16,8.94,6.94,12.77,5.72.2-.07.17-.39,0-.38-4.1.2-12.17.67-12.35-5.29,0-.2-.32-.26-.37,0Z"/><path d="M20.76,95.77a5.13,5.13,0,0,0-1.38-.85c-.55-.28-1.1-.54-1.65-.8-.3-.14-.69.16-.48.48A3.13,3.13,0,0,0,19.07,96l.09-.67c-.46-.06-1.07-.14-1.27-.63l-.77.32a2.87,2.87,0,0,0,1.27,1.24l.39-.92c-.36-.13-.45-.85-1-.52a.52.52,0,0,0-.23.57,1.4,1.4,0,0,0,.93.92c.61.21.86-.74.27-1a1.85,1.85,0,0,1-.93-.75.42.42,0,0,0-.73.43,2.26,2.26,0,0,0,2,1c.39,0,.45-.57.09-.67a2.16,2.16,0,0,1-1.39-1.08l-.49.48c.58.29,1.16.59,1.75.86a5.48,5.48,0,0,0,1.5.53c.18,0,.26-.23.14-.35Z"/><path d="M73.32,96.73c2.55,0,5.08-.38,7-2.19,1.45-1.36,2.63-4,1.41-5.86a.13.13,0,0,0-.23,0c-.47,2.18-.41,4.07-2.42,5.54-1.65,1.22-3.87,1.61-5.84,2.07-.23.05-.17.41.06.41Z"/><path d="M81.32,91.1a4.35,4.35,0,0,1-2.65,3.83c-.67.32-.2,1.35.49,1.17a22.22,22.22,0,0,0,2.26-.62.59.59,0,0,0,.43-.57l-.11-.86-1,.28c.32.67-.65.55-.95.67a.45.45,0,0,0-.26.66,1.15,1.15,0,0,0,1.71.2,1.65,1.65,0,0,0,.48-2,.54.54,0,0,0-1.06.14l0,.86.43-.56a22.93,22.93,0,0,0-2.29.52L79.31,96a4.54,4.54,0,0,0,2.41-5c0-.23-.4-.16-.4.06Z"/><path d="M25.65,96.19c-5-.09-8.66-3.82-7.76-8.83a.21.21,0,0,0-.39-.16A6.09,6.09,0,0,0,18.31,94a7.88,7.88,0,0,0,7.34,2.72.24.24,0,0,0,0-.48Z"/><path d="M24.49,71.73c-.5,5,6.36,7.15,10.2,6a.15.15,0,0,0,0-.29c-1.76-.65-3.73-.57-5.51-1.19a6.13,6.13,0,0,1-4.26-4.58c-.07-.25-.4-.17-.43.06Z"/><path d="M30,77.12a3.78,3.78,0,0,1-2-.61c-.41-.25-.75.37-.37.64l.38.26.38-.65-1.1-.63c-.32-.17-.8.21-.54.54s.41.55.62.83.93,0,.66-.39a50.21,50.21,0,0,0-4.23-6.62.13.13,0,0,0-.22.12,50.72,50.72,0,0,0,3.79,6.89l.66-.39-.6-.84-.54.54c.37.21.74.41,1.12.6a.38.38,0,0,0,.38-.65L28,76.51l-.37.64a3,3,0,0,0,2.4.32.18.18,0,0,0-.05-.35Z"/><path d="M66.87,77.76A8.35,8.35,0,0,0,74.64,72c.07-.25-.3-.41-.41-.18a9.77,9.77,0,0,1-7.41,5.57c-.21.05-.15.37.05.38Z"/><path d="M72.89,74.37c-.16.47-.88.9-1.23,1.23s-.86.93-1.46.94l.12.88a1.78,1.78,0,0,1,1.42.24.45.45,0,0,0,.65-.27,4,4,0,0,1,.42-1.34c.17-.31.43-.55.33-.92A.19.19,0,0,0,73,75c-.9-.13-1.35,1.52-1.45,2.18l.65-.26a2.72,2.72,0,0,0-2.1-.34.45.45,0,0,0,.11.88,2.83,2.83,0,0,0,2-1.17,3,3,0,0,0,1.13-1.85.22.22,0,0,0-.42,0Z"/><path d="M27,97.26c3.64.36,7.32.25,11,.25,3.83,0,7.64.16,11.47.14,3.66,0,7.31-.15,11-.26,3.41-.1,7.22.35,10.53-.48a.23.23,0,0,0,0-.44c-3.17-.73-6.78-.25-10-.29-3.83-.05-7.64-.13-11.47-.08-3.66,0-7.31.27-11,.33A112.55,112.55,0,0,0,27,96.87a.2.2,0,0,0,0,.39Z"/><path d="M38.45,78.19c4.67.37,9.39.31,14.08.32,4.24,0,9,.56,13.18-.21a.3.3,0,0,0,0-.58c-4.19-.77-8.94-.21-13.18-.21-4.69,0-9.41-.06-14.08.31a.19.19,0,0,0,0,.37Z"/><path d="M30.13,46.77c.66,1.07,2.5,0,2.11-1.07a.1.1,0,0,0-.17,0c-.24.24-.32.59-.55.83a.85.85,0,0,1-1.16.1.15.15,0,0,0-.23.18Z"/><path d="M31.6,46.76c0,.33.06.66.08,1l.32-.25-.2-.17-.41.24.13.12.29-.38a3.31,3.31,0,0,1-.44-.39.27.27,0,0,0-.44.26,2.06,2.06,0,0,0,.52,1,.18.18,0,0,0,.29-.12A2.1,2.1,0,0,0,31.41,47l-.36.36a2.35,2.35,0,0,1,.47.36.24.24,0,0,0,.34-.35l-.12-.12a.25.25,0,0,0-.42.24.76.76,0,0,0,.54.53.26.26,0,0,0,.32-.31c-.1-.32-.18-.65-.25-1s-.35-.15-.33,0Z"/><path d="M32,47a.66.66,0,0,0-.83,0c-.32.22.05.68.32.41a.87.87,0,0,1,.45-.2A.14.14,0,0,0,32,47Z"/><path d="M48.34,43a1.81,1.81,0,0,0,1.55.59,1.28,1.28,0,0,0,.89-1.13.31.31,0,0,0-.13-.32.35.35,0,0,0-.14,0,.27.27,0,0,0-.25.14c-.12.27-.22.62-.54.71a1.72,1.72,0,0,1-1.12-.29c-.2-.1-.45.16-.26.33Z"/><path d="M49.46,43.4v0l-.39.38.31.22c.21.16.5-.15.36-.35l-.09-.14a.26.26,0,0,0-.48.2c.05.25.05.38.26.52a.16.16,0,0,0,.2-.05c.15-.21.09-.35,0-.6l-.47.2.09.13.41-.32a2.26,2.26,0,0,1-.29-.25.28.28,0,0,0-.44.34.48.48,0,0,0,.76.19.26.26,0,0,0-.26-.44Z"/><path d="M67,46.51c.16.67.59,1.35,1.37,1.26.43-.05,1.06-.67.55-1a.15.15,0,0,0-.13,0c-.25.13-.33.43-.67.36s-.57-.44-.72-.74-.46-.07-.4.16Z"/><path d="M68.22,47.64c-.29.12-.42-.08-.52-.32l-.32.31a.84.84,0,0,1,.44.5l.42-.24L68,47.56l-.31.41a1.11,1.11,0,0,0,.3.17.22.22,0,0,0,.27-.35,2,2,0,0,0-.31-.27c-.25-.18-.49.2-.31.41a4.12,4.12,0,0,0,.28.31c.16.18.52,0,.42-.24a1.41,1.41,0,0,0-.69-.77.23.23,0,0,0-.33.14c-.11.68.59,1,1.15.75.27-.12.07-.59-.21-.48Z"/><rect class="cls-1" width="100" height="100"/></g></g></g></svg>