<svg xmlns="http://www.w3.org/2000/svg" viewBox="0 0 100 100"><defs><style>.cls-1{fill:none;}</style></defs><title>rook</title><g id="Layer_2" data-name="Layer 2"><g id="Layer_2-2" data-name="Layer 2"><g id="rook"><path d="M73.41,76.74c-11.29.28-22.58.26-33.87.18-8.33-.06-19.76-2.29-24.5,6.67-2.06,3.89-1.41,8.69-1.41,13A.5.5,0,0,0,14,97a181.54,181.54,0,0,0,21.11,1.32,433.53,433.53,0,0,0,44.74-.7c2.09-.16,4.18-.31,6.25-.62a.5.5,0,0,0,.37-.48c0-3.55.52-7.62-.6-11-1.77-5.4-6.94-8.61-12.46-8.76a.5.5,0,0,0,0,1,12.32,12.32,0,0,1,10.78,6.35c1.35,2.56,1.28,5.26,1.28,8a24.68,24.68,0,0,0,0,3.44,3.47,3.47,0,0,1,0,.91c.13-.63.57-.43.24-.42-.74,0-1.49.18-2.23.26C69.85,97.7,56,97.66,42.33,97.48c-6.91-.08-13.83-.28-20.73-.75-2.25-.16-5.16-.07-7.26-.66-.25-.08.28.38.29.42a4,4,0,0,1,0-.91c.1-1.29,0-2.63,0-3.92,0-2.86,0-5.58,1.59-8.13,3.19-5.25,8.52-5.81,14-5.72,14.39.23,28.81.28,43.2-.07A.5.5,0,0,0,73.41,76.74Z"/><path d="M13.93,91.39c-1.48,6.67,10.27,7.27,14.17,6.06.2-.06.17-.39-.05-.38-4.28.2-13.77.82-13.76-5.63,0-.2-.32-.25-.36,0Z"/><path d="M17.93,96.49a12.59,12.59,0,0,0-3.38-1.74c-.29-.13-.7.16-.48.48a3.4,3.4,0,0,0,2,1.46l.09-.67c-.51-.06-1.23-.14-1.46-.69l-.77.33a3.14,3.14,0,0,0,1.4,1.3l.39-.92c-.33-.11-.39-.49-.72-.63a.36.36,0,0,0-.34.09l-.08.07a.47.47,0,0,0-.12.48,1.47,1.47,0,0,0,1,1c.62.21.86-.74.27-1a2.19,2.19,0,0,1-1.06-.81.42.42,0,0,0-.73.43,2.45,2.45,0,0,0,2.23,1c.39,0,.46-.57.09-.67a2.46,2.46,0,0,1-1.58-1.16l-.48.49a13.16,13.16,0,0,0,3.59,1.48.21.21,0,0,0,.15-.35Z"/><path d="M76.4,97.49c2.79,0,5.61-.4,7.77-2.34C85.76,93.72,87,91,85.76,89c-.05-.08-.21-.08-.23,0-.42,2.45-.52,4.51-2.83,6-1.83,1.21-4.24,1.6-6.36,2-.23.05-.17.41.06.42Z"/><path d="M85.32,91.52a4.6,4.6,0,0,1-2.94,4.1c-.68.31-.19,1.34.5,1.17a25.26,25.26,0,0,0,2.52-.66c.21-.08.46-.3.43-.56l-.12-.91-1,.27c.37.75-.86.65-1.19.8a.45.45,0,0,0-.16.61c.33.66,1.25.59,1.8.22a1.7,1.7,0,0,0,.54-2c-.2-.53-1.08-.5-1.06.15l0,.91.58-.59c-.91.12-1.81.37-2.71.58l.5,1.17a4.79,4.79,0,0,0,2.69-5.26c0-.24-.4-.17-.4,0Z"/><path d="M23.38,96.94c-5.3-.07-9.8-3.84-8.66-9.39a.22.22,0,0,0-.39-.17,6.36,6.36,0,0,0,1,7.2c2.07,2.44,5,3.14,8.08,2.84.3,0,.32-.48,0-.48Z"/><path d="M24.93,98.05c4.13.39,8.31.25,12.45.24s8.29.16,12.45.14c4,0,8-.15,12-.26s8.24.41,12-.49a.23.23,0,0,0,0-.44c-3.63-.81-7.79-.25-11.51-.3-4.15,0-8.3-.11-12.45-.07-4,0-8,.28-11.95.34-4.31.06-8.67,0-13,.45a.2.2,0,0,0,0,.39Z"/><path d="M14.93,91.78c-.12-3.7.67-7.21,3.34-9.94s5.87-3,9.46-3.89a.3.3,0,0,0,0-.58c-3.59-.86-8,1.51-10.38,4.1a11.41,11.41,0,0,0-2.8,10.37.2.2,0,0,0,.38-.06Z"/><path d="M73.93,77.3c3.39,1.72,7.42,2.93,9.67,6.23,2.61,3.84.86,7.79.67,11.94a.29.29,0,0,0,.53.15c1.85-3.63,2.35-8.86.06-12.41s-6.7-5.47-10.71-6.41c-.29-.07-.5.35-.22.5Z"/><path d="M69.84,97.61c4,.33,9.48.37,13.28-1.25.25-.11.09-.44-.12-.46-2.15-.16-4.41.39-6.55.59s-4.41.32-6.61.58a.27.27,0,0,0,0,.54Z"/><path d="M25.42,78.08a18.56,18.56,0,0,0,5.21-.57.26.26,0,0,0-.07-.5,18.24,18.24,0,0,0-5.18.76.16.16,0,0,0,0,.31Z"/><path d="M81.61,23.9c0-4.75.57-9.84-.06-14.55-.93-7-9.67-5.45-14.65-5.45a.51.51,0,0,0-.5.5l-.61,9a32.64,32.64,0,0,0-.34,4.92c.09,1.09-.26.14.38.21a22.43,22.43,0,0,0-2.46,0c-1.08,0-2.5.13-3.35-.73a3.55,3.55,0,0,1-.74-2.45c-.12-1.71,0-3.47,0-5.18V4.38c0-.85.19-1.93-.46-2.58s-1.4-.46-2.16-.46H51.55c-3.22,0-6.75-.41-9.95,0-2.3.29-1.67,3-1.67,4.73V17.53a7,7,0,0,0,0,1.52c-.08-.33.68-.14.14-.42a4.17,4.17,0,0,0-1.32,0,13.76,13.76,0,0,1-2.94,0,3.44,3.44,0,0,1-2.68-2.82c-.35-3.5-.5-7-.76-10.53a.5.5,0,0,0-.5-.5c-3.63-.07-8.54-1.06-11.38,1.8-1.93,1.93-1.82,4.41-1.82,6.91,0,5.51-1.2,12.68,2.31,17.4,2.11,2.84,5.92,5,9.55,4.72,2.11-.18,4.22-.68,6.33-.89a123.22,123.22,0,0,1,30.76.52,11.5,11.5,0,0,0,7.61-.9A11.84,11.84,0,0,0,81.61,23.9a.5.5,0,0,0-1,0c0,5.53-4.9,11.14-10.73,10.72-2.76-.19-5.53-.84-8.3-1.07a146.66,146.66,0,0,0-30.64,1c-5,.63-9.82-3.3-11-8.09-.67-2.76-.3-5.93-.3-8.74,0-3.07-.85-8,1.53-10.41s6.41-1.56,9.42-1.52c.38,0,.78,0,1.16,0,.13,0-.49-.73-.4-.39a10.83,10.83,0,0,1,.13,1.8,92.73,92.73,0,0,0,.68,9.29c.71,4,5.21,3.15,8.24,3.15a.51.51,0,0,0,.5-.5V7.36c0-1.06-.5-3.54,0-4.5s3.48-.52,4.45-.52H53c1.15,0,3.71-.51,4.76,0S58.28,6,58.28,7v7.32c0,1.73-.1,3.46,1.52,4.58s4.26.62,6.1.62a.51.51,0,0,0,.5-.5l.74-10.85a20.86,20.86,0,0,0,.2-2.84c0-.16.09-.47,0-.63-.22-.66.75.19-.44.18,1.87,0,3.75,0,5.62,0,2.69,0,5.53-.22,7.22,2.42,1.06,1.65.83,3.69.83,5.56v11A.5.5,0,0,0,81.61,23.9Z"/><path d="M28.15,35a104.53,104.53,0,0,0-1.56,12.37c-.5,4.77-1,9.55-1.52,14.32-.43,3.89-.9,7.77-1.34,11.66-.16,1.47-.18,3.68-.3,4.81-.07.64.94.64,1,0,0,.42.26-.8.31-1.07.21-1.09.24-2.25.34-3.35.37-3.81.68-7.62,1-11.43.45-4.77.93-9.53,1.41-14.29.44-4.28,1.14-8.66,1-13a.22.22,0,0,0-.43-.06Z"/><path d="M70.69,35c.47,7.08,1.43,14.15,2.13,21.22s1.36,14.17,2.29,21.22a.61.61,0,1,0,1.21-.17c-1.06-7.32-1.85-14.65-2.6-22C73,48.51,72.53,41.61,71.12,35a.22.22,0,0,0-.43.06Z"/><path d="M20.77,79.05a8.09,8.09,0,0,0,2.76-3.37c.63-1.46.62-3.05,1.12-4.54a.22.22,0,0,0-.37-.21c-.84.92-.69,2.22-1,3.37a8.45,8.45,0,0,1-2.82,4.39c-.19.17.07.52.28.36Z"/><path d="M23.81,73.6c-.58,1.41-1.15,2.82-1.65,4.26a.43.43,0,0,0,.71.41A6.88,6.88,0,0,0,24.62,76c.07-.22-.18-.35-.37-.27a6.79,6.79,0,0,0-2,1.91l.71.41c.47-1.44.87-2.89,1.27-4.36.08-.29-.33-.39-.44-.12Z"/><path d="M75.22,72a4.33,4.33,0,0,0,1,4.46,21.82,21.82,0,0,0,5,4.21.38.38,0,0,0,.51-.52c-.71-1.21-2.09-2-3.17-2.83a6.5,6.5,0,0,1-2.93-5.22c0-.18-.28-.29-.36-.1Z"/><path d="M77.92,77.56c-.51-.56-1-1.15-1.5-1.69-.28-.27-.87,0-.71.41l.45,1.09c.13.31.19.58.51.74a.33.33,0,0,0,.48-.2A1.19,1.19,0,0,0,77,77L76.49,76l-.67.51c.56.52,1.17,1,1.75,1.43a.24.24,0,0,0,.35-.34Z"/><path d="M72.12,77.47c2.52-.23,3.6-3.42,3-5.6a.13.13,0,0,0-.25,0c-.27.88-.18,1.82-.44,2.72a3.59,3.59,0,0,1-2.38,2.49c-.2.07-.19.42.05.39Z"/><path d="M73.91,77.14a2.53,2.53,0,0,0,1.47-1.55c.09-.36-.46-.63-.63-.27-.29.65-.58,2.31.54,2.36a.28.28,0,0,0,.27-.27c0-.65-.63-1.06-.21-1.74l-.6-.35a4.1,4.1,0,0,1-1.1,1.38.26.26,0,0,0,.26.44Z"/><path d="M24.51,72.86C23.28,76,27.2,78,29.82,77.4a.31.31,0,0,0,0-.6c-1.17-.35-2.41-.11-3.51-.79a3.15,3.15,0,0,1-1.37-3.09c0-.26-.34-.27-.43-.06Z"/><path d="M27.82,77.12c-.69-.12-2.49-.49-2.54-1.37l-.7.19a1.47,1.47,0,0,1,0,1.11.5.5,0,0,0,1,.27c.43-1.21-1.68-1.4-1.66-.54a.45.45,0,0,0,.45.45,1.24,1.24,0,0,0,.27,0q.32,0,0-.15l1,.27a2.64,2.64,0,0,0-.3-1.76.38.38,0,0,0-.7.19c.09,1.54,2,1.76,3.24,1.77.23,0,.29-.36.05-.4Z"/><path d="M22,32.16c1.69,1.44,3.58,2.53,4.52,4.64s.55,4.31.87,6.52c0,.26.41.21.48,0,1.68-4.89-1.2-9.47-5.55-11.58-.25-.12-.57.21-.32.42Z"/><path d="M27.79,38.85a7.32,7.32,0,0,0-.7-4.19c-.18-.38-.84-.11-.69.29.25.65.47,1.31.7,2a.41.41,0,0,0,.8-.11c0-.57.07-1.13.1-1.7l-.74.1.3,1.11a.34.34,0,0,0,.65-.18l-.21-1c-.05-.31-.57-.24-.54.07s.06.7.08,1a.27.27,0,0,0,.54,0c0-.25.05-.5.07-.75l-.5.14c.08.18.16.36.23.54s.5.11.51-.13a2.08,2.08,0,0,0,0-.61.2.2,0,0,0-.4-.05,3.51,3.51,0,0,0-.13.66l.51-.14-.24-.55c-.11-.27-.48-.09-.5.14s-.05.5-.07.75h.54c0-.35,0-.7-.07-1h-.55l.09,1,.66-.09L28,35c-.09-.45-.71-.29-.75.1,0,.57-.11,1.13-.15,1.7l.8-.11c-.26-.65-.53-1.29-.77-2l-.68.29a11.36,11.36,0,0,1,.83,3.74c0,.27.47.39.52.07Z"/><path d="M71.59,39A3.5,3.5,0,0,1,73,35.28c.88-.65,2-.77,2.88-1.43.09-.06,0-.24-.07-.26-1.33-.19-3.07.88-3.91,1.87a3.25,3.25,0,0,0-.6,3.62c.08.16.32.05.28-.11Z"/><path d="M72.62,34.81a2.06,2.06,0,0,0-1.77,1.71l.67.09a2.67,2.67,0,0,1,0-.89,1.28,1.28,0,0,0,.06-.61.22.22,0,0,0-.34-.14c-.48.31-.49,1.12-.45,1.64,0,.36.59.49.68.09a2.41,2.41,0,0,1,1.21-1.53c.16-.09.1-.38-.1-.36Z"/><path d="M69.22,35.23a2,2,0,0,1,1.33.9c.29.49.15,1,.35,1.55a.19.19,0,0,0,.32.08c.55-.52.25-1.51-.13-2a1.94,1.94,0,0,0-1.82-.85c-.2,0-.28.33,0,.37Z"/><path d="M28.38,38a3.07,3.07,0,0,1,.93-1.9,2.72,2.72,0,0,1,1-.55,2.67,2.67,0,0,0,.84-.27.23.23,0,0,0,0-.39c-.68-.36-1.68.25-2.18.72A3,3,0,0,0,28,37.92c0,.2.34.27.37,0Z"/><path d="M29.54,35.12a1.92,1.92,0,0,0-1.3.7c-.26.31-.6.9-.31,1.28a.18.18,0,0,0,.28,0c.25-.23.28-.62.45-.9a2.08,2.08,0,0,1,1-.81c.14-.07.07-.33-.09-.31Z"/><path d="M24.37,33c-5.26-3.87-5.3-10.78-5-16.71.12-2.6-.06-5.68,1.14-8C22.28,4.72,28,5.5,31.39,5.33c.43,0,.44-.7,0-.68-2.94.12-7.67-.57-10.15,1.44s-2.32,5.55-2.51,8.33C18.32,20.69,17.3,30,24.2,33.32a.17.17,0,0,0,.17-.3Z"/><path d="M30.43,5.2c2.13.9,1.2,6.35,1.38,8.15a9.59,9.59,0,0,0,1.06,3.86c1.53,2.65,4.55,2.67,7.26,2.25.26,0,.2-.49-.07-.47-2.53.19-5.16.48-6.71-2.06-1.1-1.81-1.05-4.16-1.06-6.21S33,5.45,30.55,4.79c-.28-.08-.36.31-.12.41Z"/><path d="M40.29,19c.32-3.56.28-7.17.37-10.74,0-1,0-1.95.07-2.93.06-1.72-.28-2.5,2-3.06,1.53-.37,3.71,0,5.27,0l5.28,0c2.28,0,4.86.07,5,2.92.22,3.48.11,7,0,10.51a.31.31,0,0,0,.62,0c0-2.63,0-5.25.13-7.87,0-1.48.4-3.33-.26-4.73A3.13,3.13,0,0,0,56,1.49c-2.6-.22-5.31,0-7.93,0-2.4,0-7.37-1.18-7.88,2.19a48.58,48.58,0,0,0-.14,6.5c0,2.93-.19,5.87,0,8.79a.17.17,0,0,0,.33,0Z"/><path d="M58.63,14.64c-1,2.64,1.64,4.49,4,4.8a3.69,3.69,0,0,0,3.24-.77,1.41,1.41,0,0,0,.08-2.14c-.12-.09-.34-.08-.37.1a1.91,1.91,0,0,1-1.23,1.78,4.42,4.42,0,0,1-2.52-.17,4.13,4.13,0,0,1-2.92-3.56.12.12,0,0,0-.24,0Z"/><path d="M65.85,18.71c.41-2.41.6-4.85.84-7.28a26.1,26.1,0,0,1,.41-4c.56-2.13,2.4-2.57,4.27-3a.15.15,0,0,0,0-.28c-2.1-.44-4.14.26-4.79,2.43a27.78,27.78,0,0,0-.67,5.38c-.22,2.24-.49,4.48-.56,6.73,0,.28.45.35.5.07Z"/><path d="M68,4.28a.89.89,0,0,0-1.1,1.09c.07.39.64.22.59-.16a.45.45,0,0,1,.46-.54.2.2,0,0,0,0-.39Z"/><path d="M66.89,4.3c-.22.38-.64.79-.46,1.23,0,.1.14.2.25.15.48-.2.49-.75.62-1.21a.22.22,0,0,0-.41-.17Z"/><path d="M37.36,19.29c1.94.47,3.56-2.43,3.18-4.07a.18.18,0,0,0-.32,0c-.41.67-.38,1.53-.76,2.24A3.63,3.63,0,0,1,37.36,19a.16.16,0,0,0,0,.3Z"/><path d="M39.38,18.91a1.51,1.51,0,0,0,.78-1.09l-.54-.07a2.44,2.44,0,0,0,0,1.14.3.3,0,0,0,.53.07c.07-.15,0-.19,0-.34a3.68,3.68,0,0,1,.06-.87c0-.32-.45-.36-.54-.07a1.48,1.48,0,0,1-.49.82.24.24,0,0,0,.24.41Z"/><path d="M40.73,7.78c0-1.24-.22-2.86.47-4,1.06-1.7,2.72-1.42,4.23-1.39,2.39,0,4.78.1,7.17.16A11.41,11.41,0,0,1,56,2.82c2,.74,2,2.36,2,4,.08,2.3.14,4.6.25,6.89a.21.21,0,0,0,.42,0c.18-2.9,1.21-7.22-.21-9.95-1.22-2.35-4.14-2-6.39-2q-3.1,0-6.21-.05c-1.26,0-2.81-.25-4,.39-2.06,1.14-2,3.82-1.53,5.81a.16.16,0,0,0,.32,0Z"/><path d="M29,35.53a117.29,117.29,0,0,1,21.58-1.62c6.8.18,14.32-.16,20.65,2.59.69.29,1.3-.69.6-1-6.16-2.93-13.66-2.53-20.3-2.54-7.45,0-15.47-.15-22.63,2.22a.2.2,0,0,0,.1.38Z"/><rect class="cls-1" width="100" height="100"/></g></g></g></svg>