<svg xmlns="http://www.w3.org/2000/svg" viewBox="0 0 100 100"><defs><style>.cls-1{fill:#fff;}.cls-2{fill:#ccc;}.cls-3{fill:none;}</style></defs><title>knight</title><g id="Layer_2" data-name="Layer 2"><g id="Layer_2-2" data-name="Layer 2"><g id="knight"><path class="cls-1" d="M67.5,75.49s-1.82.05-5.22.1c2.87-2.68,9.57-10.76,10.42-23.81C73.34,33.11,57,22.92,57,22.92a34.59,34.59,0,0,0-3.67,7.42,51.51,51.51,0,0,0-2.43,21.44h-8C39.6,39,41.71,25.94,50.31,15.9l.2-.05.1,0c3-1.42,3.46-5,2.12-8a7.86,7.86,0,0,0-8.41-4.3A9.4,9.4,0,0,0,37.24,10c-.67,2.26-.4,5,1.4,6.54A4.11,4.11,0,0,1,40,18,37.94,37.94,0,0,0,20.43,44.56c-1.92,11,1.1,22.77,8.6,31l-3.53-.07A11.3,11.3,0,0,0,14.21,86.78v6.89a163.14,163.14,0,0,0,17.08,1.18h.11c4.21.14,9.28.23,15.28.23,23.29,0,32.12-1.41,32.12-1.41V86.78A11.3,11.3,0,0,0,67.5,75.49Z"/><path class="cls-2" d="M28.39,94.24a17.35,17.35,0,0,1-6.65-1.1,8.62,8.62,0,0,1-2.58-13.86c2.23-2.28,5.51-3.14,8.65-3.76a13.68,13.68,0,0,0-9,2.17,10.6,10.6,0,0,0-4.65,7.87,17.16,17.16,0,0,0,0,5.16,5.73,5.73,0,0,0,1.74,2.43,4.09,4.09,0,0,0,2.3.74c3.74.41,7.2.52,10.93.93C28.86,94.52,28.66,94.54,28.39,94.24Z"/><path class="cls-2" d="M58.82,24.16a38.9,38.9,0,0,1,7.9,35.13c-1.12,4.06-3,8-6.17,10.8a20.23,20.23,0,0,1-9.94,4.38,60.7,60.7,0,0,1-11,.57c2,0,4.35.82,6.36.65,2.53-.22,4.58.12,6.94,0s4.71.21,7-.29a8.69,8.69,0,0,0,5-3.58c5.23-6.93,8.8-16.45,7.42-25.3A35.35,35.35,0,0,0,58.82,24.16Z"/><path class="cls-2" d="M64.81,94.24a17.33,17.33,0,0,0,6.64-1.1A8.62,8.62,0,0,0,74,79.28c-2.23-2.28-5.51-3.14-8.64-3.76a13.67,13.67,0,0,1,9,2.17,10.57,10.57,0,0,1,4.65,7.87,18.9,18.9,0,0,1-.7,5.33,3.08,3.08,0,0,1-3.36,3c-3.74.41-7.61.61-11.35,1C63.91,94.61,64.53,94.54,64.81,94.24Z"/><path class="cls-2" d="M21.35,47.37a41.59,41.59,0,0,1,9.47-22.26A35,35,0,0,0,19.59,46.69a34.69,34.69,0,0,0,.63,11.93,35.36,35.36,0,0,0,1.85,5.78c.5,1.18,1.2,3.69,2.56,4.07-1-3.42-2.38-6.59-3-10.16A41.33,41.33,0,0,1,21.35,47.37Z"/><path d="M67,75c-10.4.27-20.82.25-31.23.16-7.69-.06-17.67-1.89-21.54,6.84-1.58,3.56-1,7.88-1,11.68a.5.5,0,0,0,.36.48A156,156,0,0,0,32.55,95.4a375.54,375.54,0,0,0,40.26-.66c1.88-.15,3.78-.29,5.65-.59a.5.5,0,0,0,.37-.48c0-3.33.47-7.11-.52-10.34A12,12,0,0,0,67,75c-.64,0-.64,1,0,1a11,11,0,0,1,9.63,5.92c1.23,2.41,1.17,5,1.17,7.59,0,1-.08,2.13,0,3.18a5.17,5.17,0,0,1,0,.88c0,.19.49-.41.3-.36a17.65,17.65,0,0,1-1.92.23C64,94.74,51.56,94.7,39.29,94.54c-6.23-.09-12.48-.27-18.7-.71-2-.15-4.7,0-6.67-.64.58.2.22.56.32-.51s0-2.3,0-3.42c0-2.66,0-5.21,1.32-7.64C18.24,76.72,23,76,28,76.05c13,.23,26,.27,39-.06A.5.5,0,0,0,67,75Z"/><path d="M13.54,88.82C12.3,95,22.47,95.76,26.3,94.54c.2-.06.18-.39-.05-.37-4.1.2-12.17.66-12.35-5.3,0-.2-.32-.26-.36-.05Z"/><path d="M17.17,93.62a5.12,5.12,0,0,0-1.39-.86c-.54-.28-1.1-.53-1.65-.79-.3-.14-.68.16-.48.48a3.15,3.15,0,0,0,1.82,1.38l.09-.66c-.45-.06-1.07-.14-1.27-.64l-.77.33a2.85,2.85,0,0,0,1.27,1.23l.39-.91c-.36-.13-.45-.85-1-.52a.5.5,0,0,0-.23.56,1.4,1.4,0,0,0,.93.92c.61.22.86-.74.27-1a1.91,1.91,0,0,1-.93-.75.42.42,0,0,0-.73.43,2.24,2.24,0,0,0,2,1c.39,0,.46-.56.09-.66a2.17,2.17,0,0,1-1.39-1.09l-.48.49c.58.29,1.16.58,1.75.85A5,5,0,0,0,17,94c.19,0,.26-.24.15-.35Z"/><path d="M69.72,94.58c2.56,0,5.08-.38,7-2.2,1.45-1.35,2.63-4,1.41-5.86-.06-.08-.21-.08-.23,0-.47,2.18-.41,4.07-2.41,5.55-1.66,1.21-3.88,1.61-5.85,2.06a.22.22,0,0,0,.06.42Z"/><path d="M77.72,88.94a4.37,4.37,0,0,1-2.65,3.84c-.67.32-.19,1.35.49,1.17s1.54-.36,2.27-.63c.21-.08.46-.3.43-.56l-.11-.86-1,.27c.32.67-.65.55-.94.67a.46.46,0,0,0-.27.66,1.15,1.15,0,0,0,1.72.2,1.65,1.65,0,0,0,.48-1.94c-.2-.55-1.08-.5-1.06.14v.86l.43-.57c-.77.11-1.53.34-2.29.52l.49,1.17a4.52,4.52,0,0,0,2.41-5c0-.24-.39-.17-.4,0Z"/><path d="M22.05,94c-5-.1-8.65-3.82-7.76-8.84A.21.21,0,0,0,13.9,85a6.1,6.1,0,0,0,.82,6.75,7.85,7.85,0,0,0,7.33,2.73.24.24,0,0,0,0-.48Z"/><path d="M23.45,95.11a108.43,108.43,0,0,0,11,.24c3.82,0,7.64.17,11.46.15,3.67,0,7.31-.15,11-.26,3.41-.11,7.22.34,10.54-.48a.23.23,0,0,0,0-.44c-3.17-.73-6.79-.26-10-.3-3.82,0-7.64-.12-11.47-.08-3.66,0-7.31.28-11,.33a112.36,112.36,0,0,0-11.46.45.2.2,0,0,0,0,.39Z"/><path d="M14.47,89.19c0-3.44.61-6.77,3-9.37S22.74,77,26,76.18a.31.31,0,0,0,0-.59c-3.28-.81-7.26,1.45-9.37,3.87a11,11,0,0,0-2.5,9.78.19.19,0,0,0,.37,0Z"/><path d="M67.49,75.56c3.24,1.77,7,3,9,6.38s.38,7.07.32,10.73a.29.29,0,0,0,.53.14c1.66-3.21,2.1-7.88.4-11.16C75.79,78,71.57,76,67.7,75.06c-.29-.07-.49.35-.21.5Z"/><path d="M63.83,94.69c3.56.36,8.61.32,12-1.18.24-.1.09-.44-.13-.45-2.09-.17-4.25.39-6.34.58-1.85.17-3.71.27-5.55.53-.33,0-.21.5.07.52Z"/><path d="M29.2,75.2C21.7,66,18.33,54.7,21.08,43A36.74,36.74,0,0,1,40,18.9c.93-.48.11-1.88-.82-1.4A38.06,38.06,0,0,0,19.43,43.27c-2.34,11.32.66,24.37,9.18,32.52.39.37.92-.18.59-.59Z"/><path d="M49.75,15.57c-9,10.06-11.09,23.5-7.92,36.37a.61.61,0,0,0,.58.44h8a.6.6,0,0,0,.6-.6c-1.22-9.64.77-20.39,6-28.56l-.82.22A34.82,34.82,0,0,1,70.45,42.39c3.33,11.33-.72,24.92-9.66,32.69-.58.5.26,1.32.83.83C68.41,70.15,72.23,61,72.8,52.22c.63-9.68-4-18.92-10.77-25.55A32.42,32.42,0,0,0,56.8,22.4a.62.62,0,0,0-.83.22C50.62,31,48.55,42,49.8,51.79l.6-.61H44.27a4.84,4.84,0,0,1-1.52,0c-.3-.17-.07-.44-.15-1.18-.26-2.51-.89-4.95-1-7.49a38.28,38.28,0,0,1,8.74-26.38c.32-.39-.22-1-.57-.57Z"/><path d="M50.13,16c3.13-1.39,4-4.65,3-7.79A8.43,8.43,0,0,0,45.2,2.71a9.71,9.71,0,0,0-8.63,6,8.63,8.63,0,0,0-.69,5.08C36.32,16,38,16.7,39,18.55c.42.8,1.63.09,1.21-.7a6.88,6.88,0,0,0-1.55-1.77,5.57,5.57,0,0,1-1.41-5.17,8.84,8.84,0,0,1,6.07-6.68A7.35,7.35,0,0,1,51.1,7C53,9.71,53,13.83,49.94,15.7c-.2.12,0,.41.19.31Z"/><path d="M46.64,20.18c3-2.71,6.87-5.71,6.36-10.22a7.41,7.41,0,0,0-5.87-6.68.45.45,0,0,0-.24.87c3.9,1.19,6.43,4.91,4.41,8.88C50,15.53,48,17.66,46.41,20c-.1.14.11.28.23.18Z"/><path d="M46.87,20.45c3-2.9,6.92-5.66,6.47-10.24a.36.36,0,0,0-.72,0c0,2.65-.95,4.07-2.8,5.94a19.11,19.11,0,0,0-3.27,4.06.2.2,0,0,0,.32.24Z"/><path d="M41.7,49.82c-.84-5.82-1.1-11.27.31-17,1.36-5.58,4.12-10,7.2-14.68.23-.35-.29-.73-.57-.44-7.55,7.71-10.5,22.1-7.34,32.28a.21.21,0,0,0,.4-.11Z"/><path d="M45.35,51.43a3.68,3.68,0,0,1-2.84-1.76c-.5-.91-.25-1.78-.47-2.72a.13.13,0,0,0-.22-.05c-.81.85-.31,2.49.26,3.34a3.67,3.67,0,0,0,3.27,1.6.21.21,0,0,0,0-.41Z"/><path d="M42.8,51.46a14.19,14.19,0,0,0-.66-4.17c-.14-.62-1.11-.35-1,.27.24,1,1.09,5.74,3,4.19.21-.16.06-.46-.14-.53a2.06,2.06,0,0,1-1.38-1.53,9.31,9.31,0,0,1-.54-2.26l-1,.13a13.69,13.69,0,0,0,1.18,4,.23.23,0,0,0,.43-.12Z"/><path d="M47.32,52a2.57,2.57,0,0,0,2.51-1.11c.56-.72,1.05-2,.42-2.75a.21.21,0,0,0-.34,0c-.34.73-.23,1.51-.75,2.18a5.45,5.45,0,0,1-1.89,1.24.22.22,0,0,0,0,.4Z"/><path d="M49.87,49.9a3,3,0,0,0-.69,1.42.4.4,0,1,0,.78.11,3.05,3.05,0,0,1,.3-1.23c.12-.24-.21-.53-.39-.3Z"/><path d="M27.05,73c-.37,1.08,1,1.82,1.76,2.23,1,.49,2.9,1.28,3.87.58a.24.24,0,0,0,0-.38c-.67-.55-1.71-.46-2.53-.71-1-.32-2.34-.74-2.84-1.76a.17.17,0,0,0-.31,0Z"/><path d="M25.63,71c1.33,3.27,6,5.51,9.43,5,.2,0,.16-.31,0-.37-1.84-.69-3.75-.77-5.53-1.75A14.35,14.35,0,0,1,26,70.83c-.13-.13-.41,0-.33.2Z"/><path d="M55.32,75.9c3.48-.09,8.21-1.7,10.08-4.89.1-.17-.1-.39-.27-.28-1.48,1-2.67,2.28-4.29,3.09a18.17,18.17,0,0,1-5.58,1.67c-.24,0-.18.42.06.41Z"/><path d="M59.44,75.42A5.43,5.43,0,0,1,60.93,75a3.56,3.56,0,0,0,1.21-.69l-.51-.4a2.49,2.49,0,0,1-1.06.86c-.36.16-.7.13-1,.46a.32.32,0,0,0,.12.44c.43.26,1-.07,1.37-.32a3.84,3.84,0,0,0,1.09-1.11c.23-.32-.24-.61-.51-.39a3.44,3.44,0,0,1-1.46.68,2.1,2.1,0,0,0-1.07.51c-.2.19.06.55.29.39Z"/><path d="M25.64,75.49a1.54,1.54,0,0,0,1.45-.95,2.53,2.53,0,0,0,0-2.15.18.18,0,0,0-.33,0c-.18.49,0,1-.09,1.55a1.39,1.39,0,0,1-1.11,1.14c-.21,0-.15.35.05.36Z"/><path d="M27.32,74.18c-.05.3-.11.59-.14.88l.57-.15a3.5,3.5,0,0,0-.33-.43c-.21-.24-.58.06-.43.33l.14.24.37-.37-.26-.16a.27.27,0,0,0-.4.23V75l.45-.19-.23-.21c-.17-.17-.55,0-.44.25,0,.09.08.19.11.28a.29.29,0,0,0,.47.12l.61-.55L27,74.06c-.75,1,.95,2.59,1.82,1.51a.37.37,0,0,0-.08-.57,2.78,2.78,0,0,1-.53-.29c-.21-.15-.23-.29-.32-.53a.49.49,0,0,0-.94,0l-.27.75.51-.07-.14-.26-.41.32.22.22a.28.28,0,0,0,.46-.19v-.2L27,75l.25.17c.24.16.49-.15.37-.37l-.13-.25-.47.28c.07.14.15.27.23.41a.32.32,0,0,0,.58-.16c0-.27,0-.54,0-.81s-.45-.36-.5-.07Z"/><path d="M64.61,75a.88.88,0,0,1-.86-1.28c.14-.38.62-.65.56-1.08a.16.16,0,0,0-.09-.09c-.75-.23-1.2,1.25-1.15,1.77a1.24,1.24,0,0,0,1.6,1.13c.23-.08.21-.48-.06-.45Z"/><path d="M63.46,73.5a1.81,1.81,0,0,0-.55,2,.36.36,0,0,0,.55.07,2.68,2.68,0,0,1,.3-.28.28.28,0,0,0-.06-.5,8.57,8.57,0,0,1-.9-.28c-.36-.14-.62.46-.26.62l.52.23.1-.71-.35,0v.74l.63,0c.42,0,.55-.67.1-.76l-.69-.14c-.51-.09-.73.69-.21.78l.69.11.11-.77-.63.07c-.46,0-.49.74,0,.74h.35c.42,0,.46-.57.09-.71-.15,0-.3-.11-.45-.15l-.09.67a8.17,8.17,0,0,1,.84.14l-.07-.51a1.52,1.52,0,0,1-.36.18l.43.24a2.09,2.09,0,0,1,.16-1.59.16.16,0,0,0-.25-.19Z"/><path d="M64,75.58a32.13,32.13,0,0,1,4.86,1c1.6.48,3,1.36,4.6,1.86a.32.32,0,0,0,.3-.53c-2.36-2.21-6.59-3-9.7-2.7-.22,0-.31.37-.06.41Z"/><path d="M36.83,20.06a3.33,3.33,0,0,0,1.38-2.31,2.8,2.8,0,0,0-1-2.7c-.13-.08-.35,0-.28.22a4.92,4.92,0,0,1,.77,2.2,3.06,3.06,0,0,1-1.11,2.22c-.21.17.07.54.28.37Z"/><path d="M37.92,16.74A9.29,9.29,0,0,0,38,18.23c0,.17.15.38.36.36a.92.92,0,0,0,.61-.21.18.18,0,0,0,0-.26.78.78,0,0,0-.51-.25l.27.36a9.92,9.92,0,0,0-.33-1.55.24.24,0,0,0-.46.06Z"/><path d="M55.23,26.3c.16-1.22,1.32-1.6,2.41-1.44.78.12,1.4.56,2.15.74a.19.19,0,0,0,.18-.31c-1.2-1.43-5.29-1.65-5.1,1,0,.19.33.26.36.05Z"/><path d="M58,24.26a1.71,1.71,0,0,0-2-.22c-.3.16-.08.59.22.52s1,0,1.3-.37a.2.2,0,0,0,0-.22c-.31-.39-1-.09-1.43,0l.22.52a1.28,1.28,0,0,1,1.46,0,.17.17,0,0,0,.2-.26Z"/><rect class="cls-3" width="100" height="100"/></g></g></g></svg>