<svg xmlns="http://www.w3.org/2000/svg" viewBox="0 0 100 100"><defs><style>.cls-1{fill:#fff;}.cls-2{fill:#ccc;}.cls-3{fill:none;}</style></defs><title>king</title><g id="Layer_2" data-name="Layer 2"><g id="Layer_2-2" data-name="Layer 2"><g id="king"><path class="cls-1" d="M97.58,56.62c-4.09,8.17-12.91,13.07-17.43,21H77.67A11.51,11.51,0,0,1,89.18,89.15v7s-9,1.44-32.75,1.44-33.1-1.44-33.1-1.44v-7A11.51,11.51,0,0,1,34.84,77.64H32.27c-4.52-8-13.34-12.85-17.43-21A21.72,21.72,0,0,1,30.59,25.48,22.15,22.15,0,0,1,47.94,30a1,1,0,0,0,1.64-.61L50.8,22.3a1,1,0,0,0-1-1.19H42.2a1,1,0,0,1-1-1.16l1.24-8.85a1,1,0,0,1,1-.88h5.47a1,1,0,0,0,1-1V4a1,1,0,0,1,1-1h9.3a1,1,0,0,1,1,1V9.56a1,1,0,0,0,1,1h6a1,1,0,0,1,1,.9l1,8.3a1,1,0,0,1-1,1.15h-7.2a1,1,0,0,0-1,1.24l1.66,7.36a1,1,0,0,0,1.64.56A21.72,21.72,0,0,1,97.58,56.62Z"/><path class="cls-2" d="M33.55,77c-4-4.61-8.13-9.27-11.13-14.63s-4.87-11.53-4.15-17.62,4.38-12,10-14.45a19.71,19.71,0,0,1,9.8-1.17c2.88.3,6.64,2.11,9.37,1.79-.76-2.78-5.52-4.36-7.94-5.07A21.84,21.84,0,0,0,13.19,37.92,22.29,22.29,0,0,0,14,57.29c1.91,3.53,4.73,6.45,7.52,9.32L32.34,77.82"/><path class="cls-2" d="M76.81,77c4-4.61,8.13-9.27,11.13-14.63s4.87-11.53,4.15-17.62-4.38-12-10-14.45a19.71,19.71,0,0,0-9.8-1.17c-2.88.3-6.65,2.11-9.37,1.79.75-2.78,5.52-4.36,7.94-5.07a22.09,22.09,0,0,1,11.44-.34A22,22,0,0,1,96.41,57.29c-1.91,3.53-4.73,6.45-7.52,9.32L78,77.82"/><path class="cls-2" d="M37.28,96.44a17.28,17.28,0,0,1-6.64-1.11,8.61,8.61,0,0,1-2.59-13.85c2.23-2.29,5.52-3.14,8.65-3.76a13.69,13.69,0,0,0-9,2.16A10.59,10.59,0,0,0,23,87.76a17.5,17.5,0,0,0,0,5.16,5.85,5.85,0,0,0,1.74,2.43,4.1,4.1,0,0,0,2.31.74l11.2,1.22C38,97,37.55,96.73,37.28,96.44Z"/><path class="cls-2" d="M73.7,96.44a17.28,17.28,0,0,0,6.64-1.11,8.61,8.61,0,0,0,2.59-13.85c-2.23-2.29-5.52-3.14-8.65-3.76a13.69,13.69,0,0,1,9,2.16,10.59,10.59,0,0,1,4.64,7.88,18.53,18.53,0,0,1-.7,5.32,3.06,3.06,0,0,1-3.36,3l-11.2,1.22C73,97,73.43,96.73,73.7,96.44Z"/><path class="cls-2" d="M49.31,10.12a10.31,10.31,0,0,1,.28-2.72,3.5,3.5,0,0,1,1.59-2.14,4.89,4.89,0,0,1,3.57,0,6.59,6.59,0,0,1,2,.85,2.49,2.49,0,0,1,1.13,1.82c.06,1-.66,1.92-.47,2.89a2.33,2.33,0,0,0,1.84,1.61c1,.25,2.06.14,3.08.38A16.47,16.47,0,0,1,65.81,14a6.6,6.6,0,0,1,3.07,2.81c-.13-1.42-.29-2.86-.42-4.29a2.88,2.88,0,0,0-.36-1.39c-.55-.79-1.67-.84-2.63-.8l-4,.15c-.29,0-.88-.11-1-.38a2.29,2.29,0,0,1-.11-.87v-4c0-.37.17-1.19-.09-1.5S59,3.35,58.59,3.3a32.45,32.45,0,0,0-8.06,0,2.88,2.88,0,0,0-1,.24,1.09,1.09,0,0,0-.62.74A10.91,10.91,0,0,0,49.31,10.12Z"/><path d="M76.65,77.14c-10.72.27-21.47.25-32.2.15-7.81-.06-17.72-1.81-21.62,7-1.59,3.6-1,8-1,11.84a.5.5,0,0,0,.37.48,158.64,158.64,0,0,0,19.48,1.28,384.1,384.1,0,0,0,40.86-.67c1.93-.16,3.87-.3,5.78-.61a.49.49,0,0,0,.37-.48c0-3.29.45-7-.43-10.21a12.19,12.19,0,0,0-11.59-8.82c-.64,0-.64,1,0,1a11.21,11.21,0,0,1,9.83,6c1.23,2.41,1.19,4.94,1.19,7.55V96c0,.4.55-.38.32-.31a10.92,10.92,0,0,1-1.81.22c-12.34,1.35-24.89,1.3-37.29,1.15C42.43,97,36,96.81,29.52,96.36a38.13,38.13,0,0,1-7-.66c.47.13.1.68.28-.3a18.11,18.11,0,0,0,0-3.21c0-2.34-.13-4.69.71-6.92a11.11,11.11,0,0,1,9.61-7.11c1.11-.07,2.23,0,3.34,0,13.39.24,26.8.29,40.18,0A.5.5,0,0,0,76.65,77.14Z"/><path d="M22.11,91.23c-1.25,6.28,9.1,7.06,13,5.83.19-.07.17-.39-.06-.38-4.18.22-12.42.68-12.6-5.4a.18.18,0,0,0-.36,0Z"/><path d="M25.81,96.12a5.42,5.42,0,0,0-1.42-.87c-.55-.28-1.12-.54-1.68-.81-.29-.14-.68.16-.48.48a3.18,3.18,0,0,0,1.86,1.41l.09-.67c-.48-.06-1.11-.14-1.31-.65l-.77.33a2.86,2.86,0,0,0,1.3,1.25l.38-.91c-.34-.12-.48-.88-1-.53a.52.52,0,0,0-.23.56,1.41,1.41,0,0,0,.94.93c.62.22.86-.73.27-1a1.94,1.94,0,0,1-1-.77.42.42,0,0,0-.73.43,2.26,2.26,0,0,0,2.08,1c.38,0,.45-.56.09-.66a2.25,2.25,0,0,1-1.43-1.11l-.48.48c.59.3,1.18.6,1.78.87a5.34,5.34,0,0,0,1.52.55c.19,0,.26-.23.15-.35Z"/><path d="M79.4,97.09c2.6,0,5.17-.39,7.15-2.24,1.48-1.38,2.67-4.08,1.44-6a.12.12,0,0,0-.23,0c-.46,2.22-.41,4.15-2.46,5.66-1.69,1.24-4,1.64-6,2.1a.21.21,0,0,0,.06.41Z"/><path d="M87.56,91.35a4.45,4.45,0,0,1-2.7,3.92c-.67.32-.2,1.35.49,1.17s1.56-.36,2.31-.63a.6.6,0,0,0,.43-.57L88,94.37l-1,.27c.33.7-.66.58-1,.7a.46.46,0,0,0-.27.66,1.17,1.17,0,0,0,1.74.19,1.67,1.67,0,0,0,.49-2,.54.54,0,0,0-1.06.15l0,.87.43-.56a23.29,23.29,0,0,0-2.34.53l.49,1.17A4.63,4.63,0,0,0,88,91.3c0-.24-.4-.17-.4,0Z"/><path d="M30.79,96.55c-5.09-.09-8.85-3.89-7.92-9,0-.23-.26-.39-.38-.17a6.22,6.22,0,0,0,.83,6.88A8,8,0,0,0,30.79,97a.24.24,0,0,0,0-.48Z"/><path d="M32.21,97.63c3.8.38,7.63.25,11.44.25s7.62.16,11.43.14c3.65,0,7.29-.15,10.94-.26s7.55.37,11-.48a.23.23,0,0,0,0-.45c-3.31-.76-7.11-.25-10.5-.29-3.81-.05-7.61-.12-11.43-.08-3.65.05-7.29.28-10.94.33a118.71,118.71,0,0,0-11.93.45.2.2,0,0,0,0,.39Z"/><path d="M79.38,77.78C82.87,72,88.34,68,92.73,63c4.08-4.67,6.76-10.25,6.66-16.55-.21-12.68-11.53-23-24.21-21.79a23,23,0,0,0-8.76,2.65c-.71.38-3.27,2.59-4.07,2-.28-.22-.37-1.61-.44-2l-.69-3c-.1-.46-.61-1.66-.47-2.12.35-1.1,3.43-.54,4.42-.53s3,.4,4-.23.78-2,.65-3.1l-.68-5.7C69,11.59,69,10.45,68,10c-1.28-.56-3.32-.16-4.66-.16-.52,0-1.74.22-2.12-.16S61,8,61,7.49c0-1.23.43-3.3-.24-4.44s-2-.9-3-.9h-6c-1.09,0-2.53-.26-3.29.73s-.38,3-.38,4.2c0,.49.23,1.85-.14,2.21s-1.6.13-2.09.13c-1.22,0-3.21-.41-4.34.22s-1,2.06-1.18,3.12l-.83,5.86c-.16,1.08-.44,2.36.67,3.06s2.93.28,4,.28c.75,0,4.26-.5,4.71.17s-.71,4.1-.85,4.93c0,.3-.1,1.85-.35,2-.6.44-3.15-1.69-3.74-2-11.28-6-25.85-1.41-31.25,10.3a23,23,0,0,0-.36,18.21c2.46,5.91,7.34,10.16,11.74,14.61a41.91,41.91,0,0,1,6.37,7.87A.86.86,0,0,0,32,77.2c-6.44-11-20.36-17-19.53-31.56C13.34,30.31,30.65,21.23,43.85,29c1.36.8,3.28,3.11,4.93,1.69.91-.78.88-2.52,1.06-3.6.34-2,2-6.33-1.1-6.78-1.52-.22-7.17.88-7.72-.39-.42-1,.53-3.82.68-4.86.11-.82,0-3.45.78-4s3.38,0,4.28,0c1.34,0,2.58-.06,2.94-1.62a20.12,20.12,0,0,0,0-4.25c0-1.68.52-1.43,2.06-1.44h5.61c1.51,0,2.08-.23,2.09,1.41,0,2.63-.9,6.06,2.55,6.22,1.46.06,3.38-.39,4.79,0,1.22.32,1,2.12,1.1,3.34s.92,3.55.6,4.8-2.19.74-3.35.75c-2,0-6.09-.8-5.66,2.37.21,1.54.71,3.09,1.05,4.6.22,1,.29,2.64,1.11,3.35a1.74,1.74,0,0,0,2,.09c1.4-.6,2.65-1.91,4.07-2.6a21,21,0,0,1,29.41,12.2c2.61,7.95.2,15.92-5.14,22.08-4.4,5.07-9.77,9.28-13.16,15.18a.28.28,0,0,0,.49.28Z"/><path d="M31.31,78.7c8.09.15,16.17-.16,24.26-.34,7.77-.16,15.54,0,23.31,0,.57,0,.55-.82,0-.88a213.24,213.24,0,0,0-23.31-.56c-8.09.13-16.19.32-24.26.89a.46.46,0,0,0,0,.92Z"/><path d="M29.17,74.53c1.55,2.54,6.4,4.71,9.3,3.87a.3.3,0,0,0,0-.58c-1.46-.53-3.07-.52-4.55-1.08-1.64-.61-3-1.69-4.53-2.43a.16.16,0,0,0-.22.22Z"/><path d="M33.61,77.37a14.81,14.81,0,0,1-3.22-2.52,4.13,4.13,0,0,0-2.61-1.49.23.23,0,0,0-.16.38c.53.45,1.13.77,1.65,1.23s.91.94,1.38,1.39a4,4,0,0,0,2.85,1.4.21.21,0,0,0,.11-.39Z"/><path d="M73.61,77.43c3.18.87,7.1-1.85,9.06-4.17.08-.09,0-.27-.12-.21-3.23,1.28-5.07,4-8.88,4a.21.21,0,0,0-.06.4Z"/><path d="M81.24,74a6.1,6.1,0,0,1-1.84,1.77,7.09,7.09,0,0,1-2.17.93.6.6,0,0,0,.16,1.17,3,3,0,0,0,1.7-.18.43.43,0,0,0,0-.72,3.15,3.15,0,0,0-1.7-.29l.16,1.17A6.74,6.74,0,0,0,80,76.52a7.53,7.53,0,0,0,1.65-2.3c.15-.25-.26-.48-.4-.23Z"/><path d="M79.51,75.8a104.2,104.2,0,0,0,13.6-14.1c3.25-4,6.13-9.28,5.79-14.62a.28.28,0,0,0-.56,0C97.7,53.4,95,58.39,90.84,63.14c-3.7,4.26-8.09,8-11.59,12.4a.18.18,0,0,0,.26.26Z"/><path d="M46.14,45.4c-4.3-4.18-14-6-16.53,1.15a6,6,0,0,0,1.95,6.93c1.7,1.33,3.62,2.12,5.11,3.76a13.32,13.32,0,0,1,3.16,6.19c.21.92,1.66.53,1.42-.39a15.58,15.58,0,0,0-3.09-6.24c-1.84-2.2-4.37-3-6.41-4.86-3.78-3.46.21-8.1,4.14-8.67,3.6-.52,6.77,1.33,10,2.49.21.08.36-.21.21-.36Z"/><path d="M40.74,64a21.94,21.94,0,0,0,5.25.08.59.59,0,0,0,0-1.17,20,20,0,0,0-5.25.1.52.52,0,0,0,0,1Z"/><path d="M46.27,63.56c.57-2.69.22-5.68.22-8.43,0-3.07.28-6.27,0-9.32a.5.5,0,0,0-1,0c-.28,3,0,6.25,0,9.32,0,2.75-.35,5.74.22,8.43a.29.29,0,0,0,.56,0Z"/><path d="M40.43,43.13a10.65,10.65,0,0,1,3.74,1.68,5.24,5.24,0,0,1,1.47,3.55.21.21,0,0,0,.39.11,3.26,3.26,0,0,0-.61-4.19,7.18,7.18,0,0,0-4.93-1.54.2.2,0,0,0-.06.39Z"/><path d="M41.76,43.76a8.27,8.27,0,0,1,3,2c.72,1,.64,2.24,1.22,3.28a.22.22,0,0,0,.4,0c.75-2.94-1.9-5.06-4.44-5.62a.19.19,0,0,0-.14.35Z"/><path d="M38,42.41c1,.29,2,.5,3,.85a24.3,24.3,0,0,0,2.94,1,.31.31,0,0,0,.24-.56,10.8,10.8,0,0,0-6.12-1.54.12.12,0,0,0,0,.24Z"/><path d="M44.41,63.52a1.61,1.61,0,0,0,1.45-1.4,10.35,10.35,0,0,0,.29-3.63.16.16,0,0,0-.3,0,7.22,7.22,0,0,0-.44,1.89c-.12.88-.06,2.36-1,2.75-.21.08-.21.45,0,.43Z"/><path d="M46.23,63.9a2.44,2.44,0,0,0,.37-2,10.54,10.54,0,0,0-.32-3c0-.11-.22-.13-.25,0a7.84,7.84,0,0,0,0,2.11,5.07,5.07,0,0,1-.09,2.57c-.1.2.17.44.32.25Z"/><path d="M45.21,64c2.09.54,1.41-2.54,1.09-3.62a.13.13,0,0,0-.25,0,9.77,9.77,0,0,0,0,1.71c0,.23.05.48,0,.7,0,.52-.43.72-.87.85a.17.17,0,0,0,0,.33Z"/><path d="M39.89,63.17a1.59,1.59,0,0,0,1.18.83.42.42,0,0,0,.4-.1l.07-.09a.29.29,0,0,0,0-.34c-.3-.42-1-.32-1.43-.55-.16-.08-.36.09-.26.25Z"/><path d="M41.68,63.56a2.85,2.85,0,0,1-.78-.25c-.21-.15-.27-.44-.42-.64a.39.39,0,0,0-.69.09c-.42,1,1.17,1.49,1.89,1.29a.26.26,0,0,0,0-.49Z"/><path d="M42.91,63.17A5.48,5.48,0,0,1,41,62.32a2.42,2.42,0,0,1-.85-1.72.14.14,0,0,0-.25-.07,1.71,1.71,0,0,0,.39,2.09,4,4,0,0,0,2.58,1c.25,0,.29-.36.06-.42Z"/><path d="M40.08,61.35c.36,2.95,6.83,2.56,5.81-.37a.3.3,0,0,0-.58,0c-.32,1.18-1,1.47-2.19,1.46a2.63,2.63,0,0,1-2.64-1.2.22.22,0,0,0-.4.11Z"/><path d="M63.49,45.76c3.06-1.08,6.06-2.82,9.41-2.58,4.08.31,8.85,5,4.77,8.76-1.93,1.76-4.39,2.55-6.16,4.58A15.54,15.54,0,0,0,68.17,63c-.24.92,1.21,1.31,1.42.39a13.42,13.42,0,0,1,3.16-6.19c1.49-1.64,3.41-2.43,5.11-3.76a6,6,0,0,0,2-6.93c-2.55-7.14-12.23-5.33-16.53-1.15-.15.15,0,.44.21.36Z"/><path d="M68.69,63a20.13,20.13,0,0,0-5.26-.1.59.59,0,0,0,0,1.17A21.52,21.52,0,0,0,68.69,64a.52.52,0,0,0,0-1Z"/><path d="M63.71,63.56c.57-2.69.22-5.68.22-8.43,0-3.07.28-6.27,0-9.32a.5.5,0,0,0-1,0c-.28,3,0,6.25,0,9.32,0,2.75-.35,5.74.22,8.43a.29.29,0,0,0,.56,0Z"/><path d="M68.93,42.74A7.18,7.18,0,0,0,64,44.28a3.26,3.26,0,0,0-.61,4.19.21.21,0,0,0,.39-.11,5.26,5.26,0,0,1,1.47-3.55A10.75,10.75,0,0,1,69,43.13a.2.2,0,0,0-.06-.39Z"/><path d="M67.52,43.41C65,44,62.33,46.09,63.08,49a.22.22,0,0,0,.4,0c.58-1,.49-2.29,1.22-3.28a8.35,8.35,0,0,1,3-2c.2-.1.06-.39-.14-.35Z"/><path d="M71.36,42.17a10.82,10.82,0,0,0-6.12,1.54.31.31,0,0,0,.24.56,24.3,24.3,0,0,0,2.94-1c1-.35,2-.56,3-.85a.12.12,0,0,0,0-.24Z"/><path d="M65.07,63.09c-1-.39-.94-1.88-1.06-2.75a7.22,7.22,0,0,0-.44-1.89.16.16,0,0,0-.3,0,10.12,10.12,0,0,0,.29,3.63A1.61,1.61,0,0,0,65,63.52c.26,0,.27-.35.06-.43Z"/><path d="M63.51,63.65a5.18,5.18,0,0,1-.09-2.57,7.45,7.45,0,0,0,0-2.11c0-.13-.21-.11-.25,0a10.58,10.58,0,0,0-.32,3,2.44,2.44,0,0,0,.37,2c.15.19.43,0,.32-.25Z"/><path d="M64.21,63.64c-.45-.13-.8-.33-.87-.85a4.11,4.11,0,0,1,0-.7,10.85,10.85,0,0,0,0-1.71.13.13,0,0,0-.25,0c-.32,1.08-1,4.16,1.09,3.62a.17.17,0,0,0,0-.33Z"/><path d="M69.27,62.92c-.45.23-1.12.12-1.43.55a.29.29,0,0,0,0,.34l.07.09a.42.42,0,0,0,.4.1,1.59,1.59,0,0,0,1.18-.83c.1-.16-.1-.33-.26-.25Z"/><path d="M67.74,64.05c.73.2,2.31-.25,1.89-1.29a.39.39,0,0,0-.69-.09c-.15.21-.21.48-.42.64a2.64,2.64,0,0,1-.78.25.26.26,0,0,0,0,.49Z"/><path d="M66.57,63.59a4,4,0,0,0,2.58-1,1.71,1.71,0,0,0,.39-2.09.14.14,0,0,0-.25.07,2.39,2.39,0,0,1-.85,1.72,5.4,5.4,0,0,1-1.93.85c-.22.06-.19.44.06.42Z"/><path d="M68.94,61.24a2.64,2.64,0,0,1-2.64,1.2c-1.21,0-1.85-.24-2.18-1.46a.31.31,0,0,0-.59,0c-1,2.94,5.45,3.32,5.81.37a.22.22,0,0,0-.4-.11Z"/><path d="M41.47,13.44c.28-2.46,2.7-2.11,4.48-2.65a.17.17,0,0,0,0-.32c-1.86-.53-5.27.54-4.78,3,0,.19.29.12.3,0Z"/><path d="M63.58,10.74a4.44,4.44,0,0,1,3.52,1.71c.66.9.66,2,1.12,3a.24.24,0,0,0,.41,0c.78-1.25-.1-3-1-3.91a4.69,4.69,0,0,0-4.08-1.29c-.3,0-.22.52.07.53Z"/><path d="M56.21,3.67a3.55,3.55,0,0,1,2.61,1A2.09,2.09,0,0,1,59.27,6a1.92,1.92,0,0,0,.12,1,.21.21,0,0,0,.22.09c1.1-.46.48-2.22-.08-2.88a3.38,3.38,0,0,0-3.38-.88c-.23,0-.15.38.06.39Z"/><path d="M49.56,6.49A2.43,2.43,0,0,1,50.73,4a11.07,11.07,0,0,1,2.53-.65.24.24,0,0,0,0-.46c-2-.61-4.86,1.47-4,3.64a.17.17,0,0,0,.32-.08Z"/><path d="M47,21.7c.74.38,1.53.31,2,1.18a1.82,1.82,0,0,1,.11,1.22,3.25,3.25,0,0,0-.3,1,.33.33,0,0,0,.41.32c1.24-.22,1.11-2.28.63-3.08s-2-1.75-2.85-1a.22.22,0,0,0,0,.34Z"/><path d="M45.29,21.87a2.84,2.84,0,0,1,3,1.24c.57,1,0,2,.34,3a.28.28,0,0,0,.46.12c1-1,.64-3-.21-4a3,3,0,0,0-3.78-.76c-.27.13-.07.5.19.45Z"/><path d="M61.18,24.2a2.37,2.37,0,0,1,1.57-2.38c.83-.32,1.81-.11,2.57-.58a.22.22,0,0,0,0-.37c-1.08-.66-3-.13-3.89.64a2,2,0,0,0-.53,2.81.16.16,0,0,0,.28-.12Z"/><path d="M61.48,21.58a1.24,1.24,0,0,0-1.28,1.21c0,.48.69.54.81.11a2.49,2.49,0,0,0,.16-1.37.21.21,0,0,0-.34-.09,2.55,2.55,0,0,0-.61,1.24l.81.11a.94.94,0,0,1,.51-.77c.22-.08.21-.45-.06-.44Z"/><path d="M44.33,28a3.37,3.37,0,0,0,3.62.63,3,3,0,0,0,1.47-3,.16.16,0,0,0-.26-.07c-.6.69-.66,1.73-1.45,2.27-1,.69-2.18.05-3.26-.09a.17.17,0,0,0-.12.29Z"/><path d="M48.14,27.67a1.17,1.17,0,0,1-.71.7,1.5,1.5,0,0,0-.7.4.74.74,0,0,0,.2,1.12.32.32,0,0,0,.4-.05c.11-.12.05-.21.09-.33s-.08,0,0-.1a2,2,0,0,1,.41-.2c.57-.28.67-.74.75-1.33,0-.27-.35-.51-.49-.21Z"/><path d="M61,27.59a4,4,0,0,0,2.56,1.83c.77.12,1.9-.08,2.13-1,0-.14-.08-.34-.24-.31-.74.09-1.27.53-2.06.31a8.38,8.38,0,0,1-2.06-1.21c-.2-.13-.48.13-.33.33Z"/><path d="M63.93,29.07c-.64-.14-1.28-.29-1.92-.41-.3-.06-.52.36-.22.52s.83.58,1.28.5a.2.2,0,0,0,.11-.27c-.18-.39-.74-.54-1.1-.72l-.22.52,1.94.31c.3,0,.43-.39.13-.45Z"/><path d="M88.92,28.91c3.39,3.39,6.26,7,7.71,11.69a22.4,22.4,0,0,1,1,7.54c-.1,2.48-1,4.83-1.08,7.27,0,.25.36.44.53.22,3.05-3.85,2.28-11,.91-15.4a20.26,20.26,0,0,0-8.86-11.58.17.17,0,0,0-.2.26Z"/><path d="M19.6,64.92c-9.27-9.92-9.28-26.1,1.56-35,.36-.3-.16-.82-.52-.52-5.38,4.45-9,10.55-9.19,17.65a23.83,23.83,0,0,0,7.82,18.22.23.23,0,0,0,.33-.33Z"/><path d="M23.06,91.61c0-3.52.61-6.91,3.1-9.57s5.33-2.9,8.63-3.71a.31.31,0,0,0,0-.59c-3.36-.8-7.4,1.48-9.55,4a11.15,11.15,0,0,0-2.55,10,.19.19,0,0,0,.37,0Z"/><path d="M77.13,77.7c3.31,1.8,7.15,3,9.14,6.51s.4,7.21.32,10.94a.29.29,0,0,0,.53.15c1.68-3.29,2.13-8,.4-11.38-2-3.75-6.25-5.79-10.18-6.72a.27.27,0,0,0-.21.5Z"/><path d="M73.39,97.21c3.64.36,8.76.31,12.18-1.2.24-.11.09-.44-.12-.46-2.14-.16-4.34.41-6.47.6-1.89.18-3.78.28-5.66.53-.33,0-.21.5.07.53Z"/><rect class="cls-3" width="100" height="100"/></g></g></g></svg>