<svg xmlns="http://www.w3.org/2000/svg" viewBox="0 0 100 100.09"><defs><style>.cls-1{fill:#fff;}.cls-2{fill:#ccc;}.cls-3{fill:none;}</style></defs><title>bishop</title><g id="Layer_2" data-name="Layer 2"><g id="Layer_2-2" data-name="Layer 2"><g id="bishop"><path class="cls-1" d="M76.52,75.74c3.55-8.64,5.71-18,5.31-27.29s-3.47-18.69-9.46-25.86c-3.62-4.33-8.08-8.38-13.67-9.85-3.15-.82-6.54-.2-9.42-1.92l0,0a6.53,6.53,0,0,1-2.25-1.13c-2.7-2.12-3.13-6.35-6-8.25a5.31,5.31,0,0,0-5.39-.22A5.31,5.31,0,0,0,33,5.85c0,1.39.6,2.83.09,4.12a5.87,5.87,0,0,1-1.91,2.12A27.85,27.85,0,0,0,21.3,30.23v.08a25.38,25.38,0,0,1-6.76,11c-1.13,1.16-2.36,2.23-3.37,3.48a7.74,7.74,0,0,0-1.9,4.37,6.8,6.8,0,0,0,2,4.88,13.69,13.69,0,0,0,4.49,3,12.57,12.57,0,0,0,6.11,1.29A6.17,6.17,0,0,0,27,55a15.84,15.84,0,0,0,.74-2.43,4.43,4.43,0,0,1,1.21-2.2,2,2,0,0,1,2-.61,14.36,14.36,0,0,0,16.31-9.54l.22.35c3.15,1.4,3.88,5.16,2.7,8.4s-3.87,5.66-6.46,7.94l-10.95,9.6a11.77,11.77,0,0,0-3.48,4.19,4.12,4.12,0,0,0,1,4.67,11.3,11.3,0,0,0-10,11.22V93.5s9.17,1.41,32.47,1.41S84.83,93.5,84.83,93.5V86.62A11.29,11.29,0,0,0,76.52,75.74Z"/><path class="cls-1" d="M31.11,49.84l-.19-.05-.14,0Z"/><path d="M32.1,27.28A2.85,2.85,0,0,0,34,25.47c.37-.85.54-1.78,1-2.6a4.1,4.1,0,0,1,3.44-2.3,3.11,3.11,0,0,1,3.1,2.5,4,4,0,0,1-.74,2.65,4.49,4.49,0,0,1-2.31,2,6.22,6.22,0,0,1-2.32.11l-2.57-.2-1.51-.11"/><path class="cls-2" d="M34.2,94a17.28,17.28,0,0,1-6.64-1.11A8.61,8.61,0,0,1,25,79.08c2.23-2.29,5.52-3.14,8.65-3.76a13.69,13.69,0,0,0-9,2.16A10.59,10.59,0,0,0,20,85.36a17.1,17.1,0,0,0,0,5.15A5.82,5.82,0,0,0,21.71,93a4.1,4.1,0,0,0,2.31.74c3.73.41,7.19.52,10.92.93C34.67,94.32,34.47,94.33,34.2,94Z"/><path class="cls-2" d="M70.62,94a17.31,17.31,0,0,0,6.64-1.11,8.61,8.61,0,0,0,2.59-13.85c-2.24-2.29-5.52-3.14-8.65-3.76a13.69,13.69,0,0,1,9,2.16,10.59,10.59,0,0,1,4.64,7.88,18.88,18.88,0,0,1-.7,5.32,4.16,4.16,0,0,1-1,2.27,4.1,4.1,0,0,1-2.31.74c-3.73.41-7.61.61-11.34,1C69.73,94.41,70.35,94.33,70.62,94Z"/><path class="cls-2" d="M33.09,5c.21-2,2.78-3.16,4.75-2.56s3.35,2.36,4.39,4.13,1.92,3.7,3.43,5.1c2.72,2.53,6.77,2.77,10.34,3.78,10.37,2.93,15.85,11.68,18.94,21.34C78.19,46.92,80,58.86,78.2,69.49A51.48,51.48,0,0,0,73.59,24C70.09,18.52,64.22,13.59,57.78,13c-3.8-.34-7.7-1.2-10.67-3.6a27.53,27.53,0,0,1-4-4.51c-1.08-1.37-2-3-3.64-3.77A5.67,5.67,0,0,0,35.57.82c-.63.76-1.32,1.31-2,2.07A3.26,3.26,0,0,0,33,4C32.84,4.35,32.77,4.69,33.09,5Z"/><path class="cls-2" d="M48.8,75.4l-11.27-.49a10.68,10.68,0,0,1-3-.43,3.47,3.47,0,0,1-2.18-2c-.58-1.59.5-3.28,1.58-4.58,1.57-1.89,3.28-3.67,5-5.44l7.66-7.95-4.18,3.75c-2.25,2-4.77,3.68-7.17,5.49a23.5,23.5,0,0,0-5.7,5.73,6.53,6.53,0,0,0-.6,6.32c2.26-.87,4.78-.61,7.19-.52C40.33,75.47,44.61,75.25,48.8,75.4Z"/><path d="M73.34,74.82c-10.4.27-20.82.25-31.23.16-7.69-.07-17.67-1.89-21.54,6.84-1.58,3.56-1,7.88-1,11.68a.5.5,0,0,0,.36.48,156,156,0,0,0,19,1.25,375.54,375.54,0,0,0,40.26-.66c1.88-.15,3.78-.29,5.65-.59a.5.5,0,0,0,.36-.48c0-3.33.48-7.11-.51-10.34a12,12,0,0,0-11.28-8.34c-.64,0-.64,1,0,1A11,11,0,0,1,83,81.74c1.23,2.41,1.16,5,1.16,7.59,0,1-.07,2.13,0,3.18a4.31,4.31,0,0,1,0,.88c0,.19.5-.41.31-.36a17.65,17.65,0,0,1-1.92.23C70.3,94.57,57.87,94.53,45.6,94.37c-6.24-.09-12.48-.27-18.7-.71-2-.15-4.7,0-6.67-.64.58.2.22.56.32-.51s0-2.3,0-3.42c0-2.66,0-5.21,1.31-7.64,2.69-4.9,7.46-5.65,12.45-5.57,13,.23,26,.27,39-.06A.5.5,0,0,0,73.34,74.82Z"/><path d="M19.85,88.65c-1.24,6.16,8.93,6.94,12.76,5.72.2-.06.18-.39,0-.37-4.1.2-12.17.66-12.35-5.3,0-.2-.32-.26-.36,0Z"/><path d="M23.48,93.45a5.12,5.12,0,0,0-1.39-.86c-.54-.28-1.1-.53-1.65-.79-.3-.14-.68.16-.48.48a3.15,3.15,0,0,0,1.82,1.38l.09-.66c-.46-.06-1.07-.14-1.27-.64l-.77.33a2.85,2.85,0,0,0,1.27,1.23l.39-.91c-.36-.13-.45-.85-1-.52a.5.5,0,0,0-.23.56,1.4,1.4,0,0,0,.93.92c.61.22.86-.74.27-1a1.91,1.91,0,0,1-.93-.75.42.42,0,0,0-.73.43,2.24,2.24,0,0,0,2,1c.39,0,.46-.56.09-.66a2.17,2.17,0,0,1-1.39-1.09l-.48.49c.58.29,1.16.58,1.75.85a4.75,4.75,0,0,0,1.49.53c.18,0,.26-.23.15-.34Z"/><path d="M76,94.41c2.56,0,5.08-.38,7-2.2,1.45-1.35,2.63-4,1.41-5.86-.06-.08-.21-.08-.23,0-.47,2.18-.41,4.07-2.42,5.55C80.16,93.14,77.94,93.54,76,94a.22.22,0,0,0,.06.42Z"/><path d="M84,88.77a4.37,4.37,0,0,1-2.65,3.84c-.67.32-.19,1.35.49,1.17s1.54-.36,2.27-.63c.21-.08.46-.3.43-.56l-.11-.86-1,.27c.32.67-.65.55-.94.67a.46.46,0,0,0-.27.66,1.15,1.15,0,0,0,1.72.2,1.66,1.66,0,0,0,.48-1.94c-.2-.55-1.08-.5-1.06.14v.86l.43-.57c-.77.11-1.53.34-2.29.52L82,93.71a4.52,4.52,0,0,0,2.41-5c0-.24-.39-.17-.4,0Z"/><path d="M28.36,93.87c-5-.1-8.65-3.82-7.76-8.84a.21.21,0,0,0-.39-.16A6.1,6.1,0,0,0,21,91.62a7.84,7.84,0,0,0,7.33,2.73.24.24,0,0,0,0-.48Z"/><path d="M29.76,94.94a108.43,108.43,0,0,0,11,.24c3.82,0,7.64.17,11.46.15s7.31-.15,11-.26c3.41-.11,7.22.34,10.54-.48a.24.24,0,0,0,0-.45c-3.17-.73-6.79-.25-10-.29-3.82,0-7.64-.12-11.47-.08-3.66,0-7.31.28-11,.33-3.82.06-7.66,0-11.46.44a.2.2,0,0,0,0,.4Z"/><path d="M20.78,89c0-3.44.61-6.77,3-9.37s5.23-2.84,8.46-3.64a.31.31,0,0,0,0-.59C29,74.61,25,76.87,22.91,79.29a11,11,0,0,0-2.5,9.78.19.19,0,0,0,.37,0Z"/><path d="M73.8,75.39c3.24,1.77,7,3,9,6.38s.38,7.07.32,10.73a.29.29,0,0,0,.53.14c1.66-3.21,2.1-7.88.4-11.16-1.91-3.68-6.13-5.68-10-6.59a.27.27,0,0,0-.21.5Z"/><path d="M70.14,94.52c3.56.36,8.6.32,12-1.18.24-.1.09-.44-.13-.45-2.09-.17-4.25.39-6.34.58-1.86.17-3.71.27-5.56.52-.32.05-.2.51.08.53Z"/><path d="M49,11c2.76,1.6,5.57,1.38,8.61,2a20.74,20.74,0,0,1,8.7,4.45A39.74,39.74,0,0,1,77.91,33.73C83.19,47.37,81,62.31,75.63,75.55c-.34.86,1.05,1.23,1.39.38,5.54-13.72,7.67-29.31,1.9-43.33A39.81,39.81,0,0,0,67.7,17.17a24.29,24.29,0,0,0-7.57-4.45c-3.55-1.22-7.52-.48-10.93-2.08-.25-.12-.46.23-.22.37Z"/><path d="M30.48,75.47c-4.54-4.23,3.15-9.28,6.06-11.79,3.45-3,7.15-5.76,10.33-9,3.71-3.81,6.91-11.37.7-14.58-.72-.37-1.35.71-.63,1.08,5.13,2.65,2.53,8.83-.39,12s-6.42,6-9.61,8.84C34.57,64.18,23.65,72.1,30.22,75.8a.21.21,0,0,0,.26-.33Z"/><path d="M46.89,40.16c-1.57,2.92-3.37,5.49-6.27,7.24A14.09,14.09,0,0,1,36,49.18c-1.83.36-3.58,0-5.39.18-.36,0-.61.58-.21.76,3.16,1.43,7.67.2,10.53-1.48a13.24,13.24,0,0,0,6.3-8.34c0-.19-.22-.33-.32-.14Z"/><path d="M31,49.6c-3.1-.9-3.59,2.33-4.4,4.51-2.33,6.24-11.33,3.21-14.82-.26-5.17-5.13.73-9.6,4.11-13.38a26.18,26.18,0,0,0,5.76-10,.56.56,0,0,0-1.07-.3c-1.73,5.79-5.63,9.23-9.47,13.59-2.63,3-3.59,6.75-1,10.09a14.49,14.49,0,0,0,11.61,5,7.29,7.29,0,0,0,4.61-2.27c1.61-1.82,1.3-6.72,4.56-6.46.28,0,.32-.4.07-.48Z"/><path d="M21.19,31.42c1-4.43,1.93-8.57,4.4-12.46a27.75,27.75,0,0,1,4.61-5.47c1.23-1.14,2.86-2.06,3.31-3.77.63-2.38-.85-4.57.85-6.8,2.36-3.09,6.3-1.74,8.13,1.1,1.94,3,2.84,6,6.51,7.24.61.21.86-.75.26-1C44.5,8.6,44.83,2.51,40.42.5A5.86,5.86,0,0,0,32.3,5c-.16,1.13.38,2.27.24,3.36-.29,2.21-1.66,3-3.11,4.36a27.73,27.73,0,0,0-4.26,5.1c-2.53,3.88-4.6,8.84-4.38,13.54,0,.22.35.29.4.06Z"/><path d="M18.52,36c2.42-1.93,3.25-5.15,3.75-8.07A22,22,0,0,1,27,17c.23-.28-.13-.66-.4-.4a18.53,18.53,0,0,0-4.78,8c-1.22,3.79-1.55,7.62-3.74,11-.19.31.23.56.48.36Z"/><path d="M45.69,8.62c1.39,2.3,4.1,3.2,6.63,3.6,3.6.58,7.3.57,10.44,2.66a.2.2,0,0,0,.24-.32c-2.14-2-4.53-2.51-7.34-3C52.1,11,49,10.33,46,8.34a.21.21,0,0,0-.28.28Z"/><path d="M27.79,52.2a3.15,3.15,0,0,1,2.76-1.93c1,0,1.86.41,2.81.23a.27.27,0,0,0,.12-.45c-1.84-1.75-6-.74-5.89,2.1a.11.11,0,0,0,.2.05Z"/><path d="M43.51,46.27a8.85,8.85,0,0,0,2-2.31c.29-.46.56-1,.82-1.43s.56-1.5,1.36-1.11a.42.42,0,0,0,.62-.36c0-1.39-1.81-.88-2.33-.09s-.87,1.68-1.34,2.49a22,22,0,0,0-1.42,2.61c-.06.14.13.28.25.2Z"/><path d="M24.91,77.3c2.63-.21,3.77-1.44,3.92-3.92.32-5.2,4.35-6.86,7.84-9.85.27-.23-.07-.57-.34-.45a16.29,16.29,0,0,0-7,5.87,10.17,10.17,0,0,0-1.38,3.57c-.08.48,0,1-.1,1.52-.4,1.77-1.62,2.14-3,2.85a.22.22,0,0,0,.11.41Z"/><path d="M28.67,74.09a3.46,3.46,0,0,1-.68,1.7l.93.25c0-.3,0-.6-.08-.9l-.47.47c.53,0,1.24.2,1.58-.29a.27.27,0,0,0,0-.3c-.32-.49-1.07-.32-1.58-.34a.46.46,0,0,0-.47.46c0,.3,0,.6,0,.9a.51.51,0,0,0,.94.25A2.72,2.72,0,0,0,29.14,74a.24.24,0,0,0-.47.06Z"/><path d="M30.2,76.12a15.11,15.11,0,0,0,4.69-.54.25.25,0,0,0-.07-.49,15.22,15.22,0,0,0-4.67.72.16.16,0,0,0,.05.31Z"/><path d="M80.07,77.33c-3.36-1.67-1.63-5-1.15-7.65a.14.14,0,0,0-.26-.11c-1.76,2.32-2.49,7.37,1.23,8.19.24,0,.42-.3.18-.43Z"/><path d="M77.09,74.18c-.12.75-.43,1.76.16,2.38.41.43,1.07-.23.65-.65-.15-.16-.13-.59-.16-.79s-.14-.63-.22-.94-.4-.22-.43,0Z"/><path d="M73.5,75.42c2.69.3,5-3.79,5.21-6,0-.21-.29-.27-.39-.1-1.26,2.28-2.1,4.87-4.88,5.65a.25.25,0,0,0,.06.48Z"/><path d="M76.33,73.1a7.57,7.57,0,0,1-1.55,1.83c-.35.3,0,.75.4.7.78-.12,1.42,1.29,2.21.78a.15.15,0,0,0,.06-.2,3.24,3.24,0,0,0-1.07-1A1.86,1.86,0,0,0,75,74.82l.41.7a4.55,4.55,0,0,0,1.41-2.23.25.25,0,0,0-.45-.19Z"/><path d="M33.25,9.7c-1.44-4,1-8.9,5.82-7.64,3.24.85,3.89,4.54,6,6.72,4.34,4.56,11.5,3.9,16.88,6.4a29.91,29.91,0,0,1,13.21,13c3.53,6.49,4.85,13.43,6.12,20.6a.34.34,0,0,0,.66-.09c-.64-14.76-7.34-32.06-23-36.41-4.08-1.14-8.89-1.18-12.26-4.08C44.15,6,43.49,2.2,40,1.06,35-.6,29.74,5.14,33,9.8c.08.11.29,0,.23-.1Z"/><rect class="cls-3" y="0.09" width="100" height="100"/></g></g></g></svg>