<svg xmlns="http://www.w3.org/2000/svg" viewBox="0 0 100 101.65"><defs><style>.cls-1{fill:#fff;}.cls-2{fill:#ccc;}.cls-3{fill:none;}</style></defs><title>pawn</title><g id="Layer_2" data-name="Layer 2"><g id="Layer_2-2" data-name="Layer 2"><g id="pawn"><path class="cls-1" d="M81.37,82.57C77.15,77.37,70.62,74.62,65.79,70a26.86,26.86,0,0,1-8.16-19.14l10.65.77a15.53,15.53,0,0,1,1.31-4.24,5.31,5.31,0,0,0,.1-4.31,6.17,6.17,0,0,0-2.07-2l-7.94-5.6a17.66,17.66,0,0,0,6.44-14,17.5,17.5,0,0,0-35,0,18.67,18.67,0,0,0,6.65,14l-8,5.6a6.26,6.26,0,0,0-2.07,2,5.31,5.31,0,0,0,.1,4.31,15.19,15.19,0,0,1,1.31,4.24l10.65-.77A26.81,26.81,0,0,1,31.66,70c-4.84,4.63-11.37,7.38-15.59,12.58-3.83,4.73-4.89,11.19-4.44,17.18H86.71A25.35,25.35,0,0,0,81.37,82.57Z"/><path class="cls-2" d="M33.14,100,22,98.5c-1.67-.23-3.56-.6-4.42-2s-.3-3.24.39-4.73c2.2-4.81,5.7-8.88,9.25-12.8s7.23-7.78,9.89-12.35,4.26-10,3.24-15.16c.08.43-.75,1.13-.91,1.53a8.86,8.86,0,0,0-.3,2,27.72,27.72,0,0,1-1,4.42c-1,3.08-2.6,6.87-4.92,9.21-3.08,3.09-7,5.63-10.43,8.35-3.05,2.44-6.71,4.66-8.7,8a19.3,19.3,0,0,0-2.6,11.26,4.5,4.5,0,0,0,1.09,3,5,5,0,0,0,3.47.94C21.63,100.22,27.57,99.93,33.14,100Z"/><path class="cls-2" d="M64.5,100,75.64,98.5c1.66-.23,3.55-.6,4.41-2s.3-3.24-.39-4.73c-2.2-4.81-5.7-8.88-9.25-12.8s-7.23-7.78-9.89-12.35-4.26-10-3.24-15.16a4.3,4.3,0,0,0,.53,1.66,7,7,0,0,1,.28,1.71,31.24,31.24,0,0,0,1.4,4.57c1,3.08,2.6,6.87,4.92,9.21,3.08,3.09,7,5.63,10.43,8.35,3.06,2.44,6.08,4.85,8.07,8.22s3.55,7.17,3.23,11.07a4.4,4.4,0,0,1-1.09,3,5,5,0,0,1-3.47.94C76,100.22,70.07,99.93,64.5,100Z"/><path class="cls-2" d="M35.23,9.89A21.46,21.46,0,0,1,48.07,7a16,16,0,0,1,11.27,6.44,15.43,15.43,0,0,1,2.59,10.21,19.26,19.26,0,0,1-4,9.84A3,3,0,0,0,57,35.84c.35,1.49,2.18,2.29,3.35,2.94L66,42a9.9,9.9,0,0,1,2.6,1.87,3.23,3.23,0,0,1,.81,3c1-1.78.21-4.23-1.25-5.67s-3.39-2.27-5.09-3.41c-.85-.56-2.54-1.3-2.66-2.31s1.42-2,2-2.9a18.28,18.28,0,0,0,2-16.53A18.31,18.31,0,0,0,52,4.91C46.39,3.51,39.57,6.09,35.23,9.89Z"/><path d="M86.83,99.75c.54-9.73-3.91-17.64-11.68-23.23-4.17-3-8.59-5.66-11.76-9.8A26.74,26.74,0,0,1,58,50.85l-.53.53,10.65.77a.51.51,0,0,0,.51-.39c.44-3.12,3.26-6.56,1-9.57a14.87,14.87,0,0,0-3.45-2.75L59.81,35l.12,1c9.7-7.91,8.44-23.86-2.32-30.17A18.36,18.36,0,0,0,30.92,16.6,19.19,19.19,0,0,0,37.09,36l.14-1.1-6.36,4.46a15.1,15.1,0,0,0-3.52,2.78c-2.31,3.05.5,6.52.94,9.69a.7.7,0,0,0,.69.52l10.65-.77-.71-.71A26.82,26.82,0,0,1,34.1,66.12C31,70.58,26.24,73.34,21.88,76.44,18.31,79,15,81.89,13.05,85.91a27.82,27.82,0,0,0-2.26,13.84.68.68,0,0,0,.66.66l65.68,0,9.4,0a.6.6,0,0,0,0-1.2q-32.83,0-65.68-.05h-9.4l.66.66c-.34-5.36.32-11,3.38-15.59S23.32,77,27.57,73.91c7.63-5.55,12.56-13.47,12.77-23.06a.72.72,0,0,0-.71-.71L29,50.9l.7.53c-.51-3.66-3.56-6.88.32-9.74,2.61-1.92,5.3-3.73,7.94-5.6a.71.71,0,0,0,.14-1.1c-5.79-5-8.17-13.24-5-20.33a16.86,16.86,0,0,1,30.85,0,17.62,17.62,0,0,1-4.82,20.4.61.61,0,0,0,.13,1l6.36,4.46a20.22,20.22,0,0,1,2.65,1.9c1.51,1.5,1.26,3,.68,4.87-.21.66-.71,2.93-1.18,3.36-.71.66-1.6.34-2.5.28l-7.75-.56a.54.54,0,0,0-.53.53c.15,9.56,5,17.5,12.62,23,4.12,3,8.63,5.55,11.76,9.64a25.53,25.53,0,0,1,4.94,16.26C86.22,100.14,86.81,100.13,86.83,99.75Z"/><path d="M37.46,34.7c-4.05-5.45-7-12.17-4.9-19,2.06-6.7,9-11.42,15.93-11.27A17.36,17.36,0,0,1,64,15.78,18.27,18.27,0,0,1,59,34.88c-.68.65.36,1.68,1,1,8.84-8.4,8.24-23.16-2.26-29.9C47.86-.38,33.6,4.92,31.16,16.83a19.53,19.53,0,0,0,6,18.08c.14.12.4,0,.27-.21Z"/><path d="M28.15,49c.67,2.28,4.5,3.25,6.4,2.07a.23.23,0,0,0-.06-.42c-1-.4-2.22,0-3.31-.27a4.4,4.4,0,0,1-2.61-1.63c-.16-.2-.49,0-.42.25Z"/><path d="M63.2,51.08c2.46.6,7-.51,6.1-3.95a.15.15,0,0,0-.3,0c-.32,1.36-.74,2.55-2.12,3.17-1.17.54-2.4.33-3.64.46-.17,0-.24.28,0,.32Z"/><path d="M66.34,51.37c.43-.08.86-.13,1.29-.17l-.1-.76c-.5.15-1.36.34-1.62.83a.32.32,0,0,0,.18.46c.54.15,1.28-.33,1.74-.59s0-.85-.39-.66-.8.33-1.21.47a.22.22,0,0,0,.11.42Z"/><path d="M35.43,36.5c1.6-.14.77-3.26-.26-2.8a.15.15,0,0,0-.06.1c0,.36.44.51.6.82a1.48,1.48,0,0,1-.36,1.68c-.06.07,0,.21.08.2Z"/><path d="M36.52,35.81c0-.33.2-.55.2-.86a.16.16,0,0,0-.19-.15c-.46.11-.47.67-.38,1.06a.19.19,0,0,0,.37,0Z"/><path d="M61.64,36.44a1.8,1.8,0,0,1-.59-1.36,3.51,3.51,0,0,1,.54-1.18.14.14,0,0,0-.15-.2c-1.32.31-1.06,2.54,0,3a.19.19,0,0,0,.23-.3Z"/><path d="M84.43,88.61c.39,1.88.83,3.72,1.14,5.6s.22,3.82.61,5.66c.09.44.85.47.92,0,.54-3.6-.92-8.11-2.43-11.36-.07-.13-.26,0-.24.1Z"/><path d="M84.89,99.74a2.14,2.14,0,0,0,1.49-1.33,3,3,0,0,0-.06-2.58c-.06-.07-.18-.1-.23,0a4.38,4.38,0,0,0-.18,1.66,2.31,2.31,0,0,1-1.18,1.89c-.2.11-.06.41.16.36Z"/><path d="M11.63,95.52a3.1,3.1,0,0,0,.88,3.6c.87.74,2.61,1.21,3.53.3a.16.16,0,0,0-.12-.27c-1.12,0-2.13.31-3.09-.52a3.23,3.23,0,0,1-.88-3c0-.17-.25-.23-.32-.09Z"/><path d="M13.37,99.22a3.54,3.54,0,0,1-1-1.26l-.62.36a2.86,2.86,0,0,1,.33.55c.14.14.12.28,0,.42a.54.54,0,0,1,0-.22c0-.14,0-.26-.15-.32-.51-.25-.59.64-.44.91a.81.81,0,0,0,1.27.14c.54-.56,0-1.32-.34-1.84a.36.36,0,0,0-.62.36,2.92,2.92,0,0,0,1.42,1.31.24.24,0,0,0,.24-.41Z"/><path d="M12.46,99.27a1.2,1.2,0,0,0-.47-1,.12.12,0,0,0-.17.07,1.18,1.18,0,0,0,.24,1c.11.16.41.12.4-.1Z"/><path d="M30.6,23.07c.47-5.86,2.6-11.35,7.6-14.81A16.67,16.67,0,0,1,54.49,6.77c9.59,4.65,12.21,16.56,7,25.51-.41.69.62,1.26,1.06.62,6.67-9.59,3.25-23.65-8.16-27.8-11.88-4.33-24.47,5.49-24,18a.12.12,0,1,0,.23,0Z"/><path d="M17.44,99.08c-4.43,1-5.4-4.13-4.88-7.31a16.58,16.58,0,0,1,2.64-6.31c2.76-4.16,6.87-7.1,10.84-10,6.29-4.62,12.65-9.85,13.11-18.25,0-.41-.58-.39-.62,0C37.19,69.58,23,74,15.88,82.46c-2.85,3.37-5.11,7.73-4.74,12.28.25,3.13,3.07,7.21,6.46,4.72a.21.21,0,0,0-.16-.38Z"/><path d="M35.37,51.55c1.54.17,3,.24,3.08,2.07,0,.57.13,1.15.12,1.73a5,5,0,0,0,.08,1.92.36.36,0,0,0,.65.08A11.86,11.86,0,0,0,40,54.19a3.37,3.37,0,0,0-.36-2.53c-1-1.55-2.91-1.25-4.36-.55-.24.11-.09.42.12.44Z"/><path d="M58.14,54.49A2.64,2.64,0,0,1,59.08,52a2,2,0,0,1,1.31-.48,3.1,3.1,0,0,0,1.14-.07.15.15,0,0,0,.11-.18c-.39-1.27-2.58-.68-3.3-.11a2.71,2.71,0,0,0-.57,3.51c.11.2.41.06.37-.16Z"/><path d="M63.11,67.39c5.35,7,13.76,11,18.9,18.22a19.79,19.79,0,0,1,3,6.3,13.45,13.45,0,0,1,.5,4c-.11,2.28-2.17,2.75-4,2.86-5.21.29-10.44.07-15.65.49a.31.31,0,0,0,0,.61c3.26.18,6.52.11,9.78.09,2.61,0,5.94.54,8.48-.08,4.17-1,2.69-7.08,1.65-9.9-3.92-10.6-15.24-15-22.51-22.71-.08-.09-.25,0-.17.13Z"/><path d="M11.06,100.7c12.82.77,25.8.29,38.65.39,6.27,0,12.55.11,18.82.09,5.9,0,12.06.25,17.82-1.2.54-.13.44-1-.13-1-12.23,1.39-24.71.7-37,.79-12.68.1-25.49-.37-38.15.4a.26.26,0,0,0,0,.51Z"/><path d="M10.86,99.42a1.44,1.44,0,0,0,.06,1,.31.31,0,0,0,.6-.17,1.38,1.38,0,0,0-.43-.93.18.18,0,0,0-.23.06Z"/><path d="M10.86,99.52a1.06,1.06,0,0,0,0,1c.26.43.87,0,.67-.39a3.2,3.2,0,0,0-.29-.62.21.21,0,0,0-.36,0Z"/><path d="M15,100.64c4.8.89,9.93.71,14.79.84q7.64.18,15.26.16c5.09,0,10.17-.06,15.26-.2,4.87-.14,10,0,14.85-.8.45-.08.31-.74-.1-.77-4.86-.25-9.89.42-14.75.6-5.09.19-10.17.33-15.26.36q-7.38,0-14.76-.14c-5-.11-10.23-.72-15.25-.32-.15,0-.2.24,0,.27Z"/><path d="M33.85,12C38.77,6.88,46,4.2,53,6.52a17.33,17.33,0,0,1,8,5.67c2.3,2.86,3,5.92,4,9.3a.35.35,0,0,0,.69-.09c.52-6.93-6.49-13.64-12.57-15.56C46.31,3.68,38,6.09,33.66,11.89c-.09.11.09.24.19.14Z"/><path d="M58.21,50.9C55.4,60.61,62.92,68.36,69.9,73.85c4,3.17,8.4,6.22,11.4,10.46s6.13,12.88-.51,15.16a.7.7,0,0,0,.19,1.37c4.49,0,5.87-5.22,5.45-8.84-.58-5-3.64-9.43-7.19-12.89-4.07-4-9-7-13-10.94-5-4.81-7.2-10.35-7.55-17.21a.22.22,0,0,0-.44-.06Z"/><rect class="cls-3" width="100" height="100"/></g></g></g></svg>