<svg xmlns="http://www.w3.org/2000/svg" viewBox="0 0 100 100"><defs><style>.cls-1{fill:#fff;}.cls-2{fill:#ccc;}.cls-3{fill:none;}</style></defs><title>queen</title><g id="Layer_2" data-name="Layer 2"><g id="Layer_2-2" data-name="Layer 2"><g id="queen"><path class="cls-1" d="M96.65,32.63a9.18,9.18,0,0,1-7,7.56L74.2,75.69H72.73A11.3,11.3,0,0,1,84,87v6.89s-8.83,1.41-32.12,1.41-32.47-1.41-32.47-1.41V87A11.3,11.3,0,0,1,30.73,75.69H29.15L13.5,39.63C10,37.82,7.12,34.87,7.09,31a10.25,10.25,0,0,1,6-9.32A9.55,9.55,0,0,1,23.8,24a8.94,8.94,0,0,1,.47,10.86L34.32,47.7l.64-26A10,10,0,0,1,29,11.58a9.85,9.85,0,0,1,8.18-8.33A9.73,9.73,0,0,1,47.27,9.14a9.61,9.61,0,0,1-3.42,11.12L51.7,44.34l6.54-25a9.93,9.93,0,0,1-1.58-11.2,9.64,9.64,0,0,1,18.06,3.09,9.92,9.92,0,0,1-5.22,10l-.35,26.84L79.61,35.05a8.94,8.94,0,1,1,17-2.42Z"/><path class="cls-2" d="M33.75,94.46a17.31,17.31,0,0,1-6.64-1.11A8.61,8.61,0,0,1,24.52,79.5c2.23-2.28,5.52-3.14,8.65-3.76a13.7,13.7,0,0,0-9,2.17,10.56,10.56,0,0,0-4.64,7.87,18.9,18.9,0,0,0,.7,5.33,4.16,4.16,0,0,0,1.05,2.26,4.1,4.1,0,0,0,2.31.74l11.2,1.23C34.5,95,34,94.76,33.75,94.46Z"/><path class="cls-2" d="M70.17,94.46a17.28,17.28,0,0,0,6.64-1.11A8.61,8.61,0,0,0,79.4,79.5c-2.23-2.28-5.52-3.14-8.65-3.76a13.7,13.7,0,0,1,9,2.17,10.56,10.56,0,0,1,4.64,7.87,18.55,18.55,0,0,1-.7,5.33,3.06,3.06,0,0,1-3.36,3l-11.2,1.23C69.43,95,69.9,94.76,70.17,94.46Z"/><path class="cls-2" d="M7.39,31.05a9.17,9.17,0,0,1,6-6.1A9,9,0,0,1,25,34.62a16.46,16.46,0,0,0,1.34-5.08,8.85,8.85,0,0,0-4.64-7.94,9.74,9.74,0,0,0-9.28.26,10.8,10.8,0,0,0-5.13,7.83l.17-.13"/><path class="cls-2" d="M29.52,13.39a9.38,9.38,0,0,1,6.87-7.61c8.28-1.85,11.27,7.94,8.53,14.09a9.91,9.91,0,0,0,2-11.74A9.78,9.78,0,0,0,36,3.63C31.89,4.82,29.28,9.14,29.52,13.39Z"/><path class="cls-2" d="M56.57,16.1c0-3.48,1.24-7.24,4.2-9.09,5.31-3.32,11.46,1.33,11.79,7a9.74,9.74,0,0,1-1.8,6.2,8.51,8.51,0,0,0,4.53-7.56,9.9,9.9,0,0,0-5.48-8.77A9.91,9.91,0,0,0,59.53,5a9.91,9.91,0,0,0-3.36,9.79C56.38,14.88,56.36,16.06,56.57,16.1Z"/><path class="cls-2" d="M86.82,26a6.18,6.18,0,0,1,3.47.51c2.24,1.11,3.3,3.87,3.08,6.36a15.09,15.09,0,0,1-2.9,6.85,9,9,0,0,0,6.38-7.54,9.19,9.19,0,0,0-4.54-8.79,9.35,9.35,0,0,0-9.9.65,9.19,9.19,0,0,0-3,3.86c-.21.49-1.45,4.19.27,3.71.45-.13.87-1.45,1.13-1.83a9.24,9.24,0,0,1,1.61-1.81A8.21,8.21,0,0,1,86.82,26Z"/><path class="cls-2" d="M19.47,51.76c3.21,8,8.41,15.65,16.07,19.66,7,3.69,15.31,3.94,23.25,4.12a194,194,0,0,1-25.06.06,7.56,7.56,0,0,1-3.56-.84,7.63,7.63,0,0,1-2.53-3.52L19.7,54"/><path class="cls-2" d="M84.34,51.94c-3.21,8-8.41,15.65-16.07,19.66C61.23,75.29,53,75.54,45,75.72a192.41,192.41,0,0,0,25.07,0,7.47,7.47,0,0,0,3.56-.83,7.68,7.68,0,0,0,2.53-3.52l7.94-17.26"/><path d="M74.69,75.82C79.52,65,84.49,54.17,89.26,43.28a13.43,13.43,0,0,1,.94-2.16c.63-.89,1.44-.69,2.57-1.35a9.61,9.61,0,0,0,4.11-12c-4.34-10.24-20.06-5.68-18.28,5.32.08.48.32,1,.36,1.5.16,1.89.44-.66.32.11,0,.33-.74.92-.94,1.18l-3.72,4.65-5.7,7.12,1.18.48L70.33,31c0-2.85-.3-6,.12-8.82.17-1.18-.22-.52,1-1.17C73.53,20,75,17.11,75.48,15a10.38,10.38,0,0,0-6-11.77A10.47,10.47,0,0,0,57.09,6.62,10,10,0,0,0,55.18,13a10.76,10.76,0,0,0,.76,3.64A9.41,9.41,0,0,0,56.63,18c.08.14,1.31,1.52,1.21,1.17.1.35-.33,1.25-.41,1.58l-1.06,4.05L51.3,44.16h1.33L44.78,20.08l-.32.78c5.3-3.94,5.93-12,.53-16.14A10.23,10.23,0,0,0,29.13,9.39a10.26,10.26,0,0,0,1.69,9.7A15.22,15.22,0,0,0,34.25,22c.22.17.11-.47.29-.11.06.14,0,.5,0,.65.26,4.33-.22,8.83-.32,13.16l-.3,12,1.17-.48L25,34.39l.11.82c4.7-6.92-1.15-15.84-9.3-14.92a10.55,10.55,0,0,0-8.71,7.6,9.64,9.64,0,0,0,3.43,10.42c.78.66,2.13,1.14,2.71,1.85a6.53,6.53,0,0,1,.61,1.41l2.54,5.85,7.52,17.31q2.45,5.65,4.91,11.3c.34.78,1.48.11,1.14-.67l-9.1-21L15.54,42.05a13.7,13.7,0,0,0-1.15-2.66,7,7,0,0,0-1.86-1.27A9.66,9.66,0,0,1,8.15,32.2c-1.17-6,4.58-11.53,10.43-10.48A8.23,8.23,0,0,1,24,34.52a.69.69,0,0,0,.1.83L34.1,48.18c.39.5,1.16.06,1.17-.48l.64-26a.66.66,0,0,0-.34-.59C28,17.59,28.25,5.9,37,4a9,9,0,0,1,9.69,4.81,8.94,8.94,0,0,1-2.89,10.82.72.72,0,0,0-.32.78L51.3,44.52a.69.69,0,0,0,1.33,0l4.73-18.07,1.22-4.63a9.38,9.38,0,0,0,.59-2.24c0-.63-.17-.6-.57-1.18a9.88,9.88,0,0,1-2-5.45,8.91,8.91,0,0,1,17-4c2.13,4.39,0,9.52-4.12,11.79a.67.67,0,0,0-.34.59l-.36,26.84c0,.55.79,1,1.18.49L80.36,35.53a.67.67,0,0,0,.17-.66c-1.79-4.59.37-10.08,5.38-11.35a8.21,8.21,0,0,1,7.71,14,9.06,9.06,0,0,1-3.23,1.88c-.43.17-.74.15-1,.48a7.18,7.18,0,0,0-.84,1.92C84.88,50.16,81.26,58.53,77.81,67q-1.74,4.3-3.56,8.58c-.13.3.3.56.44.26Z"/><path d="M73,75.19c-10.41.27-20.82.25-31.23.16-7.69-.06-17.68-1.88-21.55,6.84-1.58,3.56-1,7.88-1,11.68a.5.5,0,0,0,.37.48,156,156,0,0,0,19,1.25,375.31,375.31,0,0,0,40.25-.66c1.89-.15,3.79-.29,5.66-.59a.5.5,0,0,0,.36-.48c0-3.33.48-7.11-.51-10.33A12,12,0,0,0,73,75.19c-.65,0-.64,1,0,1a11,11,0,0,1,9.63,5.92c1.23,2.41,1.16,5,1.16,7.59,0,1-.07,2.13,0,3.19a4.22,4.22,0,0,1,0,.87c0,.19.5-.41.3-.36a17.46,17.46,0,0,1-1.91.23C70,94.94,57.53,94.9,45.26,94.74c-6.24-.08-12.48-.27-18.7-.71-2-.14-4.7,0-6.67-.64.58.2.21.56.31-.5s0-2.31,0-3.43c0-2.66,0-5.21,1.32-7.64C24.2,76.92,29,76.17,34,76.25c13,.23,26,.27,39-.06A.5.5,0,0,0,73,75.19Z"/><path d="M26.59,36.87a4.59,4.59,0,0,1-.89-2.44A13,13,0,0,1,26,32.27a.17.17,0,0,0-.29-.12c-1.14,1.42-.43,3.69.63,4.93.13.16.39,0,.28-.21Z"/><path d="M32.11,20.25a4,4,0,0,1,2.18,2.47c.31.94.23,2,.63,2.87.08.18.35.11.4-.06.61-2.1-.94-5.05-3.08-5.58-.17,0-.3.22-.13.3Z"/><path d="M45.48,22.84a5.91,5.91,0,0,1,.39-2.79c.31-.74.94-1.27,1.23-2,0-.11-.09-.24-.2-.2-.79.28-1.28,1.28-1.57,2a5.53,5.53,0,0,0-.27,3c0,.24.45.19.42-.06Z"/><path d="M45.1,19.92c-.05.31-.11.61-.15.92h.49l-.18-.55c-.07-.18-.38-.22-.42,0a1.5,1.5,0,0,0-.06.86.12.12,0,0,0,.21.06,1.53,1.53,0,0,0,.27-.8h-.42c0,.19.07.38.11.57s.48.2.5-.07,0-.62,0-.94-.35-.27-.39,0Z"/><path d="M57.59,23.12c1.16-2.53,0-5-.77-7.48a.2.2,0,0,0-.4,0,9,9,0,0,0,.71,2.91A8.56,8.56,0,0,1,57.26,23c0,.19.24.34.33.14Z"/><path d="M70.22,23.61a5.2,5.2,0,0,1,1.48-3c.45-.53,1.15-1,1.34-1.69a.11.11,0,0,0-.12-.13c-.88.31-1.62,1.51-2.17,2.23a3.45,3.45,0,0,0-.94,2.56.21.21,0,0,0,.41,0Z"/><path d="M77.23,38.29c2-1.78,2.48-5.23,1.83-7.71,0-.21-.34-.15-.36.05a31.82,31.82,0,0,1-.2,4.13A7.81,7.81,0,0,1,76.92,38a.22.22,0,0,0,.31.3Z"/><path d="M78.92,33.38a6.12,6.12,0,0,1-.45,1.79c-.17.42.55.63.7.19a5.45,5.45,0,0,1,.39-.66.27.27,0,0,0-.3-.38,1.25,1.25,0,0,0-.75.76l.66.28a6.94,6.94,0,0,0,.25-2,.25.25,0,0,0-.5,0Z"/><path d="M19.5,89c-1.24,6.16,8.94,6.94,12.77,5.72.2-.06.17-.39-.05-.37-4.1.2-12.17.67-12.35-5.3,0-.2-.32-.26-.37,0Z"/><path d="M23.13,93.82A5.16,5.16,0,0,0,21.75,93l-1.65-.79c-.3-.14-.69.16-.48.48A3.12,3.12,0,0,0,21.44,94l.09-.66c-.46-.06-1.08-.14-1.27-.64l-.77.33a2.85,2.85,0,0,0,1.27,1.23l.39-.91c-.36-.13-.45-.85-1-.52a.5.5,0,0,0-.23.56,1.36,1.36,0,0,0,.93.92c.61.22.86-.73.27-1a1.86,1.86,0,0,1-.93-.75.42.42,0,0,0-.73.43,2.26,2.26,0,0,0,2,1c.39,0,.45-.57.09-.67a2.13,2.13,0,0,1-1.39-1.09l-.49.49c.58.29,1.16.58,1.75.85a5.19,5.19,0,0,0,1.5.54c.18,0,.26-.24.14-.35Z"/><path d="M75.69,94.78c2.55,0,5.08-.38,7-2.2,1.45-1.35,2.63-4,1.41-5.86-.06-.08-.21-.08-.23,0-.47,2.18-.41,4.07-2.42,5.55-1.65,1.22-3.87,1.61-5.84,2.06a.22.22,0,0,0,.06.42Z"/><path d="M83.69,89.14A4.37,4.37,0,0,1,81,93c-.67.32-.2,1.35.49,1.17s1.53-.36,2.26-.63c.22-.08.47-.3.43-.56l-.11-.86-1,.27c.32.67-.65.55-1,.67a.46.46,0,0,0-.26.66,1.14,1.14,0,0,0,1.71.2A1.65,1.65,0,0,0,84.09,92,.54.54,0,0,0,83,92.1l0,.86.43-.57c-.77.11-1.53.34-2.29.52l.49,1.17a4.52,4.52,0,0,0,2.41-5c0-.24-.4-.17-.4,0Z"/><path d="M28,94.24c-5-.1-8.66-3.82-7.76-8.84a.21.21,0,0,0-.39-.16A6.09,6.09,0,0,0,20.68,92,7.86,7.86,0,0,0,28,94.72c.3,0,.32-.48,0-.48Z"/><path d="M26.86,69.77c-.51,5,6.36,7.16,10.2,6a.14.14,0,0,0,0-.28c-1.76-.66-3.73-.57-5.51-1.19a6.16,6.16,0,0,1-4.26-4.58.22.22,0,0,0-.43,0Z"/><path d="M32.35,75.16a3.77,3.77,0,0,1-2-.6c-.41-.25-.75.37-.37.64l.38.26.38-.65c-.37-.22-.73-.43-1.1-.63s-.8.2-.54.54l.62.83c.29.39.93,0,.66-.39a49.67,49.67,0,0,0-4.23-6.63.14.14,0,0,0-.22.13,51.33,51.33,0,0,0,3.79,6.89l.66-.39-.6-.84-.54.54c.37.21.74.4,1.12.6a.38.38,0,0,0,.38-.65l-.39-.25L30,75.2a3,3,0,0,0,2.4.31.18.18,0,0,0,0-.35Z"/><path d="M69.24,75.81A8.35,8.35,0,0,0,77,70c.07-.24-.3-.41-.41-.17a9.81,9.81,0,0,1-7.41,5.57c-.21,0-.16.37,0,.38Z"/><path d="M75.26,72.41c-.16.48-.88.91-1.23,1.24s-.86.93-1.46.94l.12.88a1.82,1.82,0,0,1,1.42.23.45.45,0,0,0,.65-.26,4,4,0,0,1,.42-1.35c.17-.31.43-.55.33-.91a.18.18,0,0,0-.15-.15c-.9-.13-1.35,1.51-1.45,2.18l.65-.26a2.73,2.73,0,0,0-2.1-.35.46.46,0,0,0,.11.89,2.86,2.86,0,0,0,2-1.17,2.94,2.94,0,0,0,1.12-1.85.21.21,0,0,0-.41-.06Z"/><path d="M29.41,95.31a108.5,108.5,0,0,0,11,.24c3.83,0,7.64.17,11.47.15,3.66,0,7.31-.15,11-.26,3.41-.11,7.22.34,10.53-.48a.23.23,0,0,0,0-.44c-3.17-.73-6.78-.26-10-.3-3.83,0-7.64-.12-11.47-.08-3.66,0-7.31.28-11,.33a112.55,112.55,0,0,0-11.47.45.2.2,0,0,0,0,.39Z"/><path d="M40.82,76.23c4.67.38,9.39.32,14.08.32,4.24,0,9,.56,13.18-.2a.3.3,0,0,0,0-.58c-4.19-.77-8.94-.22-13.18-.21-4.69,0-9.41-.06-14.08.31a.18.18,0,0,0,0,.36Z"/><path d="M32.5,44.81c.66,1.08,2.5.06,2.11-1.06a.1.1,0,0,0-.17,0c-.24.25-.32.59-.55.84a.85.85,0,0,1-1.16.09c-.12-.1-.33,0-.23.18Z"/><path d="M34,44.81c0,.33.06.66.08,1l.32-.24-.2-.18-.41.24.13.12.29-.38a2.67,2.67,0,0,1-.44-.38.26.26,0,0,0-.44.25,2,2,0,0,0,.52,1,.17.17,0,0,0,.29-.11A2.1,2.1,0,0,0,33.78,45l-.36.36a2.73,2.73,0,0,1,.47.35c.23.2.56-.12.34-.34l-.12-.13a.25.25,0,0,0-.42.24.76.76,0,0,0,.54.54.25.25,0,0,0,.31-.31c-.09-.33-.17-.65-.24-1,0-.18-.35-.14-.33.05Z"/><path d="M34.36,45a.66.66,0,0,0-.83,0c-.32.22,0,.69.32.42a.8.8,0,0,1,.45-.2.14.14,0,0,0,.06-.23Z"/><path d="M50.71,41a1.78,1.78,0,0,0,1.55.59,1.26,1.26,0,0,0,.89-1.12c0-.11,0-.27-.13-.32l-.14,0a.29.29,0,0,0-.25.14c-.12.28-.22.62-.54.72a1.67,1.67,0,0,1-1.12-.3c-.2-.1-.45.17-.26.33Z"/><path d="M51.83,41.45v0l-.39.39a2.18,2.18,0,0,1,.31.22c.21.16.5-.15.36-.36L52,41.53a.26.26,0,0,0-.48.2c0,.25,0,.38.26.51a.15.15,0,0,0,.2-.05c.15-.2.09-.35,0-.6l-.47.2.09.13.41-.31a3.47,3.47,0,0,1-.29-.25.28.28,0,0,0-.44.34.48.48,0,0,0,.76.18.25.25,0,0,0-.26-.43Z"/><path d="M69.4,44.56c.16.66.59,1.34,1.37,1.25.43-.05,1.06-.67.55-1,0,0-.09,0-.13,0-.25.13-.33.42-.67.35s-.57-.44-.72-.74-.46-.06-.4.17Z"/><path d="M70.59,45.69c-.29.12-.42-.09-.52-.33l-.32.32a.79.79,0,0,1,.43.5l.43-.25-.28-.32L70,46a1.11,1.11,0,0,0,.3.17.22.22,0,0,0,.27-.35,2,2,0,0,0-.31-.27c-.25-.19-.49.2-.31.41s.18.21.28.31.52,0,.42-.25a1.42,1.42,0,0,0-.69-.76.22.22,0,0,0-.33.14c-.11.68.59,1,1.14.74.27-.11.08-.59-.2-.47Z"/><rect class="cls-3" width="100" height="100"/></g></g></g></svg>