<svg xmlns="http://www.w3.org/2000/svg" viewBox="0 0 100 101.44"><defs><style>.cls-1{fill:#fff;}.cls-2{fill:#ccc;}.cls-3{fill:none;}</style></defs><title>rook</title><g id="Layer_2" data-name="Layer 2"><g id="Layer_2-2" data-name="Layer 2"><g id="rook"><path class="cls-1" d="M71.17,80.29c-2-14.16-2.82-28.2-4.78-42.37A11.23,11.23,0,0,0,76.57,26.74V13a5.76,5.76,0,0,0-5.76-5.76H62.37l-1,14.65H57.25a3,3,0,0,1-3-3V5.68a1,1,0,0,0-1-1H36.9a1,1,0,0,0-1,1V22H31.13a3,3,0,0,1-3-2.78l-.8-11.07s-3.64-.07-7,0a5.77,5.77,0,0,0-5.73,5.76V26.74a11.22,11.22,0,0,0,9.21,11C22.49,51,19.91,76.06,19.47,80.37a12.12,12.12,0,0,0-9.88,11.7v7.31s10.21,1.5,36.12,1.5,35.72-1.5,35.72-1.5V92.07A12.15,12.15,0,0,0,71.17,80.29Z"/><path class="cls-2" d="M25.55,100a19.65,19.65,0,0,1-7.26-1.16,9.25,9.25,0,0,1-5.35-6.55,8.89,8.89,0,0,1,2.52-8c2.44-2.4,6-3.3,9.45-3.94a15.49,15.49,0,0,0-9.86,2.26A11,11,0,0,0,10,90.88a17.46,17.46,0,0,0,0,5.4,6.18,6.18,0,0,0,1.9,2.55,4.63,4.63,0,0,0,2.53.77c4.08.43,7.86.55,11.94,1C26.07,100.26,25.85,100.28,25.55,100Z"/><path class="cls-2" d="M65.38,100a19.68,19.68,0,0,0,7.26-1.16A9.25,9.25,0,0,0,78,92.26a8.92,8.92,0,0,0-2.52-8c-2.44-2.4-6-3.3-9.46-3.94a15.46,15.46,0,0,1,9.86,2.26A11,11,0,0,1,81,90.88a18.66,18.66,0,0,1-.77,5.58A4.18,4.18,0,0,1,79,98.83a4.6,4.6,0,0,1-2.52.77c-4.08.43-8.32.64-12.4,1.07C64.4,100.36,65.08,100.28,65.38,100Z"/><path class="cls-2" d="M54.2,36.22c2,.86,4.34.61,6.55.71s4.66.8,5.7,2.74a7.86,7.86,0,0,1,.67,3.11c.45,6,1.1,12,1.55,18.08-.94-3.38-1.44-6.88-2.31-10.28a23.3,23.3,0,0,0-4.44-9.46,11.52,11.52,0,0,0-9.19-4.33A3.33,3.33,0,0,1,54.2,36.22Z"/><path class="cls-2" d="M35.85,36.22c-2,.86-4.34.61-6.54.71s-4.66.8-5.7,2.74a7.7,7.7,0,0,0-.68,3.11c-.45,6-1.09,12-1.54,18.08.93-3.38,1.43-6.88,2.3-10.28a23.43,23.43,0,0,1,4.44-9.46,11.53,11.53,0,0,1,9.19-4.33A3.28,3.28,0,0,0,35.85,36.22Z"/><path d="M68.65,79.59c-11.29.27-22.58.25-33.87.17-8.33-.06-19.75-2.29-24.5,6.67-2.06,3.89-1.41,8.7-1.41,12.95a.5.5,0,0,0,.37.48,181.54,181.54,0,0,0,21.11,1.32,433.53,433.53,0,0,0,44.74-.7c2.09-.15,4.18-.31,6.25-.62a.49.49,0,0,0,.37-.48c0-3.55.52-7.62-.6-11-1.77-5.4-6.94-8.61-12.46-8.75a.5.5,0,0,0,0,1,12.28,12.28,0,0,1,10.78,6.34c1.36,2.56,1.28,5.26,1.28,8a24.68,24.68,0,0,0,0,3.44,3.47,3.47,0,0,1,0,.91c.13-.63.58-.43.24-.42-.73,0-1.49.18-2.22.26-13.64,1.37-27.48,1.33-41.16,1.16-6.91-.09-13.83-.29-20.73-.76-2.25-.16-5.16-.07-7.26-.66-.25-.08.28.38.29.42a4,4,0,0,1,0-.91c.1-1.29,0-2.62,0-3.92,0-2.86,0-5.58,1.59-8.13,3.19-5.25,8.52-5.81,14-5.72,14.39.23,28.81.28,43.2-.06C69.29,80.57,69.29,79.57,68.65,79.59Z"/><path d="M9.17,94.24c-1.48,6.67,10.27,7.26,14.17,6.05a.19.19,0,0,0-.05-.37c-4.28.19-13.77.82-13.76-5.64a.18.18,0,0,0-.36,0Z"/><path d="M13.17,99.33a12.59,12.59,0,0,0-3.38-1.74c-.29-.13-.7.16-.48.48a3.43,3.43,0,0,0,2,1.46l.09-.67c-.51-.06-1.23-.14-1.46-.68l-.77.32a3.14,3.14,0,0,0,1.4,1.3l.39-.91c-.33-.12-.39-.5-.72-.64a.36.36,0,0,0-.33.09l-.09.07a.48.48,0,0,0-.12.48,1.47,1.47,0,0,0,1,1c.62.21.86-.74.27-1a2.21,2.21,0,0,1-1.06-.82.42.42,0,0,0-.73.43,2.45,2.45,0,0,0,2.23,1,.34.34,0,0,0,.09-.66,2.48,2.48,0,0,1-1.57-1.16l-.49.48A13.16,13.16,0,0,0,13,99.68a.21.21,0,0,0,.15-.35Z"/><path d="M71.64,100.33c2.79,0,5.61-.4,7.77-2.34C81,96.56,82.27,93.8,81,91.8a.12.12,0,0,0-.23,0c-.42,2.44-.52,4.5-2.83,6-1.83,1.21-4.24,1.6-6.36,2-.23,0-.17.41.06.42Z"/><path d="M80.56,94.36a4.59,4.59,0,0,1-2.94,4.1c-.68.32-.18,1.34.5,1.17A25.26,25.26,0,0,0,80.64,99a.6.6,0,0,0,.43-.56L81,97.5l-1,.27c.37.75-.86.65-1.19.8a.46.46,0,0,0-.16.62c.33.66,1.25.58,1.8.21a1.69,1.69,0,0,0,.54-2c-.2-.54-1.08-.51-1.06.14l0,.91.58-.59c-.91.13-1.81.37-2.7.58l.49,1.17A4.79,4.79,0,0,0,81,94.31c0-.24-.4-.17-.4,0Z"/><path d="M18.62,99.78c-5.3-.07-9.8-3.84-8.66-9.39a.21.21,0,0,0-.39-.16,6.34,6.34,0,0,0,1,7.19c2.07,2.44,5,3.14,8.08,2.85a.25.25,0,0,0,0-.49Z"/><path d="M20.17,100.89c4.13.39,8.31.25,12.45.24s8.29.16,12.45.14c4,0,8-.15,12-.26s8.24.41,12-.49a.23.23,0,0,0,0-.44c-3.63-.81-7.79-.25-11.51-.29-4.15-.05-8.3-.12-12.45-.07-4,0-8,.27-12,.33-4.31.06-8.66,0-12.95.45a.2.2,0,0,0,0,.39Z"/><path d="M10.17,94.63c-.12-3.71.67-7.22,3.34-9.95s5.87-3,9.46-3.88a.31.31,0,0,0,0-.59c-3.59-.86-8,1.51-10.38,4.1a11.41,11.41,0,0,0-2.8,10.37.2.2,0,0,0,.38-.05Z"/><path d="M69.18,80.14c3.38,1.72,7.41,2.93,9.66,6.23,2.61,3.84.86,7.79.67,11.95a.29.29,0,0,0,.53.14c1.85-3.63,2.35-8.86.06-12.41s-6.69-5.47-10.71-6.41c-.29-.07-.5.36-.21.5Z"/><path d="M65.08,100.45c4,.33,9.48.37,13.28-1.25.25-.1.09-.44-.12-.46-2.15-.16-4.4.4-6.55.6s-4.41.31-6.61.57a.27.27,0,0,0,0,.54Z"/><path d="M20.66,80.92a18.2,18.2,0,0,0,5.21-.57.26.26,0,0,0-.07-.5,18.24,18.24,0,0,0-5.18.76.16.16,0,0,0,0,.31Z"/><path d="M76.85,26.74c0-4.75.57-9.84-.06-14.55-.93-7-9.67-5.45-14.65-5.45a.51.51,0,0,0-.5.5l-.61,9a33.77,33.77,0,0,0-.34,4.91c.1,1.09-.26.14.38.21a22.43,22.43,0,0,0-2.46,0c-1.08,0-2.49.13-3.35-.73a3.55,3.55,0,0,1-.74-2.45c-.12-1.71,0-3.47,0-5.18V7.22c0-.85.19-1.93-.46-2.58s-1.4-.46-2.16-.46H46.79c-3.22,0-6.75-.41-9.95,0-2.3.29-1.67,3-1.67,4.73V20.37a7,7,0,0,0,0,1.52c-.08-.33.68-.13.14-.42a4.17,4.17,0,0,0-1.32,0,13.76,13.76,0,0,1-2.94,0,3.45,3.45,0,0,1-2.68-2.82c-.35-3.49-.5-7-.76-10.53a.51.51,0,0,0-.5-.5c-3.63-.06-8.54-1.06-11.38,1.8-1.93,1.94-1.82,4.41-1.82,6.91,0,5.51-1.2,12.68,2.31,17.4,2.11,2.84,5.92,5,9.56,4.72,2.1-.17,4.21-.68,6.32-.89a123.22,123.22,0,0,1,30.76.52,11.5,11.5,0,0,0,7.61-.9,11.84,11.84,0,0,0,6.38-10.44.5.5,0,0,0-1,0c0,5.53-4.89,11.14-10.73,10.72-2.76-.19-5.53-.84-8.3-1.07a146.68,146.68,0,0,0-30.64,1c-5,.63-9.82-3.3-11-8.09-.67-2.76-.3-5.93-.3-8.74,0-3.07-.85-8,1.53-10.4s6.41-1.57,9.42-1.53c.39,0,.78,0,1.17,0,.12,0-.5-.73-.41-.39A9.9,9.9,0,0,1,26.75,10a92.75,92.75,0,0,0,.68,9.28c.71,4,5.21,3.15,8.24,3.15a.51.51,0,0,0,.5-.5V10.2c0-1.06-.5-3.54,0-4.5s3.48-.52,4.45-.52h7.57c1.15,0,3.71-.51,4.76,0s.57,3.62.57,4.68v7.32c0,1.73-.09,3.46,1.52,4.58s4.26.62,6.1.62a.51.51,0,0,0,.5-.5L62.38,11a19.37,19.37,0,0,0,.2-2.84c0-.16.09-.47,0-.63-.22-.66.75.19-.44.18,1.87,0,3.75,0,5.62,0,2.69,0,5.53-.22,7.22,2.42,1.06,1.65.83,3.69.83,5.56v11A.5.5,0,0,0,76.85,26.74Z"/><path d="M23.39,37.85a104.79,104.79,0,0,0-1.56,12.37c-.5,4.77-1,9.55-1.52,14.32-.43,3.89-.9,7.77-1.34,11.66-.16,1.47-.18,3.68-.3,4.81-.06.64.94.64,1,0,0,.42.26-.8.31-1.07.21-1.09.24-2.24.34-3.34.37-3.81.68-7.63,1-11.44Q22,58,22.78,50.87c.43-4.28,1.13-8.65,1-13a.22.22,0,0,0-.43-.06Z"/><path d="M65.93,37.85c.47,7.08,1.43,14.15,2.13,21.22s1.36,14.17,2.29,21.22a.61.61,0,1,0,1.21-.16c-1.06-7.32-1.85-14.66-2.6-22-.69-6.76-1.19-13.66-2.6-20.32a.22.22,0,0,0-.43.06Z"/><path d="M16,81.89a8.09,8.09,0,0,0,2.76-3.37c.63-1.46.62-3,1.12-4.53a.22.22,0,0,0-.37-.22c-.84.92-.69,2.22-1,3.37a8.41,8.41,0,0,1-2.82,4.39c-.19.17.07.52.28.36Z"/><path d="M19.05,76.44c-.57,1.42-1.15,2.82-1.65,4.26a.43.43,0,0,0,.71.41,6.88,6.88,0,0,0,1.75-2.24c.07-.22-.18-.35-.37-.27a6.79,6.79,0,0,0-2,1.91l.71.42c.47-1.44.87-2.9,1.27-4.36a.23.23,0,0,0-.44-.13Z"/><path d="M70.46,74.88a4.33,4.33,0,0,0,1,4.46,21.32,21.32,0,0,0,5,4.21.38.38,0,0,0,.51-.52c-.71-1.2-2.09-2-3.17-2.83A6.5,6.5,0,0,1,70.82,75c0-.17-.28-.28-.36-.1Z"/><path d="M73.16,80.4c-.51-.56-1-1.15-1.5-1.69-.28-.27-.87,0-.71.41l.45,1.09c.13.31.19.58.51.74a.33.33,0,0,0,.48-.19,1.18,1.18,0,0,0-.18-.89l-.48-1.07-.67.51c.56.52,1.17,1,1.75,1.43a.24.24,0,0,0,.35-.34Z"/><path d="M67.36,80.32c2.52-.24,3.6-3.43,3-5.61a.13.13,0,0,0-.25,0c-.27.89-.18,1.83-.44,2.72a3.59,3.59,0,0,1-2.38,2.49c-.2.07-.19.42,0,.4Z"/><path d="M69.15,80a2.57,2.57,0,0,0,1.47-1.56c.09-.36-.46-.63-.63-.26-.29.64-.58,2.3.54,2.35a.28.28,0,0,0,.27-.27c0-.65-.63-1.06-.21-1.74l-.6-.34a4.07,4.07,0,0,1-1.1,1.37.26.26,0,0,0,.26.45Z"/><path d="M19.75,75.7c-1.23,3.14,2.69,5.18,5.31,4.54a.31.31,0,0,0,0-.6c-1.17-.34-2.41-.11-3.51-.79a3.15,3.15,0,0,1-1.37-3.09c0-.26-.34-.27-.43-.06Z"/><path d="M23.07,80c-.7-.12-2.49-.49-2.55-1.37l-.7.19a1.47,1.47,0,0,1,0,1.11.5.5,0,0,0,1,.27c.43-1.21-1.68-1.4-1.66-.54a.45.45,0,0,0,.45.45,1.24,1.24,0,0,0,.27,0q.32,0,0-.15l1,.27a2.64,2.64,0,0,0-.3-1.76.38.38,0,0,0-.7.19c.1,1.54,2,1.77,3.24,1.78.23,0,.29-.37.06-.41Z"/><path d="M17.26,35c1.69,1.44,3.58,2.53,4.52,4.64s.55,4.31.88,6.52c0,.27.4.21.47,0,1.68-4.89-1.2-9.47-5.55-11.58-.25-.12-.57.21-.32.42Z"/><path d="M23,41.69a7.27,7.27,0,0,0-.7-4.18c-.18-.39-.84-.11-.69.28.25.65.47,1.31.7,2a.41.41,0,0,0,.8-.11c0-.56.07-1.13.1-1.7l-.74.1.3,1.11a.34.34,0,0,0,.65-.18l-.21-1c0-.31-.57-.24-.54.07s.06.7.08,1a.27.27,0,0,0,.54,0c0-.25.05-.5.07-.75l-.5.14c.08.18.16.36.23.55s.5.1.51-.14a2,2,0,0,0,0-.6c0-.22-.34-.3-.4-.06a3.85,3.85,0,0,0-.13.66l.51-.14-.24-.55c-.11-.27-.48-.09-.5.14s-.05.5-.07.75h.54c0-.35-.05-.7-.07-1H22.7l.09,1,.66-.09-.22-1.13c-.09-.45-.7-.29-.75.1-.05.57-.11,1.13-.15,1.7l.8-.11c-.26-.65-.52-1.29-.77-1.95l-.68.29a11.22,11.22,0,0,1,.83,3.74c0,.27.47.39.52.07Z"/><path d="M66.83,41.81a3.5,3.5,0,0,1,1.42-3.69c.88-.65,2-.76,2.88-1.42a.16.16,0,0,0-.07-.27,5.18,5.18,0,0,0-3.91,1.87,3.26,3.26,0,0,0-.6,3.63c.08.15.32,0,.28-.12Z"/><path d="M67.86,37.65a2.06,2.06,0,0,0-1.77,1.71l.67.09a3,3,0,0,1,0-.89,1.28,1.28,0,0,0,.06-.61.23.23,0,0,0-.34-.14c-.48.32-.49,1.12-.45,1.64,0,.36.59.5.68.09A2.39,2.39,0,0,1,68,38a.2.2,0,0,0-.1-.37Z"/><path d="M64.46,38.07a2,2,0,0,1,1.33.9c.29.49.15,1.05.35,1.55a.19.19,0,0,0,.32.08c.55-.52.25-1.5-.13-2.05a1.91,1.91,0,0,0-1.82-.84c-.19,0-.28.32-.05.36Z"/><path d="M23.62,40.82a3.12,3.12,0,0,1,.93-1.91,2.72,2.72,0,0,1,1-.55,2.67,2.67,0,0,0,.84-.27.22.22,0,0,0,0-.38c-.68-.37-1.68.24-2.18.71a3,3,0,0,0-.94,2.35c0,.19.34.27.37,0Z"/><path d="M24.78,38a2,2,0,0,0-1.3.7c-.26.32-.6.9-.31,1.29a.19.19,0,0,0,.28,0c.25-.22.28-.62.45-.9a2.08,2.08,0,0,1,1-.81c.14-.06.07-.32-.09-.31Z"/><path d="M19.61,35.86c-5.25-3.87-5.3-10.78-5-16.71.12-2.6-.06-5.68,1.14-8,1.8-3.54,7.51-2.77,10.91-2.94.43,0,.44-.7,0-.68-2.94.12-7.67-.56-10.15,1.44S14.16,14.48,14,17.26c-.41,6.28-1.43,15.62,5.47,18.9a.17.17,0,0,0,.17-.3Z"/><path d="M25.67,8c2.13.9,1.2,6.35,1.38,8.15a9.55,9.55,0,0,0,1.06,3.86c1.53,2.65,4.55,2.68,7.26,2.26.26,0,.2-.5-.07-.48-2.52.19-5.16.48-6.71-2.06-1.1-1.81-1.05-4.16-1.06-6.21s.72-5.27-1.74-5.93c-.28-.08-.36.31-.12.41Z"/><path d="M35.53,21.85c.32-3.56.28-7.17.38-10.74,0-1,0-1.95.06-2.93.06-1.72-.28-2.5,2-3.06,1.53-.37,3.71,0,5.28,0,1.75,0,3.51,0,5.27,0,2.28,0,4.86.07,5.05,2.92.22,3.48.1,7,0,10.51a.31.31,0,0,0,.62,0c0-2.62,0-5.25.13-7.87,0-1.48.4-3.33-.26-4.73a3.1,3.1,0,0,0-2.87-1.62c-2.61-.23-5.32,0-7.93,0-2.4,0-7.38-1.18-7.89,2.19a48.58,48.58,0,0,0-.14,6.5c0,2.93-.19,5.87,0,8.79a.17.17,0,0,0,.33,0Z"/><path d="M53.87,17.49c-1,2.63,1.64,4.48,4,4.79a3.69,3.69,0,0,0,3.24-.77,1.4,1.4,0,0,0,.08-2.13c-.11-.09-.34-.09-.37.09a1.91,1.91,0,0,1-1.23,1.78A4.34,4.34,0,0,1,57,21.08a4.1,4.1,0,0,1-2.91-3.56.13.13,0,0,0-.25,0Z"/><path d="M61.09,21.55c.41-2.41.6-4.85.84-7.28a27.11,27.11,0,0,1,.41-4c.56-2.14,2.41-2.58,4.27-3a.15.15,0,0,0,0-.28c-2.1-.44-4.14.26-4.79,2.43a28.68,28.68,0,0,0-.67,5.38c-.22,2.24-.49,4.48-.56,6.73,0,.28.45.35.5.07Z"/><path d="M63.21,7.12a.89.89,0,0,0-1.1,1.09c.07.39.64.22.59-.16a.45.45,0,0,1,.46-.54.2.2,0,0,0,.05-.39Z"/><path d="M62.13,7.14c-.22.38-.64.79-.46,1.24,0,.09.14.19.25.14.48-.19.49-.75.62-1.2a.23.23,0,0,0-.41-.18Z"/><path d="M32.6,22.13c1.95.48,3.56-2.42,3.18-4.06a.18.18,0,0,0-.32-.05c-.4.67-.38,1.53-.76,2.24a3.59,3.59,0,0,1-2.1,1.57c-.13.06-.16.26,0,.3Z"/><path d="M34.62,21.75a1.54,1.54,0,0,0,.79-1.09l-.55-.07a2.44,2.44,0,0,0,0,1.14.29.29,0,0,0,.53.07c.07-.15,0-.19,0-.34a3.23,3.23,0,0,1,.07-.87c0-.32-.46-.36-.55-.07a1.48,1.48,0,0,1-.49.82.24.24,0,0,0,.24.41Z"/><path d="M36,10.62c0-1.24-.22-2.86.48-4,1-1.7,2.71-1.41,4.22-1.39,2.39,0,4.78.1,7.17.16a11.41,11.41,0,0,1,3.41.24c2,.74,2,2.36,2,3.95.08,2.3.14,4.6.25,6.9a.21.21,0,0,0,.42,0c.18-2.9,1.21-7.23-.21-10-1.22-2.35-4.14-2-6.39-2q-3.11,0-6.21,0c-1.26,0-2.81-.25-4,.4-2.06,1.13-2,3.82-1.53,5.8a.16.16,0,0,0,.32-.05Z"/><path d="M24.27,38.37a118.17,118.17,0,0,1,21.58-1.62c6.8.18,14.32-.15,20.65,2.59.69.3,1.3-.69.6-1-6.16-2.93-13.66-2.53-20.3-2.54-7.45,0-15.46-.14-22.63,2.22a.2.2,0,0,0,.1.38Z"/><rect class="cls-3" width="100" height="100"/></g></g></g></svg>