<svg xmlns="http://www.w3.org/2000/svg" viewBox="0 0 100 100"><defs><style>.cls-1{fill:#ccc;}.cls-2{fill:none;}</style></defs><title>kinght</title><g id="Layer_2" data-name="Layer 2"><g id="Layer_2-2" data-name="Layer 2"><g id="kinght"><path d="M67.54,77.38s-1.82.05-5.22.1c2.87-2.68,9.57-10.76,10.42-23.81C73.38,35,57,24.81,57,24.81a34.59,34.59,0,0,0-3.67,7.42,51.51,51.51,0,0,0-2.43,21.44h-8c-3.28-12.83-1.17-25.84,7.43-35.88l.2-.05.1,0c3-1.42,3.46-5,2.12-8a7.86,7.86,0,0,0-8.41-4.3,9.4,9.4,0,0,0-7.08,6.58c-.67,2.26-.4,5,1.4,6.54A4.11,4.11,0,0,1,40,19.91,37.94,37.94,0,0,0,20.47,46.45c-1.92,11,1.1,22.77,8.6,31l-3.53-.07A11.3,11.3,0,0,0,14.25,88.67v6.89a163.14,163.14,0,0,0,17.08,1.18h.11c4.21.14,9.28.23,15.28.23C70,97,78.84,95.56,78.84,95.56V88.67A11.3,11.3,0,0,0,67.54,77.38Z"/><path class="cls-1" d="M28.43,96.13A17.27,17.27,0,0,1,21.79,95,8.62,8.62,0,0,1,19.2,81.17c2.23-2.28,5.51-3.14,8.65-3.76a13.7,13.7,0,0,0-9,2.17,10.56,10.56,0,0,0-4.64,7.87,17.16,17.16,0,0,0,0,5.16A5.73,5.73,0,0,0,15.94,95a4.1,4.1,0,0,0,2.31.74c3.73.41,7.19.52,10.92.93C28.9,96.41,28.7,96.43,28.43,96.13Z"/><path class="cls-1" d="M58.86,26.05a38.87,38.87,0,0,1,7.9,35.13c-1.12,4.06-3,8-6.17,10.81a20.27,20.27,0,0,1-9.93,4.37,60.8,60.8,0,0,1-11,.57c2,0,4.34.82,6.35.65,2.54-.22,4.58.12,7,0s4.7.21,7-.29a8.74,8.74,0,0,0,5-3.58c5.22-6.93,8.79-16.45,7.41-25.3A35.27,35.27,0,0,0,58.86,26.05Z"/><path class="cls-1" d="M64.85,96.13A17.3,17.3,0,0,0,71.49,95a8.62,8.62,0,0,0,2.59-13.86c-2.24-2.28-5.52-3.14-8.65-3.76a13.7,13.7,0,0,1,9,2.17,10.56,10.56,0,0,1,4.64,7.87,18.9,18.9,0,0,1-.7,5.33,3.06,3.06,0,0,1-3.36,3c-3.73.41-7.61.61-11.34,1C64,96.5,64.58,96.43,64.85,96.13Z"/><path class="cls-1" d="M21.4,49.26A41.65,41.65,0,0,1,30.86,27,34.56,34.56,0,0,0,20.27,60.51a34.42,34.42,0,0,0,1.85,5.78c.49,1.18,1.19,3.69,2.55,4.07-1-3.42-2.38-6.59-3-10.16A41.32,41.32,0,0,1,21.4,49.26Z"/><path d="M67.07,76.88c-10.4.27-20.82.25-31.22.16-7.7-.06-17.68-1.89-21.55,6.84-1.58,3.56-1,7.88-1,11.68a.49.49,0,0,0,.37.48,155.78,155.78,0,0,0,18.94,1.25,375.49,375.49,0,0,0,40.26-.66c1.88-.15,3.78-.29,5.65-.59a.5.5,0,0,0,.37-.48c0-3.33.47-7.11-.52-10.34a12,12,0,0,0-11.28-8.34c-.64,0-.64,1,0,1a11,11,0,0,1,9.64,5.92c1.22,2.41,1.16,5,1.16,7.59,0,1-.08,2.13,0,3.18a4.31,4.31,0,0,1,0,.88c0,.19.49-.41.3-.36a17.65,17.65,0,0,1-1.92.23C64,96.63,51.6,96.59,39.33,96.43c-6.23-.08-12.47-.27-18.7-.71-2-.15-4.69,0-6.67-.64.58.2.22.56.32-.51s0-2.3,0-3.42c0-2.66,0-5.21,1.32-7.64,2.68-4.9,7.46-5.65,12.44-5.57,13,.23,26,.27,39-.06A.5.5,0,0,0,67.07,76.88Z"/><path d="M13.58,90.71c-1.24,6.16,8.93,6.94,12.77,5.72.19-.06.17-.39-.05-.37-4.11.2-12.17.66-12.36-5.3,0-.2-.32-.26-.36-.05Z"/><path d="M17.21,95.51a5.22,5.22,0,0,0-1.39-.86c-.54-.28-1.09-.53-1.64-.79-.3-.14-.69.16-.49.48a3.14,3.14,0,0,0,1.83,1.38l.09-.66c-.46-.06-1.08-.14-1.27-.64l-.77.33A2.8,2.8,0,0,0,14.84,96l.38-.91c-.35-.13-.44-.85-1-.52a.52.52,0,0,0-.23.56A1.4,1.4,0,0,0,15,96c.61.22.85-.74.26-1a2,2,0,0,1-.93-.75.42.42,0,0,0-.72.43,2.22,2.22,0,0,0,2,1c.38,0,.45-.56.09-.66A2.17,2.17,0,0,1,14.3,94l-.48.49c.58.29,1.16.58,1.75.85a5.13,5.13,0,0,0,1.49.54c.19,0,.26-.24.15-.35Z"/><path d="M69.76,96.47c2.56,0,5.08-.38,7-2.2,1.45-1.35,2.64-4,1.41-5.86a.13.13,0,0,0-.23,0c-.47,2.18-.4,4.07-2.41,5.55-1.66,1.21-3.87,1.61-5.84,2.06a.21.21,0,0,0,.05.42Z"/><path d="M77.76,90.83a4.37,4.37,0,0,1-2.65,3.84c-.67.32-.19,1.35.49,1.17s1.54-.36,2.27-.63a.6.6,0,0,0,.43-.56l-.11-.86-1,.27c.32.67-.64.55-.94.67a.46.46,0,0,0-.27.66,1.15,1.15,0,0,0,1.72.2,1.65,1.65,0,0,0,.48-1.94c-.19-.55-1.08-.5-1.06.14l0,.86.43-.57c-.77.11-1.54.34-2.3.52l.5,1.17a4.54,4.54,0,0,0,2.41-5c0-.24-.4-.17-.41,0Z"/><path d="M22.1,95.93c-5-.1-8.66-3.82-7.77-8.84,0-.22-.26-.38-.38-.16a6.07,6.07,0,0,0,.81,6.75,7.86,7.86,0,0,0,7.34,2.73c.3,0,.31-.48,0-.48Z"/><path d="M23.49,97a108.5,108.5,0,0,0,11,.24c3.83,0,7.64.17,11.47.15,3.66,0,7.31-.15,11-.26,3.41-.11,7.21.34,10.53-.48a.23.23,0,0,0,0-.44c-3.17-.73-6.79-.26-10-.3-3.83,0-7.65-.12-11.47-.08-3.66,0-7.31.28-11,.33a112.55,112.55,0,0,0-11.47.45.2.2,0,0,0,0,.39Z"/><path d="M14.52,91.08c0-3.44.6-6.77,3-9.37s5.23-2.84,8.45-3.64a.31.31,0,0,0,0-.59c-3.28-.8-7.26,1.45-9.37,3.87a11,11,0,0,0-2.5,9.78.19.19,0,0,0,.38,0Z"/><path d="M67.53,77.45c3.24,1.77,7,3,9,6.38s.38,7.07.32,10.73a.28.28,0,0,0,.53.14c1.66-3.21,2.1-7.88.4-11.16-1.91-3.68-6.13-5.68-10-6.59-.3-.07-.5.35-.22.5Z"/><path d="M63.87,96.58c3.56.36,8.61.32,11.95-1.18.24-.1.09-.44-.12-.45-2.09-.17-4.26.39-6.35.58-1.85.17-3.71.27-5.55.53-.33,0-.21.5.07.52Z"/><path d="M29.24,77.09c-7.5-9.18-10.86-20.5-8.12-32.24A36.74,36.74,0,0,1,40.05,20.79c.93-.48.11-1.88-.82-1.4A38.06,38.06,0,0,0,19.47,45.16c-2.34,11.32.66,24.37,9.18,32.52a.42.42,0,0,0,.59-.59Z"/><path d="M49.8,17.46c-9,10.06-11.09,23.5-7.92,36.37a.6.6,0,0,0,.57.44h8c.3,0,.65-.28.6-.6-1.22-9.64.77-20.39,6-28.56l-.83.22A34.73,34.73,0,0,1,70.49,44.28C73.83,55.61,69.77,69.2,60.83,77c-.58.5.26,1.32.83.83C68.45,72,72.27,62.85,72.84,54.11c.63-9.68-4-18.92-10.77-25.55a32,32,0,0,0-5.23-4.27.61.61,0,0,0-.82.22c-5.36,8.34-7.43,19.34-6.18,29.17l.6-.61H44.31a4.78,4.78,0,0,1-1.51,0c-.31-.17-.08-.44-.16-1.18-.26-2.51-.89-4.95-1-7.49A38.28,38.28,0,0,1,50.36,18c.33-.39-.21-1-.56-.57Z"/><path d="M50.17,17.9c3.14-1.39,4-4.65,3-7.79A8.41,8.41,0,0,0,45.24,4.6a9.71,9.71,0,0,0-8.63,6,8.71,8.71,0,0,0-.69,5.08c.44,2.26,2.15,2.94,3.12,4.79.41.8,1.62.09,1.2-.7A6.66,6.66,0,0,0,38.7,18a5.57,5.57,0,0,1-1.41-5.17,8.82,8.82,0,0,1,6.07-6.68,7.33,7.33,0,0,1,7.78,2.74c1.91,2.74,1.92,6.86-1.15,8.73-.21.12,0,.41.18.31Z"/><path d="M46.69,22.07c3-2.71,6.86-5.71,6.35-10.22a7.41,7.41,0,0,0-5.87-6.68.45.45,0,0,0-.24.87c3.91,1.19,6.44,4.91,4.42,8.88-1.28,2.5-3.34,4.63-4.9,7-.09.14.12.28.24.18Z"/><path d="M46.92,22.34c3-2.9,6.91-5.66,6.46-10.24a.36.36,0,0,0-.72,0c0,2.65-.94,4.08-2.8,5.94A18.76,18.76,0,0,0,46.6,22.1a.2.2,0,0,0,.32.24Z"/><path d="M41.74,51.71c-.84-5.82-1.1-11.27.31-17.05,1.36-5.58,4.12-10,7.2-14.68.23-.35-.28-.73-.57-.44-7.55,7.71-10.5,22.1-7.34,32.28a.21.21,0,0,0,.4-.11Z"/><path d="M45.39,53.32a3.68,3.68,0,0,1-2.84-1.76c-.49-.91-.25-1.78-.47-2.71a.13.13,0,0,0-.22-.06c-.81.85-.31,2.49.26,3.34a3.65,3.65,0,0,0,3.27,1.6.21.21,0,0,0,0-.41Z"/><path d="M42.84,53.35a14.18,14.18,0,0,0-.65-4.17c-.15-.62-1.12-.35-1,.27.24,1,1.09,5.74,3,4.19.2-.16.06-.46-.14-.53a2.06,2.06,0,0,1-1.39-1.53,9.31,9.31,0,0,1-.54-2.26l-1,.13a14,14,0,0,0,1.18,4,.23.23,0,0,0,.43-.12Z"/><path d="M47.37,53.87a2.55,2.55,0,0,0,2.5-1.11c.56-.72,1.06-2,.42-2.75a.21.21,0,0,0-.34,0c-.34.73-.23,1.51-.74,2.18a5.49,5.49,0,0,1-1.9,1.24.22.22,0,0,0,.06.4Z"/><path d="M49.92,51.79a3,3,0,0,0-.69,1.42.39.39,0,1,0,.77.11,3.23,3.23,0,0,1,.3-1.23c.13-.24-.2-.53-.38-.3Z"/><path d="M27.09,74.91c-.37,1.08,1,1.82,1.77,2.23.95.49,2.89,1.28,3.86.58a.24.24,0,0,0,.05-.38c-.67-.55-1.71-.46-2.52-.71-1-.32-2.35-.74-2.85-1.76-.06-.14-.27-.09-.31,0Z"/><path d="M25.67,72.92c1.33,3.27,6,5.51,9.44,5,.2,0,.15-.31,0-.37-1.85-.69-3.76-.77-5.53-1.75A14,14,0,0,1,26,72.72c-.13-.13-.41,0-.34.2Z"/><path d="M55.36,77.79c3.48-.09,8.22-1.7,10.09-4.89.09-.17-.11-.39-.28-.28-1.48,1-2.66,2.28-4.29,3.09a18.17,18.17,0,0,1-5.58,1.67c-.23,0-.17.42.06.41Z"/><path d="M59.49,77.31A5.27,5.27,0,0,1,61,76.88a3.6,3.6,0,0,0,1.22-.69l-.52-.4a2.39,2.39,0,0,1-1.05.86c-.37.16-.71.13-1,.46a.32.32,0,0,0,.11.44c.43.26,1-.07,1.37-.32a3.88,3.88,0,0,0,1.1-1.11c.22-.32-.25-.61-.51-.39a3.48,3.48,0,0,1-1.47.68,2.14,2.14,0,0,0-1.07.51c-.2.19.06.55.3.39Z"/><path d="M25.68,77.38a1.56,1.56,0,0,0,1.46-.95,2.6,2.6,0,0,0,0-2.15.19.19,0,0,0-.34,0c-.17.49,0,1-.09,1.55A1.37,1.37,0,0,1,25.63,77c-.21,0-.15.35.05.36Z"/><path d="M27.36,76.07c-.05.3-.1.59-.14.88l.58-.15a5,5,0,0,0-.34-.43c-.21-.24-.58.06-.43.33l.14.24.37-.37-.26-.16a.27.27,0,0,0-.4.23v.2l.45-.19-.23-.21c-.17-.17-.55,0-.44.25l.12.28a.28.28,0,0,0,.46.12l.61-.55L27.08,76c-.75,1,1,2.59,1.82,1.51a.37.37,0,0,0-.07-.57,2.29,2.29,0,0,1-.53-.29c-.22-.15-.23-.29-.33-.53a.49.49,0,0,0-.94,0l-.26.75.51-.07-.15-.26-.41.32L27,77a.27.27,0,0,0,.45-.19l0-.2-.41.23.26.17c.23.16.49-.15.37-.37l-.14-.25L27,76.7c.07.14.15.27.23.41a.32.32,0,0,0,.58-.16c0-.27,0-.54,0-.81s-.46-.36-.51-.07Z"/><path d="M64.65,76.9c-.74.08-1.08-.64-.85-1.28.13-.38.62-.65.55-1.08a.16.16,0,0,0-.09-.09c-.75-.23-1.2,1.25-1.14,1.77a1.23,1.23,0,0,0,1.59,1.13c.23-.08.22-.48-.06-.45Z"/><path d="M63.51,75.39a1.78,1.78,0,0,0-.55,2,.35.35,0,0,0,.54.07l.31-.28a.28.28,0,0,0-.07-.5c-.3-.08-.6-.17-.9-.28s-.62.46-.26.62a5,5,0,0,0,.53.23l.09-.71-.34,0v.74l.62,0c.42,0,.55-.67.1-.76l-.69-.14c-.51-.09-.73.69-.21.78l.69.11.11-.77-.62.07a.37.37,0,0,0,0,.74h.34a.36.36,0,0,0,.1-.71c-.15,0-.3-.11-.46-.15l-.09.67a7.74,7.74,0,0,1,.84.14l-.06-.51a1.81,1.81,0,0,1-.37.18l.43.24a2.14,2.14,0,0,1,.16-1.59c.1-.16-.11-.3-.24-.19Z"/><path d="M64.07,77.47a31.89,31.89,0,0,1,4.86,1c1.6.48,3,1.36,4.6,1.86a.32.32,0,0,0,.3-.53c-2.35-2.21-6.59-3-9.7-2.7-.21,0-.31.37-.06.41Z"/><path d="M36.88,22a3.36,3.36,0,0,0,1.38-2.31,2.82,2.82,0,0,0-1-2.7c-.14-.08-.36,0-.29.22a5.1,5.1,0,0,1,.78,2.2,3.1,3.1,0,0,1-1.12,2.22c-.2.17.07.54.29.37Z"/><path d="M38,18.63A10.61,10.61,0,0,0,38,20.12c0,.17.15.39.37.36a1,1,0,0,0,.61-.21A.19.19,0,0,0,39,20a.83.83,0,0,0-.52-.25l.27.36a9.92,9.92,0,0,0-.33-1.55.24.24,0,0,0-.46.06Z"/><path d="M55.27,28.19c.17-1.22,1.32-1.6,2.41-1.44.78.12,1.4.56,2.15.74a.19.19,0,0,0,.18-.31c-1.2-1.43-5.29-1.65-5.09,1,0,.19.32.26.35.05Z"/><path d="M58.07,26.15a1.71,1.71,0,0,0-2-.22c-.29.16-.08.59.22.52s1,0,1.31-.37a.2.2,0,0,0,0-.22c-.31-.39-1-.09-1.43,0l.22.52a1.3,1.3,0,0,1,1.47,0,.16.16,0,0,0,.19-.26Z"/><rect class="cls-2" width="100" height="100"/></g></g></g></svg>