<svg xmlns="http://www.w3.org/2000/svg" viewBox="0 0 100 100"><defs><style>.cls-1{fill:#ccc;}.cls-2{fill:none;}</style></defs><title>king</title><g id="Layer_2" data-name="Layer 2"><g id="Layer_2-2" data-name="Layer 2"><g id="king"><path d="M95.31,56.78C91.22,65,82.4,69.85,77.88,77.8H75.4A11.51,11.51,0,0,1,86.91,89.31v7s-9,1.44-32.75,1.44-33.1-1.44-33.1-1.44v-7A11.51,11.51,0,0,1,32.57,77.8H30c-4.52-8-13.34-12.85-17.43-21A21.72,21.72,0,0,1,28.32,25.64a22.15,22.15,0,0,1,17.35,4.54,1,1,0,0,0,1.64-.61l1.22-7.11a1,1,0,0,0-1-1.19h-7.6a1,1,0,0,1-1-1.16l1.24-8.85a1,1,0,0,1,1-.88h5.47a1,1,0,0,0,1-1V4.11a1,1,0,0,1,1-1H58a1,1,0,0,1,1,1V9.72a1,1,0,0,0,1,1h6a1,1,0,0,1,1,.9l1,8.3a1,1,0,0,1-1,1.15h-7.2a1,1,0,0,0-1,1.24l1.66,7.36a1,1,0,0,0,1.64.56A21.72,21.72,0,0,1,95.31,56.78Z"/><path class="cls-1" d="M32.11,77C28.07,72.34,24,67.69,21,62.33S16.11,50.8,16.84,44.7s4.38-12,10-14.45a19.56,19.56,0,0,1,9.79-1.16c2.88.3,6.65,2.1,9.37,1.79-.75-2.78-5.52-4.36-7.94-5.08A21.85,21.85,0,0,0,11.76,37.89a22.32,22.32,0,0,0,.75,19.37c1.91,3.52,4.74,6.44,7.53,9.32L30.9,77.78"/><path class="cls-1" d="M75.55,77.15c4-4.61,8.13-9.27,11.13-14.63S91.55,51,90.83,44.89s-4.38-12-10-14.44A19.59,19.59,0,0,0,71,29.28c-2.88.3-6.64,2.11-9.37,1.79.76-2.78,5.52-4.36,7.94-5.07A21.92,21.92,0,0,1,95.15,57.45c-1.91,3.53-4.73,6.45-7.52,9.32L76.76,78"/><path class="cls-1" d="M36,96.6a17.31,17.31,0,0,1-6.64-1.11,8.61,8.61,0,0,1-2.59-13.85c2.24-2.29,5.52-3.15,8.65-3.76a13.69,13.69,0,0,0-9,2.16,10.59,10.59,0,0,0-4.64,7.88,17.43,17.43,0,0,0,0,5.15,5.91,5.91,0,0,0,1.74,2.44,4.1,4.1,0,0,0,2.31.74L37,97.47C36.77,97.18,36.29,96.89,36,96.6Z"/><path class="cls-1" d="M72.44,96.6a17.28,17.28,0,0,0,6.64-1.11,8.61,8.61,0,0,0,2.59-13.85c-2.23-2.29-5.52-3.15-8.65-3.76A13.69,13.69,0,0,1,82,80a10.59,10.59,0,0,1,4.64,7.88,18.53,18.53,0,0,1-.7,5.32,3.06,3.06,0,0,1-3.36,3L71.43,97.47C71.7,97.18,72.17,96.89,72.44,96.6Z"/><path class="cls-1" d="M48.05,10.27a9.88,9.88,0,0,1,.29-2.71,3.42,3.42,0,0,1,1.58-2.14,4.89,4.89,0,0,1,3.57,0,6.72,6.72,0,0,1,2,.84,2.5,2.5,0,0,1,1.13,1.83c.06,1-.66,1.92-.47,2.88a2.33,2.33,0,0,0,1.85,1.62c1,.25,2.06.14,3.08.38a16,16,0,0,1,3.42,1.15,6.6,6.6,0,0,1,3.07,2.81c-.13-1.42-.29-2.87-.41-4.29a3,3,0,0,0-.37-1.39c-.54-.79-1.67-.84-2.63-.8l-4,.15c-.29,0-.87-.11-1-.38a2.29,2.29,0,0,1-.11-.87v-4c0-.37.17-1.19-.08-1.5s-1.28-.3-1.69-.34a32,32,0,0,0-8.06,0,2.88,2.88,0,0,0-1,.24,1.08,1.08,0,0,0-.61.74A10.78,10.78,0,0,0,48.05,10.27Z"/><path class="cls-1" d="M32.29,54c-1.36-.85-3.12-1.62-3.53-3.29-1.12-4.56,3.08-7.47,7.05-8,3.12-.41,6.68.83,8.06,3.67a11.39,11.39,0,0,1,.77,4.93l.09,8.15a4.88,4.88,0,0,1-.46,2.75A3.71,3.71,0,0,1,42,63.53a4,4,0,0,1-1.92-.16c-.6-.2-.7-.37-.92-1a17,17,0,0,0-1.66-3.23A17.26,17.26,0,0,0,32.29,54Z"/><path class="cls-1" d="M74.6,54c1.36-.85,3.12-1.62,3.53-3.29,1.11-4.56-3.08-7.47-7-8-3.13-.41-6.69.83-8.06,3.67a11.55,11.55,0,0,0-.78,4.93l-.08,8.15a4.79,4.79,0,0,0,.46,2.75,3.71,3.71,0,0,0,2.26,1.27,4.08,4.08,0,0,0,1.93-.16c.6-.2.69-.37.92-1a16.43,16.43,0,0,1,1.66-3.23A17.14,17.14,0,0,1,74.6,54Z"/><path d="M75.4,77.3c-10.73.27-21.48.25-32.21.15-7.81-.06-17.72-1.82-21.62,7-1.59,3.61-1,8-1,11.85a.5.5,0,0,0,.37.48A158.64,158.64,0,0,0,40.4,98.09a384.1,384.1,0,0,0,40.86-.67c1.93-.16,3.87-.31,5.78-.61a.49.49,0,0,0,.37-.48c0-3.3.45-7-.43-10.21A12.18,12.18,0,0,0,75.4,77.3a.5.5,0,0,0,0,1,11.21,11.21,0,0,1,9.82,6c1.23,2.41,1.19,4.94,1.19,7.54v4.3c0,.4.55-.38.32-.31a10.93,10.93,0,0,1-1.8.22c-12.34,1.35-24.9,1.3-37.29,1.15-6.46-.08-12.93-.26-19.37-.71a38,38,0,0,1-7-.66c.46.13.09.67.27-.3a18.23,18.23,0,0,0,0-3.22c0-2.33-.13-4.68.71-6.91a11.11,11.11,0,0,1,9.61-7.11c1.11-.07,2.23,0,3.34,0,13.39.24,26.8.29,40.19,0C76,78.28,76,77.28,75.4,77.3Z"/><path d="M20.85,91.39c-1.25,6.28,9.11,7.06,13,5.83.19-.07.17-.39,0-.38-4.18.22-12.43.68-12.6-5.4,0-.2-.32-.26-.37,0Z"/><path d="M24.55,96.28a5.42,5.42,0,0,0-1.42-.87c-.55-.28-1.11-.54-1.68-.81-.29-.14-.68.16-.48.48a3.21,3.21,0,0,0,1.86,1.41l.09-.67c-.47-.06-1.11-.14-1.31-.65l-.77.33a2.91,2.91,0,0,0,1.3,1.25l.38-.91c-.34-.12-.47-.88-1-.53a.52.52,0,0,0-.23.56,1.41,1.41,0,0,0,1,.93c.61.22.85-.73.26-1a1.94,1.94,0,0,1-.95-.77.42.42,0,0,0-.73.43,2.28,2.28,0,0,0,2.08,1c.38,0,.45-.57.09-.66a2.25,2.25,0,0,1-1.43-1.11l-.48.48c.59.3,1.18.6,1.78.87a5.34,5.34,0,0,0,1.52.55c.19,0,.26-.23.15-.35Z"/><path d="M78.14,97.25c2.6,0,5.17-.39,7.15-2.24,1.48-1.38,2.67-4.09,1.44-6-.06-.08-.21-.08-.23,0C86,91.3,86.09,93.23,84,94.74c-1.69,1.24-4,1.64-6,2.1a.21.21,0,0,0,.06.41Z"/><path d="M86.3,91.51a4.45,4.45,0,0,1-2.7,3.92c-.67.32-.2,1.35.49,1.17A23.25,23.25,0,0,0,86.4,96a.6.6,0,0,0,.43-.56l-.11-.87-1,.27c.34.7-.66.58-1,.69a.45.45,0,0,0-.26.66,1.16,1.16,0,0,0,1.73.2,1.68,1.68,0,0,0,.49-2,.54.54,0,0,0-1.06.15l0,.87.43-.56a23.29,23.29,0,0,0-2.34.53l.49,1.17a4.63,4.63,0,0,0,2.46-5.08c0-.24-.4-.17-.4.05Z"/><path d="M29.53,96.71c-5.09-.09-8.84-3.89-7.92-9,0-.23-.26-.39-.38-.17a6.22,6.22,0,0,0,.83,6.88,8,8,0,0,0,7.47,2.78.24.24,0,0,0,0-.48Z"/><path d="M31,97.79c3.8.38,7.63.25,11.44.25s7.62.16,11.43.14c3.65,0,7.29-.15,10.94-.26s7.55.37,11-.48a.24.24,0,0,0,0-.45c-3.32-.76-7.11-.25-10.5-.29-3.82,0-7.62-.12-11.44-.08-3.65,0-7.28.28-10.93.33A118.91,118.91,0,0,0,31,97.4a.2.2,0,0,0,0,.39Z"/><path d="M78.12,77.94c3.49-5.78,9-9.77,13.35-14.78,4.08-4.67,6.76-10.26,6.66-16.56A22.45,22.45,0,0,0,73.92,24.82a23,23,0,0,0-8.76,2.65c-.71.38-3.27,2.59-4.07,2-.28-.22-.36-1.61-.44-2l-.68-3c-.11-.47-.62-1.66-.48-2.12.36-1.1,3.43-.54,4.42-.53s3,.4,4-.23.78-2,.65-3.1l-.68-5.7c-.12-1-.14-2.15-1.22-2.63C65.41,9.58,63.38,10,62,10c-.52,0-1.74.22-2.11-.16s-.15-1.64-.15-2.17c0-1.23.43-3.3-.24-4.44s-2-.9-3-.9h-6C49.43,2.3,48,2,47.23,3s-.38,3-.38,4.2c0,.49.23,1.85-.13,2.21s-1.6.13-2.1.13c-1.22,0-3.21-.41-4.34.22s-1,2.06-1.18,3.12l-.83,5.86c-.16,1.08-.44,2.36.68,3.06s2.92.28,4,.28c.75,0,4.27-.51,4.72.17s-.72,4.1-.86,4.93c-.05.3-.1,1.85-.35,2-.6.44-3.15-1.69-3.74-2-11.28-6-25.85-1.4-31.25,10.31a22.94,22.94,0,0,0-.36,18.2c2.46,5.92,7.35,10.17,11.75,14.62a41.86,41.86,0,0,1,6.36,7.87.86.86,0,0,0,1.48-.87c-6.44-11-20.36-17-19.53-31.57.88-15.32,18.18-24.4,31.38-16.68,1.36.8,3.28,3.11,4.93,1.69.91-.78.88-2.52,1.06-3.6.34-2,2.05-6.33-1.09-6.78-1.53-.22-7.18.88-7.73-.39-.42-1,.53-3.82.68-4.86.11-.82,0-3.46.78-4s3.38,0,4.28,0c1.35,0,2.58-.06,2.94-1.62a20.12,20.12,0,0,0,0-4.25c0-1.68.52-1.44,2.06-1.44h5.61c1.51,0,2.08-.23,2.09,1.4,0,2.64-.9,6.07,2.55,6.23,1.46.06,3.38-.39,4.79,0,1.23.32,1,2.12,1.1,3.34s.92,3.55.6,4.8-2.18.74-3.35.75c-2,0-6.09-.8-5.66,2.37.21,1.54.71,3.09,1.06,4.6.22,1,.28,2.64,1.1,3.35a1.74,1.74,0,0,0,2,.09c1.4-.6,2.65-1.91,4.07-2.61a21,21,0,0,1,29.41,12.2c2.62,8,.2,15.93-5.14,22.09-4.4,5.07-9.77,9.28-13.16,15.17a.28.28,0,0,0,.49.29Z"/><path d="M30.05,78.86c8.09.15,16.17-.16,24.26-.34,7.78-.16,15.54,0,23.31,0,.57,0,.55-.83,0-.88a213.24,213.24,0,0,0-23.31-.56c-8.09.13-16.19.32-24.26.89a.46.46,0,0,0,0,.92Z"/><path d="M27.92,74.69c1.54,2.53,6.39,4.71,9.29,3.87a.3.3,0,0,0,0-.58c-1.46-.53-3.06-.52-4.55-1.08s-3-1.69-4.52-2.43a.16.16,0,0,0-.22.22Z"/><path d="M32.35,77.53A15.38,15.38,0,0,1,29.13,75a4.13,4.13,0,0,0-2.61-1.49.23.23,0,0,0-.16.38c.53.45,1.13.77,1.65,1.23s.91.94,1.38,1.39a4.05,4.05,0,0,0,2.85,1.4.21.21,0,0,0,.11-.39Z"/><path d="M72.35,77.58c3.18.88,7.1-1.84,9.06-4.16.08-.09,0-.27-.12-.21-3.23,1.28-5.07,4-8.88,4a.2.2,0,0,0-.06.39Z"/><path d="M80,74.15a6.14,6.14,0,0,1-1.85,1.77,7.09,7.09,0,0,1-2.17.93A.6.6,0,0,0,76.13,78a3,3,0,0,0,1.7-.18.43.43,0,0,0,0-.72,3.15,3.15,0,0,0-1.7-.3L76.29,78a6.74,6.74,0,0,0,2.44-1.32,7.48,7.48,0,0,0,1.65-2.3c.15-.25-.26-.49-.39-.23Z"/><path d="M78.25,76a103.54,103.54,0,0,0,13.6-14.09c3.26-4,6.13-9.28,5.79-14.62a.28.28,0,0,0-.56,0c-.64,6.32-3.37,11.31-7.49,16-3.71,4.27-8.1,8-11.6,12.4a.18.18,0,0,0,.26.26Z"/><path d="M45.34,61.82l0-.55c.11-2-.07-4.05-.06-6a85.21,85.21,0,0,0,0-9.32.5.5,0,0,0-.24-.4,3.34,3.34,0,0,0-.81-1.15,5.69,5.69,0,0,0-2.58-1.27A10.54,10.54,0,0,0,40,42.64c-4.51-1.56-9.85-1-11.65,4.06a6,6,0,0,0,2,7C32,55,33.91,55.77,35.4,57.41a13.45,13.45,0,0,1,3.07,5.87.59.59,0,0,0,.09.32.65.65,0,0,0,.72.52,2.21,2.21,0,0,0,.66.13,24,24,0,0,0,4.79,0,.58.58,0,0,0,.57-.73A4,4,0,0,0,45.34,61.82Zm-1,1.13a.13.13,0,0,1,0,.06h0ZM30.47,52.12c-3.42-3.31.38-8.13,4.17-8.67a10.56,10.56,0,0,1,4.73.49c1.28.43,2.5.48,3.51,1.51A4.83,4.83,0,0,1,44.13,49c0,3,.09,6,0,9a17.67,17.67,0,0,1,0,2.3c-.26,1.95-2.37,3.32-4.07,1.89a7.5,7.5,0,0,1-1.56-2.68,10.87,10.87,0,0,0-3.13-3.92C33.84,54.33,31.94,53.53,30.47,52.12Z"/><path d="M78.57,46.7c-1.8-5-7.14-5.62-11.64-4.06a11,11,0,0,0-1.63.51,5.61,5.61,0,0,0-2.57,1.27,3.23,3.23,0,0,0-.82,1.15.5.5,0,0,0-.24.4,85.22,85.22,0,0,0,0,9.32c0,1.93-.17,4-.07,6,0,.19,0,.37,0,.55a3.89,3.89,0,0,0,0,1.71.58.58,0,0,0,.56.73,24,24,0,0,0,4.79,0,2.21,2.21,0,0,0,.66-.13.64.64,0,0,0,.72-.52.67.67,0,0,0,.1-.32,13.43,13.43,0,0,1,3.06-5.87c1.5-1.64,3.41-2.42,5.11-3.75A6,6,0,0,0,78.57,46.7ZM62.58,63a.43.43,0,0,1,0,0l0,0ZM76.4,52.08c-1.2,1.09-2.81,1.75-4.08,2.79a16,16,0,0,0-3.18,3.39c-.81,1.2-1.06,2.94-2.22,3.86a2.68,2.68,0,0,1-2.59.4,2.79,2.79,0,0,1-1.66-2.73c-.12-1.5,0-3,0-4.5,0-1.95.12-3.89.13-5.84,0-1.67.1-3.75,1.91-4.5,2.87-1.19,6.18-2.32,9.2-1C77.16,45.38,79.53,49.21,76.4,52.08Z"/><path d="M40.22,13.6c.27-2.46,2.69-2.12,4.47-2.65a.17.17,0,0,0,0-.32c-1.86-.53-5.26.54-4.78,3,0,.19.29.12.31,0Z"/><path d="M62.32,10.89a4.5,4.5,0,0,1,3.52,1.71c.67.91.66,2,1.12,3a.25.25,0,0,0,.42,0c.77-1.25-.11-3-1-3.91a4.67,4.67,0,0,0-4.08-1.29c-.3.05-.22.52.07.52Z"/><path d="M55,3.83a3.49,3.49,0,0,1,2.61,1A2.09,2.09,0,0,1,58,6.13a1.92,1.92,0,0,0,.12,1,.21.21,0,0,0,.22.09c1.1-.46.48-2.22-.08-2.88a3.38,3.38,0,0,0-3.38-.88c-.23,0-.15.38.06.39Z"/><path d="M48.3,6.64A2.42,2.42,0,0,1,49.47,4.2,11.07,11.07,0,0,1,52,3.55a.24.24,0,0,0,0-.46c-2-.61-4.86,1.47-4,3.64a.17.17,0,0,0,.32-.09Z"/><path d="M45.78,21.86c.74.38,1.53.31,2,1.18a1.82,1.82,0,0,1,.11,1.22,3.25,3.25,0,0,0-.3,1,.33.33,0,0,0,.41.32c1.24-.22,1.11-2.28.64-3.08s-2-1.76-2.86-1a.23.23,0,0,0,0,.35Z"/><path d="M44,22a2.82,2.82,0,0,1,3,1.24c.57,1,0,2,.34,3a.28.28,0,0,0,.46.12c1-1.05.64-3-.21-4.05a3,3,0,0,0-3.78-.75c-.27.13-.07.49.19.45Z"/><path d="M59.92,24.36A2.37,2.37,0,0,1,61.49,22c.83-.32,1.81-.11,2.57-.58a.22.22,0,0,0,0-.37c-1.08-.66-3-.14-3.89.64a2,2,0,0,0-.53,2.81.17.17,0,0,0,.28-.12Z"/><path d="M60.22,21.74A1.22,1.22,0,0,0,59,23c0,.48.68.54.81.11a2.58,2.58,0,0,0,.15-1.37.21.21,0,0,0-.34-.09A2.64,2.64,0,0,0,59,22.84l.81.11a.94.94,0,0,1,.51-.77c.22-.08.21-.45-.06-.44Z"/><path d="M43.07,28.17a3.38,3.38,0,0,0,3.63.63,3,3,0,0,0,1.46-3,.16.16,0,0,0-.26-.07c-.6.69-.65,1.73-1.45,2.27-1,.69-2.18.05-3.26-.09a.17.17,0,0,0-.12.29Z"/><path d="M46.88,27.83a1.18,1.18,0,0,1-.7.7,1.48,1.48,0,0,0-.71.4.75.75,0,0,0,.2,1.12.33.33,0,0,0,.41-.05c.1-.12,0-.21.08-.33s-.08,0,.05-.1a2,2,0,0,1,.41-.2c.57-.28.67-.74.75-1.33,0-.27-.35-.51-.49-.21Z"/><path d="M59.78,27.75a4,4,0,0,0,2.57,1.82c.76.13,1.89-.07,2.12-.94,0-.14-.08-.34-.24-.31-.74.09-1.26.53-2.06.3a8.22,8.22,0,0,1-2.06-1.2c-.2-.13-.48.13-.33.33Z"/><path d="M62.67,29.22c-.64-.13-1.28-.28-1.92-.4-.3-.06-.52.36-.22.52s.83.58,1.28.49c.13,0,.15-.17.11-.26-.17-.39-.74-.54-1.1-.72l-.22.52,1.95.31c.29,0,.42-.39.12-.46Z"/><path d="M87.67,29.06c3.38,3.4,6.25,7.05,7.7,11.7a22.4,22.4,0,0,1,1,7.54c-.1,2.47-1,4.83-1.08,7.27,0,.25.36.44.53.22,3-3.86,2.28-11,.92-15.41a20.33,20.33,0,0,0-8.87-11.57.16.16,0,0,0-.19.25Z"/><path d="M18.34,65.08c-9.27-9.92-9.28-26.1,1.56-35,.36-.3-.16-.82-.52-.52C14,34,10.39,40.09,10.19,47.19A23.83,23.83,0,0,0,18,65.41a.23.23,0,0,0,.33-.33Z"/><path d="M21.8,91.77c-.05-3.52.61-6.91,3.1-9.57s5.33-2.9,8.63-3.71a.31.31,0,0,0,0-.59c-3.36-.8-7.39,1.48-9.55,3.94a11.19,11.19,0,0,0-2.55,10,.19.19,0,0,0,.37,0Z"/><path d="M75.87,77.86c3.31,1.8,7.15,3,9.14,6.5s.4,7.22.32,11a.28.28,0,0,0,.53.14c1.68-3.28,2.13-8,.4-11.37-1.94-3.75-6.24-5.79-10.18-6.72-.29-.07-.49.35-.21.5Z"/><path d="M72.13,97.37c3.64.36,8.76.31,12.18-1.2.25-.11.09-.44-.12-.46-2.13-.16-4.34.41-6.47.6-1.89.18-3.78.28-5.66.53-.33,0-.21.5.07.53Z"/><rect class="cls-2" width="100" height="100"/></g></g></g></svg>