<svg xmlns="http://www.w3.org/2000/svg" viewBox="0 0 100 100"><defs><style>.cls-1{fill:#ccc;}.cls-2{fill:none;}</style></defs><title>pawn</title><g id="Layer_2" data-name="Layer 2"><g id="Layer_2-2" data-name="Layer 2"><g id="pawn"><path d="M81,80.29c-4.22-5.2-10.75-8-15.59-12.58a26.81,26.81,0,0,1-8.15-19.14l10.65.77a15,15,0,0,1,1.31-4.23,5.34,5.34,0,0,0,.1-4.32,6.26,6.26,0,0,0-2.07-2l-8-5.6a17.64,17.64,0,0,0,6.45-14.05,17.5,17.5,0,0,0-35,0A18.69,18.69,0,0,0,37.37,33.2l-7.94,5.6a6.17,6.17,0,0,0-2.07,2,5.34,5.34,0,0,0,.1,4.32,15.36,15.36,0,0,1,1.31,4.23l10.65-.77a26.82,26.82,0,0,1-8.16,19.14c-4.83,4.63-11.36,7.38-15.58,12.58C11.84,85,10.79,91.48,11.24,97.47H86.32A25.35,25.35,0,0,0,81,80.29Z"/><path class="cls-1" d="M32.75,97.76,21.61,96.22c-1.66-.23-3.55-.6-4.41-2s-.3-3.24.38-4.73c2.21-4.81,5.71-8.88,9.26-12.79s7.23-7.79,9.89-12.36S41,54.32,40,49.14c.08.43-.76,1.13-.92,1.53a8.85,8.85,0,0,0-.29,2,26.7,26.7,0,0,1-1,4.42c-1,3.08-2.59,6.88-4.91,9.21-3.08,3.09-7,5.63-10.43,8.35-3.06,2.44-6.71,4.66-8.7,8a19.17,19.17,0,0,0-2.6,11.27,4.4,4.4,0,0,0,1.09,3,5,5,0,0,0,3.47.94C21.23,98,32.75,97.76,32.75,97.76Z"/><path class="cls-1" d="M82.51,82.86c-2-3.37-5-5.78-8.07-8.22C71,71.92,67.09,69.38,64,66.29,61.7,64,60.08,60.16,59.1,57.08a30.11,30.11,0,0,1-1.41-4.57,6.51,6.51,0,0,0-.28-1.71,4.3,4.3,0,0,1-.53-1.66c-1,5.18.58,10.6,3.24,15.16S66.46,72.74,70,76.66s7,8,9.26,12.79c.69,1.49,1.23,3.31.39,4.73s-2.75,1.81-4.42,2L64.11,97.76c5.56-.11,11.51.19,17.08.08a5,5,0,0,0,3.47-.94,4.5,4.5,0,0,0,1.09-3C86.06,90,84.51,86.23,82.51,82.86Z"/><path class="cls-1" d="M34.83,7.61A21.49,21.49,0,0,1,47.68,4.74,16,16,0,0,1,59,11.18a15.54,15.54,0,0,1,2.59,10.21,19.26,19.26,0,0,1-4,9.84c-.53.69-1.14,1.48-.94,2.33C57,35.05,58.8,35.85,60,36.5l5.66,3.17a9.74,9.74,0,0,1,2.6,1.87,3.24,3.24,0,0,1,.82,3c1-1.78.2-4.23-1.25-5.67s-3.39-2.27-5.1-3.4c-.85-.57-2.54-1.31-2.66-2.32s1.42-2,2-2.89a18.3,18.3,0,0,0,2-16.54A18.27,18.27,0,0,0,51.59,2.63C46,1.23,39.18,3.82,34.83,7.61Z"/><path d="M86.43,97.47c.55-9.73-3.9-17.63-11.67-23.23-4.17-3-8.59-5.66-11.76-9.8a26.67,26.67,0,0,1-5.41-15.87l-.53.53c3.55.28,7.09.54,10.65.77a.52.52,0,0,0,.51-.39c.43-3.12,3.26-6.55,1-9.57a15,15,0,0,0-3.45-2.74c-2.11-1.51-4.23-3-6.35-4.5l.13,1c9.7-7.9,8.36-23.72-2.28-30.11C47.05-2.6,33.39,3.15,30.45,14.62A19.17,19.17,0,0,0,36.7,33.7l.14-1.1-6.36,4.46A15.16,15.16,0,0,0,27,39.84c-2.31,3.06.5,6.52.94,9.69a.72.72,0,0,0,.69.53c3.55-.26,7.1-.5,10.65-.78l-.71-.71A26.88,26.88,0,0,1,33.7,63.84c-3.14,4.46-7.86,7.22-12.21,10.32-3.57,2.55-6.91,5.45-8.83,9.47A27.83,27.83,0,0,0,10.4,97.47a.67.67,0,0,0,.66.66q32.84,0,65.68,0l9.4,0a.6.6,0,0,0,0-1.2q-32.85,0-65.68-.05h-9.4l.66.66c-.34-5.36.32-11,3.38-15.59s7.83-7.16,12.08-10.25C34.8,66.08,39.74,58.16,40,48.57a.73.73,0,0,0-.71-.71c-3.55.24-7.1.51-10.65.76l.69.53c-.5-3.65-3.55-6.87.33-9.73,2.6-1.93,5.29-3.74,7.94-5.61a.71.71,0,0,0,.14-1.1c-5.8-4.95-8.18-13.26-5-20.36a16.81,16.81,0,0,1,30.82.13,17.49,17.49,0,0,1-4.8,20.29.62.62,0,0,0,.12,1l5.57,3.91C66.24,39,69.08,40.26,69,42.92a9.81,9.81,0,0,1-.8,2.87c-.21.58-.52,2.49-.69,2.77s.2.11-.61.19a8.2,8.2,0,0,1-1.3-.09c-2.84-.18-5.67-.4-8.51-.62a.53.53,0,0,0-.53.53c.15,9.56,5,17.5,12.62,23,4.12,3,8.63,5.55,11.76,9.65a25.54,25.54,0,0,1,4.93,16.25C85.83,97.86,86.41,97.85,86.43,97.47Z"/><path d="M37.07,32.42c-4.06-5.45-7-12.17-4.9-19A16.65,16.65,0,0,1,48.09,2.13,17.38,17.38,0,0,1,63.56,13.5c2.39,6.7.16,14.28-4.91,19.1-.68.65.35,1.68,1,1,8.85-8.4,8.24-23.16-2.25-29.9-10-6.39-24.23-1.09-26.66,10.82a19.55,19.55,0,0,0,6,18.08c.14.12.41,0,.28-.21Z"/><path d="M27.75,46.76c.67,2.28,4.51,3.26,6.4,2.07a.23.23,0,0,0,0-.42c-1-.4-2.22,0-3.32-.26a4.44,4.44,0,0,1-2.6-1.64c-.17-.2-.49,0-.43.25Z"/><path d="M62.8,48.81c2.46.59,7-.51,6.1-4a.15.15,0,0,0-.3,0c-.31,1.36-.74,2.55-2.11,3.18-1.18.53-2.41.32-3.64.45-.18,0-.24.28-.05.33Z"/><path d="M66,49.09c.43-.08.86-.13,1.29-.17l-.1-.76c-.51.15-1.36.34-1.63.83a.32.32,0,0,0,.19.46c.54.16,1.27-.33,1.73-.58s.06-.85-.38-.67-.8.33-1.22.47a.22.22,0,0,0,.12.42Z"/><path d="M35,34.22c1.59-.14.76-3.26-.26-2.8a.11.11,0,0,0-.06.11c0,.35.44.5.6.81A1.48,1.48,0,0,1,35,34c-.06.07,0,.21.09.2Z"/><path d="M36.13,33.53c0-.32.19-.55.19-.86a.15.15,0,0,0-.19-.15c-.45.11-.47.68-.38,1.06a.19.19,0,0,0,.38,0Z"/><path d="M61.25,34.17a1.83,1.83,0,0,1-.59-1.36c0-.48.35-.78.54-1.19a.14.14,0,0,0-.15-.2c-1.32.31-1.07,2.54,0,3a.19.19,0,0,0,.23-.29Z"/><path d="M84,86.34c.38,1.87.83,3.71,1.14,5.6s.22,3.81.61,5.65c.09.44.85.47.92,0,.54-3.6-.92-8.11-2.43-11.35-.07-.14-.27,0-.24.1Z"/><path d="M84.49,97.46A2.16,2.16,0,0,0,86,96.13a3,3,0,0,0-.07-2.58.14.14,0,0,0-.23,0,4.85,4.85,0,0,0-.18,1.66,2.3,2.3,0,0,1-1.17,1.89c-.21.11-.06.41.15.36Z"/><path d="M11.23,93.25a3.12,3.12,0,0,0,.88,3.59c.88.74,2.62,1.21,3.53.3a.15.15,0,0,0-.11-.26c-1.13,0-2.14.3-3.1-.53a3.25,3.25,0,0,1-.88-3c0-.17-.25-.23-.32-.08Z"/><path d="M13,96.94a3.52,3.52,0,0,1-1.05-1.25l-.61.35a3.48,3.48,0,0,1,.33.55c.13.14.12.28-.05.43a.89.89,0,0,1,0-.23c0-.14,0-.25-.14-.32-.51-.25-.59.65-.44.91a.81.81,0,0,0,1.27.14c.53-.56,0-1.32-.35-1.83a.35.35,0,0,0-.61.35,2.89,2.89,0,0,0,1.42,1.32.24.24,0,0,0,.24-.42Z"/><path d="M12.06,97a1.23,1.23,0,0,0-.46-1,.13.13,0,0,0-.18.08,1.19,1.19,0,0,0,.25,1c.11.15.41.12.39-.11Z"/><path d="M30.21,20.79C30.68,14.93,32.81,9.44,37.8,6A16.69,16.69,0,0,1,54.09,4.49c9.6,4.66,12.21,16.56,7,25.51a.62.62,0,0,0,1.07.62C68.86,21,65.44,7,54,2.82,42.14-1.51,29.55,8.31,30,20.79a.12.12,0,0,0,.24,0Z"/><path d="M17.05,96.81c-4.43,1-5.4-4.14-4.88-7.32a16.27,16.27,0,0,1,2.64-6.31c2.76-4.16,6.86-7.09,10.83-10,6.3-4.62,12.66-9.85,13.11-18.25,0-.4-.57-.39-.61,0C36.79,67.3,22.61,71.76,15.49,80.18c-2.85,3.37-5.11,7.73-4.75,12.28.26,3.13,3.08,7.21,6.47,4.72a.2.2,0,0,0-.16-.37Z"/><path d="M35,49.28c1.54.17,3,.23,3.08,2.06,0,.58.12,1.15.12,1.73A4.76,4.76,0,0,0,38.26,55a.35.35,0,0,0,.64.08,11.13,11.13,0,0,0,.67-3.16,3.38,3.38,0,0,0-.35-2.53c-1-1.55-2.92-1.25-4.36-.55-.24.11-.09.42.12.45Z"/><path d="M57.74,52.22a2.67,2.67,0,0,1,.94-2.52A2.16,2.16,0,0,1,60,49.22a2.92,2.92,0,0,0,1.14-.07.14.14,0,0,0,.1-.18c-.38-1.27-2.57-.68-3.3-.11a2.7,2.7,0,0,0-.56,3.51.2.2,0,0,0,.36-.15Z"/><path d="M62.72,65.11c5.35,7,13.76,11,18.89,18.22a19.55,19.55,0,0,1,3.06,6.31,13.33,13.33,0,0,1,.49,4c-.1,2.28-2.16,2.76-4,2.86-5.22.29-10.45.07-15.66.5a.3.3,0,0,0,0,.6c3.26.18,6.53.11,9.79.09,2.61,0,5.94.54,8.47-.08,4.17-1,2.69-7.08,1.65-9.9-3.91-10.6-15.23-15-22.5-22.71-.09-.09-.25,0-.17.13Z"/><path d="M10.67,98.42c12.82.78,25.8.29,38.64.39,6.28,0,12.55.11,18.83.09,5.9,0,12.06.25,17.82-1.2.53-.13.44-1-.13-1-12.23,1.39-24.72.7-37,.8-12.68.1-25.5-.38-38.15.39a.26.26,0,0,0,0,.51Z"/><path d="M10.47,97.14a1.39,1.39,0,0,0,.06,1,.31.31,0,0,0,.6-.17,1.42,1.42,0,0,0-.43-.93.17.17,0,0,0-.23.06Z"/><path d="M10.46,97.24a1.06,1.06,0,0,0,0,1c.26.43.86,0,.66-.39a2.67,2.67,0,0,0-.28-.62c-.08-.12-.3-.16-.37,0Z"/><path d="M14.59,98.36c4.8.89,9.92.71,14.79.84q7.62.19,15.26.17c5.08,0,10.17-.06,15.25-.21,4.88-.14,10,0,14.86-.8.45-.07.31-.74-.11-.76-4.85-.25-9.88.41-14.75.59-5.08.19-10.17.33-15.25.36q-7.38,0-14.77-.14c-5-.11-10.23-.72-15.24-.32-.15,0-.21.24,0,.27Z"/><path d="M33.45,9.75C38.38,4.6,45.59,1.92,52.59,4.24a17.38,17.38,0,0,1,8,5.67c2.3,2.87,2.94,5.92,4,9.3a.35.35,0,0,0,.68-.09c.52-6.93-6.48-13.64-12.57-15.56-6.85-2.16-15.17.25-19.51,6-.08.11.1.24.19.14Z"/><path d="M57.47,48.62c-2.82,9.71,4.71,17.46,11.69,22.95,4,3.17,8.4,6.22,11.39,10.46s6.14,12.88-.5,15.16a.7.7,0,0,0,.19,1.37c4.48,0,5.87-5.22,5.45-8.84-.58-5-3.65-9.43-7.19-12.89-4.07-4-9-7-13-10.94-5-4.81-7.2-10.35-7.55-17.21a.22.22,0,0,0-.44-.06Z"/><rect class="cls-2" width="100" height="100"/></g></g></g></svg>