<svg xmlns="http://www.w3.org/2000/svg" viewBox="0 0 100 100"><defs><style>.cls-1{fill:#ccc;}.cls-2{fill:none;}</style></defs><title>queen</title><g id="Layer_2" data-name="Layer 2"><g id="Layer_2-2" data-name="Layer 2"><g id="queen"><path d="M90.68,33.17a9.18,9.18,0,0,1-7,7.56L68.23,76.23H66.76a11.3,11.3,0,0,1,11.3,11.29v6.89s-8.83,1.41-32.12,1.41-32.47-1.41-32.47-1.41V87.52A11.3,11.3,0,0,1,24.76,76.23H23.18L7.53,40.17c-3.47-1.81-6.38-4.76-6.41-8.68a10.25,10.25,0,0,1,6-9.32,9.55,9.55,0,0,1,10.72,2.37A8.94,8.94,0,0,1,18.3,35.4L28.35,48.24l.64-26a10,10,0,0,1-5.93-10.09,9.85,9.85,0,0,1,8.18-8.33A9.73,9.73,0,0,1,41.3,9.68,9.61,9.61,0,0,1,37.88,20.8l7.85,24.08,6.54-25A9.93,9.93,0,0,1,50.69,8.7a9.64,9.64,0,0,1,18.06,3.09,9.92,9.92,0,0,1-5.22,10l-.35,26.84L73.64,35.59a8.94,8.94,0,1,1,17-2.42Z"/><path class="cls-1" d="M27.78,95a17.3,17.3,0,0,1-6.64-1.1A8.62,8.62,0,0,1,18.55,80c2.23-2.28,5.52-3.14,8.65-3.76a13.7,13.7,0,0,0-9,2.17,10.56,10.56,0,0,0-4.64,7.87,18.9,18.9,0,0,0,.7,5.33,4.13,4.13,0,0,0,1,2.26,4.1,4.1,0,0,0,2.31.74l11.2,1.23C28.53,95.57,28.05,95.29,27.78,95Z"/><path class="cls-1" d="M64.2,95a17.27,17.27,0,0,0,6.64-1.1A8.62,8.62,0,0,0,73.43,80c-2.23-2.28-5.52-3.14-8.65-3.76a13.7,13.7,0,0,1,9,2.17,10.56,10.56,0,0,1,4.64,7.87,18.55,18.55,0,0,1-.7,5.33,3.06,3.06,0,0,1-3.36,3l-11.2,1.23C63.46,95.57,63.93,95.29,64.2,95Z"/><path class="cls-1" d="M1.42,31.59a9.15,9.15,0,0,1,6-6.1,9.16,9.16,0,0,1,8.4,1.7,9.16,9.16,0,0,1,3.17,8,16.46,16.46,0,0,0,1.34-5.08,8.85,8.85,0,0,0-4.64-7.93,9.74,9.74,0,0,0-9.28.25A10.82,10.82,0,0,0,1.3,30.22l.17-.13"/><path class="cls-1" d="M23.55,13.93a9.38,9.38,0,0,1,6.87-7.62C38.7,4.46,41.69,14.25,39,20.4A9.91,9.91,0,0,0,41,8.66,9.78,9.78,0,0,0,30,4.16C25.92,5.35,23.31,9.67,23.55,13.93Z"/><path class="cls-1" d="M50.6,16.63c0-3.48,1.24-7.23,4.2-9.08,5.31-3.33,11.46,1.32,11.79,7a9.74,9.74,0,0,1-1.8,6.2,8.51,8.51,0,0,0,4.53-7.55A9.69,9.69,0,1,0,50.2,15.36C50.41,15.41,50.39,16.59,50.6,16.63Z"/><path class="cls-1" d="M80.85,26.49a6.18,6.18,0,0,1,3.47.51c2.24,1.12,3.3,3.87,3.08,6.36a15.09,15.09,0,0,1-2.9,6.85,9,9,0,0,0,6.38-7.54,9.19,9.19,0,0,0-4.54-8.79,9.33,9.33,0,0,0-9.9.66,9.16,9.16,0,0,0-3,3.85c-.21.49-1.45,4.19.27,3.71.45-.12.87-1.45,1.13-1.83a9.24,9.24,0,0,1,1.61-1.81A8.29,8.29,0,0,1,80.85,26.49Z"/><path class="cls-1" d="M13.5,52.29c3.21,8,8.41,15.65,16.07,19.66,7,3.69,15.31,3.94,23.25,4.12a194,194,0,0,1-25.06.06,7.56,7.56,0,0,1-3.56-.84,7.65,7.65,0,0,1-2.53-3.51L13.73,54.51"/><path class="cls-1" d="M78.37,52.47C75.16,60.5,70,68.12,62.3,72.13,55.26,75.82,47,76.07,39,76.25a194.19,194.19,0,0,0,25.07.06,7.59,7.59,0,0,0,3.56-.84A7.63,7.63,0,0,0,70.2,72l7.94-17.26"/><path d="M68.72,76.35c4.83-10.86,9.8-21.65,14.57-32.54a13.43,13.43,0,0,1,.94-2.16c.63-.89,1.44-.69,2.57-1.35a9.61,9.61,0,0,0,4.11-12c-4.34-10.24-20.06-5.68-18.28,5.32.08.48.32,1,.36,1.5.16,1.89.44-.66.32.11,0,.33-.74.92-.94,1.18l-3.72,4.65L63,48.18l1.18.49.23-17.11c0-2.85-.3-6,.12-8.82.17-1.18-.22-.52,1-1.16,2.06-1.08,3.49-3.94,4-6.1a10.39,10.39,0,0,0-6-11.77A10.47,10.47,0,0,0,51.12,7.15a10,10,0,0,0-1.91,6.33A10.76,10.76,0,0,0,50,17.12a9.41,9.41,0,0,0,.69,1.43c.08.14,1.31,1.52,1.21,1.18.1.34-.33,1.24-.41,1.57L50.4,25.35,45.33,44.69h1.33L38.81,20.61l-.32.78c5.3-3.94,5.93-12,.53-16.14A10.23,10.23,0,0,0,23.16,9.92a10.26,10.26,0,0,0,1.69,9.7,15,15,0,0,0,3.43,2.88c.22.17.11-.47.29-.1.06.14,0,.49,0,.64.26,4.33-.22,8.83-.32,13.16l-.3,12,1.17-.48-10-12.83.11.82c4.7-6.92-1.15-15.84-9.3-14.92a10.55,10.55,0,0,0-8.71,7.6A9.66,9.66,0,0,0,4.58,38.85c.78.65,2.13,1.13,2.71,1.85a6.13,6.13,0,0,1,.61,1.41L10.44,48,18,65.26q2.45,5.65,4.91,11.3c.34.78,1.48.11,1.14-.67l-9.1-21L9.57,42.58a13.7,13.7,0,0,0-1.15-2.66,7,7,0,0,0-1.86-1.27,9.66,9.66,0,0,1-4.38-5.92C1,26.77,6.76,21.2,12.61,22.25A8.23,8.23,0,0,1,18,35.05a.69.69,0,0,0,.1.83L28.13,48.72c.39.49,1.16.05,1.17-.49l.64-26a.66.66,0,0,0-.34-.59C22,18.12,22.28,6.43,31,4.57a9,9,0,0,1,9.69,4.82A8.93,8.93,0,0,1,37.8,20.2a.72.72,0,0,0-.32.78l7.85,24.07a.69.69,0,0,0,1.33,0L51.39,27l1.22-4.64a9.38,9.38,0,0,0,.59-2.24c0-.63-.17-.59-.57-1.18a9.88,9.88,0,0,1-2-5.45,8.91,8.91,0,0,1,17-4c2.13,4.39,0,9.52-4.12,11.79a.67.67,0,0,0-.34.59l-.36,26.85c0,.55.79,1,1.18.48L74.39,36.07a.69.69,0,0,0,.17-.67c-1.79-4.58.37-10.08,5.38-11.35a8.21,8.21,0,0,1,7.71,14,9.23,9.23,0,0,1-3.23,1.89c-.43.16-.74.14-1,.47a7.18,7.18,0,0,0-.84,1.92c-3.62,8.37-7.24,16.74-10.69,25.19q-1.74,4.3-3.56,8.59c-.13.29.3.55.44.25Z"/><path d="M67,75.72c-10.41.27-20.82.25-31.23.16-7.69-.06-17.68-1.88-21.55,6.84-1.58,3.56-1,7.88-1,11.68a.5.5,0,0,0,.37.48,156,156,0,0,0,18.95,1.25,373,373,0,0,0,40.26-.66c1.88-.15,3.78-.29,5.65-.59a.5.5,0,0,0,.36-.48c0-3.33.48-7.11-.51-10.33A12,12,0,0,0,67,75.72a.5.5,0,0,0,0,1,11,11,0,0,1,9.63,5.92c1.23,2.41,1.16,5,1.16,7.59,0,1-.07,2.13,0,3.19a4.22,4.22,0,0,1,0,.87c0,.19.5-.4.3-.36a17.46,17.46,0,0,1-1.91.23C64,95.47,51.56,95.43,39.29,95.27c-6.24-.08-12.48-.26-18.7-.71-2.05-.14-4.7,0-6.67-.63.58.19.21.55.31-.51s0-2.3,0-3.43c0-2.66,0-5.21,1.32-7.64C18.23,77.46,23,76.7,28,76.78c13,.23,26,.27,39-.06A.5.5,0,0,0,67,75.72Z"/><path d="M20.62,37.4A4.59,4.59,0,0,1,19.73,35,13,13,0,0,1,20,32.8a.17.17,0,0,0-.29-.12c-1.14,1.42-.43,3.69.63,4.94.13.15.39,0,.28-.22Z"/><path d="M26.14,20.78a4,4,0,0,1,2.18,2.47c.31.94.23,2,.63,2.87.08.18.35.11.4-.06a4.88,4.88,0,0,0-3.08-5.58c-.17,0-.3.22-.13.3Z"/><path d="M39.51,23.38a5.94,5.94,0,0,1,.39-2.8c.31-.74.94-1.27,1.23-2,0-.11-.09-.24-.2-.2-.79.28-1.28,1.28-1.57,2a5.53,5.53,0,0,0-.27,3c0,.24.45.19.42-.05Z"/><path d="M39.13,20.45c-.05.31-.11.62-.15.93h.49l-.18-.56c-.07-.18-.38-.22-.42,0a1.53,1.53,0,0,0-.06.87.13.13,0,0,0,.21,0,1.53,1.53,0,0,0,.27-.8h-.42c0,.19.07.38.11.57s.48.21.5-.07,0-.62,0-.94-.35-.27-.39-.05Z"/><path d="M51.62,23.65c1.16-2.53,0-5-.77-7.48a.2.2,0,0,0-.4,0,8.93,8.93,0,0,0,.71,2.91,8.56,8.56,0,0,1,.13,4.38c0,.19.24.34.33.14Z"/><path d="M64.25,24.14a5.2,5.2,0,0,1,1.48-3c.45-.52,1.15-1,1.34-1.69,0-.07,0-.15-.12-.12-.88.3-1.62,1.5-2.17,2.22a3.45,3.45,0,0,0-.94,2.56.21.21,0,0,0,.41,0Z"/><path d="M71.26,38.82c2-1.78,2.48-5.23,1.83-7.71,0-.21-.34-.15-.36.05a31.82,31.82,0,0,1-.2,4.13A7.75,7.75,0,0,1,71,38.52a.22.22,0,0,0,.31.3Z"/><path d="M73,33.92a6.13,6.13,0,0,1-.45,1.78c-.17.42.55.63.7.19a6.34,6.34,0,0,1,.39-.66.27.27,0,0,0-.3-.38,1.25,1.25,0,0,0-.75.76l.66.28a6.92,6.92,0,0,0,.25-2,.25.25,0,0,0-.5,0Z"/><path d="M13.53,89.55c-1.24,6.16,8.94,6.94,12.77,5.72a.19.19,0,0,0-.05-.37c-4.1.2-12.17.67-12.35-5.3,0-.2-.32-.26-.37,0Z"/><path d="M17.16,94.35a5.16,5.16,0,0,0-1.38-.86l-1.65-.79c-.3-.14-.69.16-.48.48a3.08,3.08,0,0,0,1.82,1.38l.09-.66c-.46-.06-1.08-.14-1.27-.64l-.77.33a2.85,2.85,0,0,0,1.27,1.23l.39-.91c-.36-.13-.45-.85-1-.52A.5.5,0,0,0,14,94a1.36,1.36,0,0,0,.93.92c.61.22.86-.73.27-1a1.86,1.86,0,0,1-.93-.75.42.42,0,0,0-.73.43,2.26,2.26,0,0,0,2,1c.39,0,.45-.57.09-.67a2.14,2.14,0,0,1-1.39-1.08l-.49.48c.58.29,1.16.59,1.75.85a5.19,5.19,0,0,0,1.5.54c.18,0,.26-.23.14-.35Z"/><path d="M69.72,95.31c2.55,0,5.08-.38,7-2.19,1.45-1.36,2.63-4,1.41-5.87-.06-.08-.21-.08-.23,0-.47,2.18-.41,4.08-2.42,5.55-1.65,1.22-3.87,1.61-5.84,2.06a.22.22,0,0,0,.06.42Z"/><path d="M77.72,89.68a4.37,4.37,0,0,1-2.65,3.83c-.67.32-.2,1.35.49,1.17s1.53-.36,2.26-.63c.22-.08.47-.3.43-.56l-.11-.86-1,.27c.32.67-.65.56-1,.67a.46.46,0,0,0-.26.66,1.14,1.14,0,0,0,1.71.2,1.65,1.65,0,0,0,.48-1.94.54.54,0,0,0-1.06.14l0,.86.43-.57c-.77.11-1.53.34-2.29.52l.49,1.17a4.52,4.52,0,0,0,2.41-5c0-.24-.4-.17-.4.06Z"/><path d="M22.05,94.77c-5-.1-8.66-3.82-7.76-8.84a.21.21,0,0,0-.39-.16,6.09,6.09,0,0,0,.81,6.75,7.86,7.86,0,0,0,7.34,2.73c.3,0,.32-.48,0-.48Z"/><path d="M20.89,70.3c-.51,5,6.36,7.16,10.2,6a.14.14,0,0,0,0-.28c-1.76-.65-3.73-.57-5.51-1.19a6.13,6.13,0,0,1-4.26-4.58.22.22,0,0,0-.43,0Z"/><path d="M26.38,75.69a3.77,3.77,0,0,1-2-.6c-.41-.25-.75.37-.37.64l.38.26.38-.65c-.37-.21-.73-.43-1.1-.63s-.8.2-.54.54.41.55.62.83.93,0,.66-.39a50.32,50.32,0,0,0-4.23-6.63.14.14,0,0,0-.22.13,51.33,51.33,0,0,0,3.79,6.89l.66-.39-.6-.84-.54.54c.37.21.74.4,1.12.6a.38.38,0,0,0,.38-.65l-.39-.25-.37.64a3,3,0,0,0,2.4.32.18.18,0,0,0-.05-.36Z"/><path d="M63.27,76.34A8.35,8.35,0,0,0,71,70.56c.07-.24-.3-.41-.41-.17A9.81,9.81,0,0,1,63.22,76a.2.2,0,0,0,.05.38Z"/><path d="M69.29,72.94c-.16.48-.88.91-1.23,1.24s-.86.93-1.46.94l.12.88a1.82,1.82,0,0,1,1.42.23.44.44,0,0,0,.65-.26,3.88,3.88,0,0,1,.42-1.34c.17-.31.43-.56.33-.92a.18.18,0,0,0-.15-.15c-.9-.13-1.35,1.52-1.45,2.18l.65-.26a2.68,2.68,0,0,0-2.1-.34.45.45,0,0,0,.11.88,2.86,2.86,0,0,0,2-1.17A2.94,2.94,0,0,0,69.7,73a.21.21,0,0,0-.41-.06Z"/><path d="M23.44,95.84a108.5,108.5,0,0,0,11,.24c3.83,0,7.64.17,11.47.15,3.66,0,7.31-.15,11-.26,3.41-.11,7.22.35,10.53-.48a.23.23,0,0,0,0-.44c-3.17-.73-6.78-.25-10-.29-3.83-.05-7.64-.13-11.47-.09-3.66,0-7.31.28-11,.34a109.74,109.74,0,0,0-11.47.44.2.2,0,0,0,0,.39Z"/><path d="M34.85,76.77c4.67.37,9.39.31,14.08.31,4.24,0,9,.56,13.18-.2a.3.3,0,0,0,0-.58c-4.19-.77-8.94-.22-13.18-.21-4.69,0-9.41-.06-14.08.31a.19.19,0,0,0,0,.37Z"/><path d="M26.53,45.34c.66,1.08,2.5.06,2.11-1.06a.1.1,0,0,0-.17,0c-.24.24-.32.58-.55.83a.85.85,0,0,1-1.16.09c-.12-.1-.33,0-.23.18Z"/><path d="M28,45.34c0,.33.06.66.08,1l.32-.24-.2-.18-.41.24.13.12.29-.38a2.67,2.67,0,0,1-.44-.38.26.26,0,0,0-.44.25,2.05,2.05,0,0,0,.52,1,.18.18,0,0,0,.29-.12,2.1,2.1,0,0,0-.33-1.08l-.36.36a2.73,2.73,0,0,1,.47.35c.23.21.56-.12.34-.34l-.12-.13a.25.25,0,0,0-.42.24.76.76,0,0,0,.54.54.25.25,0,0,0,.31-.31c-.09-.32-.17-.65-.24-1s-.35-.14-.33.05Z"/><path d="M28.39,45.56a.68.68,0,0,0-.83,0c-.32.22.05.69.32.42a.87.87,0,0,1,.45-.2.14.14,0,0,0,.06-.23Z"/><path d="M44.74,41.53a1.78,1.78,0,0,0,1.55.59A1.26,1.26,0,0,0,47.18,41c0-.11,0-.27-.13-.32l-.14,0a.29.29,0,0,0-.25.14c-.12.28-.22.62-.54.72A1.67,1.67,0,0,1,45,41.2c-.2-.1-.45.17-.26.33Z"/><path d="M45.86,42v0l-.39.38.31.22c.21.16.5-.15.36-.36L46,42.06a.26.26,0,0,0-.48.2c0,.25,0,.38.26.52a.16.16,0,0,0,.2-.06c.15-.2.09-.35,0-.6l-.47.2.09.14.41-.32a3.47,3.47,0,0,1-.29-.25.28.28,0,0,0-.44.34.49.49,0,0,0,.76.19.26.26,0,0,0-.26-.44Z"/><path d="M63.43,45.09c.16.67.59,1.34,1.37,1.25.43-.05,1.06-.67.55-1,0,0-.09,0-.13,0-.25.13-.33.42-.67.35s-.57-.43-.72-.74-.46-.06-.4.17Z"/><path d="M64.62,46.22c-.29.12-.42-.09-.52-.33l-.32.32a.79.79,0,0,1,.43.5l.43-.25-.28-.32-.31.41a1.11,1.11,0,0,0,.3.17.22.22,0,0,0,.27-.35,2,2,0,0,0-.31-.27c-.25-.18-.49.2-.31.41s.18.21.28.31.52,0,.42-.24a1.41,1.41,0,0,0-.69-.77.22.22,0,0,0-.33.14c-.11.68.59,1,1.14.74.27-.11.08-.59-.2-.47Z"/><rect class="cls-2" width="100" height="100"/></g></g></g></svg>