<svg xmlns="http://www.w3.org/2000/svg" viewBox="0 0 100 100"><defs><style>.cls-1{fill:#ccc;}.cls-2{fill:none;}</style></defs><title>rook</title><g id="Layer_2" data-name="Layer 2"><g id="Layer_2-2" data-name="Layer 2"><g id="rook"><path d="M76.33,77c-2-14.16-2.82-28.2-4.78-42.37A11.23,11.23,0,0,0,81.73,23.45V9.71A5.76,5.76,0,0,0,76,4H67.53l-1,14.65H62.41a3,3,0,0,1-3-3V2.39a1,1,0,0,0-1-1H42.06a1,1,0,0,0-1,1V18.68H36.29a3,3,0,0,1-3-2.78L32.5,4.83s-3.64-.07-7,0a5.77,5.77,0,0,0-5.73,5.76V23.45a11.22,11.22,0,0,0,9.21,11c-1.35,13.17-3.93,38.28-4.37,42.59a12.12,12.12,0,0,0-9.88,11.7v7.31s10.21,1.5,36.12,1.5,35.72-1.5,35.72-1.5V88.78A12.15,12.15,0,0,0,76.33,77Z"/><path class="cls-1" d="M30.71,96.67a19.68,19.68,0,0,1-7.26-1.15A9.25,9.25,0,0,1,18.1,89a8.94,8.94,0,0,1,2.52-8c2.44-2.39,6-3.29,9.46-3.93a15.46,15.46,0,0,0-9.86,2.26,11,11,0,0,0-5.08,8.25,17.46,17.46,0,0,0,0,5.4,6.12,6.12,0,0,0,1.91,2.54,4.53,4.53,0,0,0,2.52.78c4.08.43,7.87.54,12,1C31.23,97,31,97,30.71,96.67Z"/><path class="cls-1" d="M70.54,96.67a19.68,19.68,0,0,0,7.26-1.15A9.25,9.25,0,0,0,83.15,89a8.94,8.94,0,0,0-2.52-8c-2.44-2.39-6-3.29-9.46-3.93A15.5,15.5,0,0,1,81,79.34a11.05,11.05,0,0,1,5.08,8.25,18.87,18.87,0,0,1-.77,5.57,4.25,4.25,0,0,1-1.15,2.37,4.56,4.56,0,0,1-2.53.78c-4.08.43-8.32.64-12.4,1.06C69.57,97.06,70.24,97,70.54,96.67Z"/><path class="cls-1" d="M59.37,32.93c2,.86,4.33.6,6.54.71s4.66.79,5.7,2.74a7.78,7.78,0,0,1,.67,3.11c.46,6,1.1,12,1.55,18.08-.94-3.39-1.44-6.88-2.31-10.28a23.41,23.41,0,0,0-4.43-9.46,11.54,11.54,0,0,0-9.2-4.33A3.32,3.32,0,0,1,59.37,32.93Z"/><path class="cls-1" d="M41,32.93c-2,.86-4.33.6-6.54.71s-4.66.79-5.7,2.74a7.78,7.78,0,0,0-.67,3.11c-.46,6-1.1,12-1.55,18.08.94-3.39,1.44-6.88,2.31-10.28a23.41,23.41,0,0,1,4.43-9.46,11.54,11.54,0,0,1,9.2-4.33A3.32,3.32,0,0,0,41,32.93Z"/><path d="M73.81,76.29c-11.28.28-22.58.26-33.86.18-8.33-.06-19.76-2.29-24.5,6.67C13.39,87,14,91.83,14,96.08a.52.52,0,0,0,.37.49,181.85,181.85,0,0,0,21.12,1.32,433.62,433.62,0,0,0,44.74-.7c2.08-.16,4.18-.31,6.25-.62a.51.51,0,0,0,.36-.49c0-3.54.53-7.61-.6-11-1.77-5.4-6.93-8.61-12.46-8.76a.5.5,0,0,0,0,1A12.33,12.33,0,0,1,84.6,83.64c1.35,2.56,1.27,5.26,1.27,8a26.17,26.17,0,0,0,0,3.43,3.15,3.15,0,0,1,0,.92c.13-.64.58-.43.25-.42-.74,0-1.5.18-2.23.26C70.25,97.25,56.41,97.21,42.73,97c-6.91-.09-13.83-.28-20.72-.75-2.26-.16-5.16-.07-7.26-.67-.26-.07.28.39.28.43a4,4,0,0,1,0-.92c.1-1.28,0-2.62,0-3.91,0-2.86.05-5.58,1.6-8.13,3.19-5.25,8.51-5.81,14-5.72,14.39.23,28.81.28,43.2-.07A.5.5,0,0,0,73.81,76.29Z"/><path d="M14.33,90.94C12.86,97.61,24.6,98.21,28.5,97c.2-.06.18-.39-.05-.38-4.27.2-13.77.82-13.76-5.63a.18.18,0,0,0-.36,0Z"/><path d="M18.33,96A12.59,12.59,0,0,0,15,94.3c-.29-.13-.69.16-.48.48a3.43,3.43,0,0,0,2,1.46l.09-.67c-.5-.06-1.22-.14-1.45-.69l-.78.33a3.17,3.17,0,0,0,1.41,1.3l.38-.92c-.32-.11-.39-.49-.72-.63a.34.34,0,0,0-.33.09l-.08.07a.46.46,0,0,0-.13.48,1.48,1.48,0,0,0,1,1c.61.21.86-.75.26-1a2.19,2.19,0,0,1-1.06-.81.42.42,0,0,0-.73.43,2.48,2.48,0,0,0,2.23,1c.39,0,.46-.57.09-.67a2.41,2.41,0,0,1-1.57-1.16l-.48.49a13.22,13.22,0,0,0,3.59,1.48c.17,0,.26-.24.14-.35Z"/><path d="M76.8,97c2.8,0,5.61-.4,7.77-2.34,1.59-1.43,2.87-4.2,1.59-6.2,0-.08-.21-.08-.22,0-.43,2.45-.52,4.5-2.83,6-1.84,1.21-4.24,1.6-6.36,2.05-.24,0-.18.41,0,.42Z"/><path d="M85.72,91.07a4.59,4.59,0,0,1-2.93,4.1c-.68.31-.19,1.34.49,1.17a23.91,23.91,0,0,0,2.52-.66.6.6,0,0,0,.43-.56l-.12-.91-1,.27c.37.75-.86.64-1.2.8a.45.45,0,0,0-.16.61c.33.66,1.25.59,1.8.22a1.68,1.68,0,0,0,.54-2c-.2-.53-1.08-.5-1.06.15l0,.91.58-.59c-.91.12-1.8.37-2.7.58l.49,1.17A4.8,4.8,0,0,0,86.13,91c0-.24-.4-.17-.41,0Z"/><path d="M23.78,96.49c-5.3-.07-9.8-3.84-8.66-9.39.05-.23-.26-.38-.38-.17a6.31,6.31,0,0,0,1,7.19c2.06,2.45,5,3.15,8.07,2.85a.24.24,0,0,0,0-.48Z"/><path d="M25.33,97.6c4.13.39,8.31.25,12.45.24s8.3.16,12.45.14c4,0,8-.15,12-.26s8.24.41,12-.49a.24.24,0,0,0,0-.45c-3.64-.8-7.79-.25-11.52-.29-4.15,0-8.29-.11-12.45-.07-4,0-8,.28-11.95.34-4.31,0-8.66,0-13,.45a.2.2,0,0,0,0,.39Z"/><path d="M15.33,91.33c-.12-3.7.68-7.21,3.35-9.94s5.87-3,9.45-3.89a.3.3,0,0,0,0-.58c-3.58-.86-8,1.51-10.38,4.1A11.36,11.36,0,0,0,15,91.38a.19.19,0,0,0,.37,0Z"/><path d="M74.34,76.85c3.38,1.72,7.41,2.93,9.66,6.23,2.61,3.84.86,7.79.67,11.94a.29.29,0,0,0,.53.15c1.86-3.63,2.35-8.86.07-12.41s-6.7-5.47-10.72-6.41c-.29-.07-.5.35-.21.5Z"/><path d="M70.25,97.16c4,.33,9.47.37,13.28-1.25.24-.11.09-.44-.13-.46-2.15-.16-4.4.39-6.55.59s-4.41.32-6.6.58a.27.27,0,0,0,0,.54Z"/><path d="M25.82,77.63A18.56,18.56,0,0,0,31,77.06a.26.26,0,0,0-.06-.5,18.36,18.36,0,0,0-5.19.76.16.16,0,0,0,0,.31Z"/><path d="M82,23.44c0-4.74.57-9.83-.05-14.54-.94-7-9.67-5.46-14.65-5.46a.5.5,0,0,0-.5.5l-.62,9a33.91,33.91,0,0,0-.34,4.92c.1,1.09-.26.13.39.21a22.43,22.43,0,0,0-2.46,0c-1.09,0-2.5.13-3.36-.73a3.6,3.6,0,0,1-.73-2.45c-.12-1.71,0-3.47,0-5.18V3.92c0-.84.19-1.92-.46-2.57S57.82.89,57.07.89H52c-3.23,0-6.75-.41-10,0-2.3.29-1.66,3-1.66,4.73V17.08a7,7,0,0,0,0,1.52c-.09-.34.67-.14.13-.42a4.11,4.11,0,0,0-1.31,0,13.85,13.85,0,0,1-2.95,0,3.44,3.44,0,0,1-2.67-2.82c-.36-3.5-.51-7-.76-10.53a.51.51,0,0,0-.5-.5c-3.63-.07-8.54-1.06-11.39,1.8C19,8.06,19.07,10.53,19.07,13c0,5.51-1.19,12.68,2.31,17.4,2.12,2.84,5.92,5,9.56,4.72,2.1-.18,4.21-.68,6.32-.89A123.22,123.22,0,0,1,68,34.79a11.56,11.56,0,0,0,7.61-.9A11.84,11.84,0,0,0,82,23.44a.5.5,0,0,0-1,0C81,29,76.12,34.59,70.29,34.17,67.52,34,64.76,33.33,62,33.1a146.68,146.68,0,0,0-30.64,1c-5,.63-9.81-3.31-11-8.09-.67-2.76-.3-5.93-.3-8.74,0-3.07-.84-8,1.53-10.41S28,5.27,31,5.31l1.17,0c.12,0-.49-.73-.41-.39a9.85,9.85,0,0,1,.13,1.8A92.73,92.73,0,0,0,32.59,16c.71,4,5.22,3.15,8.25,3.15a.51.51,0,0,0,.5-.5V6.91c0-1.06-.5-3.54,0-4.5s3.48-.52,4.45-.52h7.57c1.14,0,3.7-.51,4.75,0s.58,3.62.58,4.67v7.33c0,1.72-.1,3.46,1.52,4.58s4.25.62,6.1.62a.51.51,0,0,0,.5-.5l.74-10.85a20.84,20.84,0,0,0,.19-2.84c0-.16.1-.48,0-.63-.22-.66.75.19-.44.17,1.88,0,3.75,0,5.62,0,2.7,0,5.53-.21,7.22,2.43,1.06,1.65.83,3.69.83,5.56v11A.5.5,0,0,0,82,23.44Z"/><path d="M28.55,34.56A104.53,104.53,0,0,0,27,46.93c-.49,4.77-1,9.55-1.51,14.32C25,65.13,24.57,69,24.14,72.9c-.17,1.48-.19,3.69-.31,4.82-.06.64.94.63,1,0,0,.42.27-.8.32-1.07.2-1.09.23-2.25.34-3.35.36-3.81.67-7.62,1-11.43.45-4.77.94-9.53,1.42-14.29.43-4.28,1.13-8.66,1-13a.22.22,0,0,0-.43-.06Z"/><path d="M71.09,34.55c.47,7.09,1.44,14.16,2.13,21.23S74.58,70,75.51,77a.61.61,0,1,0,1.21-.17c-1-7.32-1.85-14.65-2.6-22-.69-6.76-1.19-13.66-2.6-20.32a.22.22,0,0,0-.43,0Z"/><path d="M21.18,78.6a8.17,8.17,0,0,0,2.76-3.37c.62-1.46.61-3,1.12-4.54a.23.23,0,0,0-.38-.21c-.83.92-.68,2.22-1,3.37a8.43,8.43,0,0,1-2.81,4.39c-.2.17.07.52.28.36Z"/><path d="M24.21,73.15c-.57,1.41-1.15,2.82-1.65,4.26a.43.43,0,0,0,.71.41A6.88,6.88,0,0,0,25,75.58c.07-.22-.18-.35-.36-.28a7,7,0,0,0-2,1.92l.71.41c.48-1.44.87-2.9,1.28-4.36.08-.29-.34-.39-.45-.12Z"/><path d="M75.62,71.59a4.32,4.32,0,0,0,1,4.46,21.56,21.56,0,0,0,5,4.21.38.38,0,0,0,.52-.52c-.71-1.21-2.1-2-3.18-2.83A6.52,6.52,0,0,1,76,71.69c0-.18-.28-.29-.37-.1Z"/><path d="M78.32,77.11c-.5-.56-1-1.16-1.49-1.69-.28-.27-.88,0-.71.41l.44,1.08c.13.32.2.59.51.75a.33.33,0,0,0,.48-.2c.11-.34,0-.57-.18-.89l-.48-1.06-.66.51c.55.52,1.16,1,1.75,1.43a.24.24,0,0,0,.34-.34Z"/><path d="M72.53,77c2.52-.23,3.59-3.42,3-5.6a.12.12,0,0,0-.24,0c-.28.88-.18,1.82-.45,2.72a3.57,3.57,0,0,1-2.38,2.49c-.2.07-.19.42.06.39Z"/><path d="M74.32,76.69a2.52,2.52,0,0,0,1.46-1.55c.1-.36-.46-.63-.62-.27-.3.65-.58,2.31.53,2.35A.27.27,0,0,0,76,77c0-.64-.62-1-.21-1.73l-.59-.35a4.23,4.23,0,0,1-1.1,1.38.26.26,0,0,0,.26.44Z"/><path d="M24.92,72.41c-1.24,3.13,2.68,5.18,5.31,4.54a.32.32,0,0,0,0-.6c-1.18-.35-2.41-.11-3.52-.79a3.15,3.15,0,0,1-1.36-3.09c0-.26-.35-.27-.43-.06Z"/><path d="M28.23,76.67c-.7-.12-2.49-.49-2.54-1.37l-.7.18a1.5,1.5,0,0,1,0,1.12.5.5,0,0,0,1,.27c.43-1.21-1.68-1.4-1.66-.54a.45.45,0,0,0,.45.45l.28,0c.2,0,.2-.08,0-.15l1,.27a2.64,2.64,0,0,0-.3-1.76.37.37,0,0,0-.69.19c.09,1.54,2,1.76,3.23,1.77.23,0,.29-.36.06-.4Z"/><path d="M22.42,31.71c1.69,1.43,3.58,2.53,4.52,4.64s.56,4.3.88,6.52c0,.26.4.21.47,0C30,38,27.09,33.4,22.74,31.29c-.25-.12-.56.21-.32.42Z"/><path d="M28.2,38.4a7.41,7.41,0,0,0-.71-4.19c-.17-.38-.83-.11-.68.29.24.65.47,1.31.7,2a.4.4,0,0,0,.79-.11c.05-.57.08-1.13.1-1.7l-.74.1L28,35.87c.11.42.72.24.64-.18s-.14-.69-.2-1-.58-.24-.55.07.06.7.08,1.05a.27.27,0,0,0,.54,0c0-.25.05-.5.08-.75l-.51.14.24.54c.11.27.49.11.5-.13a2.48,2.48,0,0,0,0-.61.21.21,0,0,0-.41,0,3.5,3.5,0,0,0-.12.66l.51-.14a5.38,5.38,0,0,1-.24-.55c-.12-.28-.48-.09-.51.14s-.05.5-.07.75h.54c0-.35-.05-.7-.06-1.05h-.56c0,.35.06.7.1,1.05l.65-.09-.22-1.13c-.09-.45-.7-.29-.74.1-.06.57-.12,1.13-.16,1.7l.8-.11c-.26-.65-.52-1.29-.76-2l-.69.29a11.37,11.37,0,0,1,.84,3.73c0,.28.46.39.52.08Z"/><path d="M72,38.52a3.51,3.51,0,0,1,1.42-3.69c.89-.65,2-.77,2.89-1.43a.16.16,0,0,0-.07-.26C74.89,33,73.16,34,72.31,35a3.29,3.29,0,0,0-.6,3.63c.08.16.32,0,.28-.11Z"/><path d="M73,34.36a2.06,2.06,0,0,0-1.78,1.71l.67.09a3.31,3.31,0,0,1,0-.89,1.45,1.45,0,0,0,.07-.62.24.24,0,0,0-.35-.14c-.47.32-.49,1.13-.44,1.65,0,.36.59.49.67.09a2.44,2.44,0,0,1,1.21-1.53c.16-.09.11-.38-.09-.36Z"/><path d="M69.62,34.78a2,2,0,0,1,1.33.9c.29.49.15,1,.36,1.55a.18.18,0,0,0,.31.08c.55-.52.25-1.51-.12-2.05a2,2,0,0,0-1.83-.85c-.19,0-.28.33,0,.37Z"/><path d="M28.78,37.52a3.08,3.08,0,0,1,.94-1.9,2.6,2.6,0,0,1,1-.55,3,3,0,0,0,.85-.27.23.23,0,0,0,0-.39c-.69-.36-1.68.25-2.19.72a3,3,0,0,0-.94,2.34c0,.2.34.27.37.05Z"/><path d="M30,34.67a1.9,1.9,0,0,0-1.31.7c-.26.31-.6.9-.3,1.28a.17.17,0,0,0,.27,0c.26-.23.28-.62.46-.91a2.09,2.09,0,0,1,1-.8c.15-.07.08-.33-.08-.31Z"/><path d="M24.77,32.57c-5.25-3.87-5.3-10.78-5-16.71.12-2.6-.06-5.68,1.14-8,1.8-3.55,7.52-2.77,10.91-2.94.44,0,.44-.7,0-.68-2.93.12-7.67-.57-10.14,1.44S19.32,11.19,19.14,14c-.42,6.28-1.43,15.63,5.46,18.9a.17.17,0,0,0,.17-.29Z"/><path d="M30.84,4.75C33,5.65,32,11.1,32.21,12.9a9.65,9.65,0,0,0,1.07,3.86c1.53,2.64,4.54,2.67,7.25,2.25.27,0,.21-.49-.07-.47-2.52.18-5.16.48-6.7-2.06-1.11-1.81-1-4.17-1.06-6.21S33.42,5,31,4.34c-.28-.08-.36.31-.11.41Z"/><path d="M40.69,18.56C41,15,41,11.39,41.07,7.82c0-1,0-2,.06-2.93.06-1.72-.27-2.5,2-3.06,1.52-.38,3.71,0,5.27,0l5.27,0c2.29,0,4.87.07,5,2.92.22,3.48.11,7,0,10.51a.31.31,0,0,0,.61,0c0-2.63,0-5.25.13-7.88.06-1.47.4-3.32-.26-4.72A3.13,3.13,0,0,0,56.37,1c-2.6-.23-5.32,0-7.93,0C46,1.1,41.06-.1,40.56,3.26a48.73,48.73,0,0,0-.15,6.51c0,2.92-.18,5.87,0,8.79a.16.16,0,0,0,.32,0Z"/><path d="M59,14.19c-1,2.64,1.65,4.49,4,4.8a3.7,3.7,0,0,0,3.24-.77,1.41,1.41,0,0,0,.07-2.14C66.2,16,66,16,66,16.18A1.94,1.94,0,0,1,64.71,18a4.43,4.43,0,0,1-2.52-.17,4.1,4.1,0,0,1-2.91-3.56.13.13,0,0,0-.25,0Z"/><path d="M66.25,18.26c.42-2.41.6-4.85.85-7.28a27.37,27.37,0,0,1,.4-4.05c.57-2.13,2.41-2.57,4.27-3a.14.14,0,0,0,0-.27c-2.1-.45-4.14.26-4.79,2.43a29.43,29.43,0,0,0-.67,5.38c-.22,2.24-.49,4.48-.56,6.73,0,.28.45.35.5.07Z"/><path d="M68.38,3.83a.89.89,0,0,0-1.11,1.09c.07.39.65.22.59-.16a.46.46,0,0,1,.47-.54.2.2,0,0,0,0-.39Z"/><path d="M67.3,3.85c-.22.37-.64.79-.47,1.23a.22.22,0,0,0,.26.15c.47-.2.48-.75.61-1.21a.22.22,0,0,0-.4-.17Z"/><path d="M37.77,18.84c1.94.47,3.56-2.43,3.18-4.07a.18.18,0,0,0-.32,0c-.41.67-.38,1.53-.77,2.24a3.64,3.64,0,0,1-2.09,1.57.16.16,0,0,0,0,.3Z"/><path d="M39.79,18.46a1.56,1.56,0,0,0,.78-1.09L40,17.3A2.59,2.59,0,0,0,40,18.44a.3.3,0,0,0,.53.07c.07-.15,0-.19,0-.34a3.65,3.65,0,0,1,.07-.87c0-.32-.46-.36-.54-.07a1.44,1.44,0,0,1-.5.82.24.24,0,0,0,.25.41Z"/><path d="M41.14,7.33c0-1.24-.23-2.86.47-4,1-1.69,2.71-1.41,4.23-1.39Q49.43,2,53,2.13a11.43,11.43,0,0,1,3.41.24c2,.74,2,2.36,2,4,.08,2.3.14,4.59.26,6.89a.21.21,0,0,0,.42,0c.18-2.9,1.21-7.22-.21-10-1.22-2.35-4.15-2-6.39-2-2.07,0-4.14,0-6.22-.05-1.26,0-2.8-.25-4,.39-2.06,1.14-2.05,3.82-1.53,5.8a.17.17,0,0,0,.33,0Z"/><path d="M29.44,35.08A117.29,117.29,0,0,1,51,33.46c6.79.18,14.31-.16,20.64,2.59.69.29,1.3-.7.6-1C66.11,32.09,58.61,32.49,52,32.47c-7.46,0-15.47-.14-22.64,2.23a.2.2,0,0,0,.11.38Z"/><rect class="cls-2" width="100" height="100"/></g></g></g></svg>