<svg xmlns="http://www.w3.org/2000/svg" viewBox="0 0 100 100"><defs><style>.cls-1{fill:#fff;}.cls-2{fill:#ccc;}.cls-3{fill:none;}</style></defs><title>bishop</title><g id="Layer_2" data-name="Layer 2"><g id="Layer_2-2" data-name="Layer 2"><g id="bishop"><path d="M74.05,78.6c3.55-8.64,5.7-17.95,5.31-27.29S75.88,32.63,69.9,25.46c-3.62-4.34-8.09-8.39-13.68-9.85-3.14-.82-6.53-.2-9.41-1.92l0,0a6.62,6.62,0,0,1-2.25-1.13c-2.71-2.12-3.13-6.35-6-8.25a5.2,5.2,0,0,0-8.08,4.45c0,1.39.6,2.83.09,4.12A5.8,5.8,0,0,1,28.69,15,27.89,27.89,0,0,0,18.82,33.1v.08a25.34,25.34,0,0,1-6.76,11c-1.12,1.16-2.35,2.22-3.37,3.48A7.8,7.8,0,0,0,6.79,52a6.82,6.82,0,0,0,2,4.88,13.58,13.58,0,0,0,4.49,2.95,12.78,12.78,0,0,0,6.11,1.29,6.18,6.18,0,0,0,5.1-3.22,15.84,15.84,0,0,0,.74-2.43,4.43,4.43,0,0,1,1.21-2.2,2,2,0,0,1,2-.61,14.38,14.38,0,0,0,16.31-9.54l.21.35c3.16,1.39,3.89,5.16,2.71,8.4s-3.87,5.66-6.47,7.93L30.27,69.41a11.67,11.67,0,0,0-3.48,4.19,4.11,4.11,0,0,0,1,4.67,11.29,11.29,0,0,0-10,11.21v6.89s9.17,1.41,32.46,1.41,32.12-1.41,32.12-1.41V89.48A11.3,11.3,0,0,0,74.05,78.6Z"/><path d="M28.63,52.7l-.18,0-.14,0Z"/><path class="cls-1" d="M29.63,30.15a2.85,2.85,0,0,0,1.94-1.81c.37-.85.54-1.78,1-2.6A4.07,4.07,0,0,1,36,23.44a3.11,3.11,0,0,1,3.1,2.5,4,4,0,0,1-.75,2.65A4.41,4.41,0,0,1,36,30.53a6,6,0,0,1-2.32.12l-2.58-.2-1.5-.11"/><path class="cls-1" d="M30.22,96.91a14.1,14.1,0,0,1-5.95-1.11,8.66,8.66,0,0,1-4.38-6.26A9.41,9.41,0,0,1,22,82c2-2.29,4.94-3.15,7.74-3.76a11.23,11.23,0,0,0-8.08,2.16,10.87,10.87,0,0,0-4.16,7.88,19.3,19.3,0,0,0,0,5.15A5.79,5.79,0,0,0,19,95.81a3.45,3.45,0,0,0,2.07.75c3.35.4,6.45.52,9.79.92C30.65,97.19,30.47,97.2,30.22,96.91Z"/><path class="cls-1" d="M67.43,96.91a17.28,17.28,0,0,0,6.64-1.11A8.62,8.62,0,0,0,76.66,82c-2.23-2.29-5.52-3.15-8.65-3.76a13.63,13.63,0,0,1,9,2.16,10.59,10.59,0,0,1,4.64,7.88,18.53,18.53,0,0,1-.7,5.32,4,4,0,0,1-1,2.26,4.11,4.11,0,0,1-2.31.75c-3.73.4-7.61.6-11.34,1C66.54,97.28,67.16,97.2,67.43,96.91Z"/><path class="cls-1" d="M30.61,7.83c.22-2,2.79-3.16,4.76-2.56s3.34,2.36,4.39,4.13,1.92,3.7,3.43,5.1C45.9,17,50,17.27,53.53,18.28,63.9,21.21,69.38,30,72.46,39.62c3.25,10.17,5.08,22.11,3.26,32.74a51.47,51.47,0,0,0-4.6-45.54c-3.5-5.43-9.37-10.36-15.81-10.94-3.8-.34-7.7-1.21-10.67-3.61a27,27,0,0,1-4-4.5c-1.08-1.37-2-3-3.64-3.77a5.67,5.67,0,0,0-3.93-.32c-.63.77-1.33,1.31-2,2.08a3.15,3.15,0,0,0-.66,1C30.36,7.21,30.3,7.56,30.61,7.83Z"/><path class="cls-1" d="M46.32,78.26l-11.26-.49a10.27,10.27,0,0,1-3-.42A3.5,3.5,0,0,1,29.9,75.4c-.58-1.59.49-3.28,1.57-4.58,1.57-1.9,3.28-3.67,5-5.44l7.67-8-4.19,3.75c-2.25,2-4.76,3.69-7.16,5.5a23.33,23.33,0,0,0-5.7,5.73,6.52,6.52,0,0,0-.6,6.32c2.25-.87,4.77-.61,7.19-.52C37.85,78.34,42.14,78.12,46.32,78.26Z"/><path class="cls-2" d="M70.87,77.69c-10.41.26-20.82.24-31.23.16C32,77.78,22,76,18.09,84.69c-1.58,3.56-1,7.88-1,11.68a.51.51,0,0,0,.37.48,155.82,155.82,0,0,0,19,1.25,375.31,375.31,0,0,0,40.25-.66c1.89-.15,3.79-.3,5.65-.59a.49.49,0,0,0,.37-.48c0-3.33.48-7.11-.51-10.34a12,12,0,0,0-11.28-8.34.5.5,0,0,0,0,1A11,11,0,0,1,80.5,84.6c1.23,2.42,1.16,5,1.16,7.59,0,1.06-.08,2.14,0,3.19a4.31,4.31,0,0,1,0,.88c0,.18.5-.41.3-.36-.62.13-1.29.16-1.91.23-12.23,1.31-24.65,1.27-36.92,1.1-6.24-.08-12.48-.26-18.7-.7-2.05-.15-4.7,0-6.68-.64.58.2.22.55.32-.51s0-2.3,0-3.42c0-2.66,0-5.22,1.32-7.64,2.68-4.9,7.46-5.66,12.45-5.57,13,.22,26,.27,39-.06C71.51,78.67,71.51,77.67,70.87,77.69Z"/><path class="cls-2" d="M17.37,91.52c-1.24,6.16,8.94,6.94,12.77,5.72.2-.06.17-.39-.05-.38-4.1.21-12.17.67-12.36-5.29a.18.18,0,0,0-.36,0Z"/><path class="cls-2" d="M21,96.32a4.84,4.84,0,0,0-1.39-.86c-.54-.28-1.09-.53-1.64-.8-.3-.14-.69.17-.49.49a3.17,3.17,0,0,0,1.83,1.38l.09-.67c-.46,0-1.08-.13-1.27-.63l-.77.32a2.77,2.77,0,0,0,1.27,1.24l.38-.91c-.35-.13-.44-.85-1-.52a.49.49,0,0,0-.23.56,1.38,1.38,0,0,0,.93.92c.61.21.86-.74.26-1a1.94,1.94,0,0,1-.92-.75.42.42,0,0,0-.73.42,2.21,2.21,0,0,0,2,1c.39,0,.45-.57.09-.66a2.2,2.2,0,0,1-1.4-1.09l-.48.48c.58.29,1.16.59,1.75.86a5.17,5.17,0,0,0,1.5.53c.18,0,.25-.23.14-.34Z"/><path class="cls-2" d="M73.56,97.27c2.55.06,5.08-.37,7-2.19,1.45-1.35,2.63-4,1.4-5.86a.12.12,0,0,0-.22,0c-.47,2.18-.41,4.07-2.42,5.55-1.65,1.21-3.87,1.61-5.84,2.06a.21.21,0,0,0,.06.41Z"/><path class="cls-2" d="M81.55,91.64a4.31,4.31,0,0,1-2.65,3.83c-.66.33-.19,1.35.5,1.18s1.53-.36,2.26-.63a.59.59,0,0,0,.43-.57L82,94.6l-1,.27c.32.67-.65.55-1,.67a.46.46,0,0,0-.27.66,1.15,1.15,0,0,0,1.72.2,1.66,1.66,0,0,0,.48-2,.54.54,0,0,0-1.06.15l0,.85.43-.56c-.77.11-1.54.34-2.29.52l.49,1.17a4.53,4.53,0,0,0,2.41-5c0-.24-.4-.17-.41,0Z"/><path class="cls-2" d="M25.89,96.73c-5-.09-8.66-3.81-7.77-8.83,0-.22-.26-.38-.38-.16a6.08,6.08,0,0,0,.81,6.75,7.86,7.86,0,0,0,7.34,2.73.25.25,0,0,0,0-.49Z"/><path class="cls-2" d="M27.28,97.8a105.65,105.65,0,0,0,11,.25c3.83,0,7.64.16,11.47.14,3.66,0,7.31-.15,11-.26,3.41-.1,7.22.35,10.53-.47a.24.24,0,0,0,0-.45c-3.17-.73-6.79-.25-10-.29-3.83,0-7.64-.13-11.47-.08-3.66,0-7.31.28-11,.33-3.82.06-7.67,0-11.47.44a.2.2,0,0,0,0,.39Z"/><path class="cls-2" d="M18.31,91.89c0-3.45.6-6.77,3-9.37s5.23-2.84,8.46-3.64a.31.31,0,0,0,0-.59c-3.29-.81-7.26,1.45-9.37,3.86a11,11,0,0,0-2.51,9.79.19.19,0,0,0,.38,0Z"/><path class="cls-2" d="M71.33,78.26c3.24,1.77,7,3,9,6.38s.39,7.07.32,10.73a.29.29,0,0,0,.53.14c1.67-3.21,2.1-7.88.4-11.16-1.91-3.68-6.13-5.69-10-6.59a.27.27,0,0,0-.21.5Z"/><path class="cls-2" d="M67.66,97.39c3.56.36,8.61.32,12-1.18.25-.11.1-.44-.12-.46-2.09-.16-4.25.4-6.35.59-1.85.17-3.7.27-5.55.52-.32,0-.2.5.07.53Z"/><path class="cls-2" d="M46.51,13.87c2.75,1.61,5.57,1.39,8.6,2a20.61,20.61,0,0,1,8.71,4.45A39.83,39.83,0,0,1,75.44,36.6c5.28,13.63,3.09,28.58-2.28,41.82-.35.86,1,1.23,1.39.38,5.54-13.72,7.67-29.31,1.9-43.33A40,40,0,0,0,65.22,20a24.33,24.33,0,0,0-7.56-4.44c-3.55-1.22-7.53-.48-10.94-2.09-.24-.11-.46.23-.21.37Z"/><path class="cls-2" d="M28,78.34c-4.53-4.24,3.15-9.28,6.06-11.79,3.45-3,7.16-5.77,10.34-9,3.7-3.81,6.91-11.37.69-14.58-.71-.37-1.34.71-.63,1.08,5.14,2.65,2.53,8.83-.38,12.05S37.66,62,34.47,64.9C32.1,67,21.17,75,27.75,78.67a.21.21,0,0,0,.25-.33Z"/><path class="cls-2" d="M44.41,43c-1.57,2.92-3.36,5.49-6.26,7.24a14.15,14.15,0,0,1-4.65,1.78c-1.82.35-3.58,0-5.39.18-.35,0-.61.57-.2.76,3.16,1.43,7.67.2,10.53-1.48a13.24,13.24,0,0,0,6.3-8.34c0-.19-.23-.33-.33-.14Z"/><path class="cls-2" d="M28.5,52.47c-3.09-.9-3.58,2.33-4.39,4.5-2.33,6.25-11.33,3.21-14.82-.25-5.17-5.13.73-9.6,4.11-13.39a26.17,26.17,0,0,0,5.76-10A.56.56,0,0,0,18.08,33c-1.73,5.79-5.63,9.22-9.47,13.59C6,49.6,5,53.37,7.65,56.71a14.5,14.5,0,0,0,11.61,5,7.25,7.25,0,0,0,4.62-2.28c1.61-1.82,1.3-6.71,4.56-6.45.28,0,.32-.4.06-.48Z"/><path class="cls-2" d="M18.72,34.29c1-4.43,1.92-8.58,4.4-12.47a27.09,27.09,0,0,1,4.61-5.47C29,15.22,30.59,14.3,31,12.59c.62-2.38-.86-4.57.85-6.81C34.25,2.69,38.19,4,40,6.89c1.94,3,2.83,6,6.5,7.24.61.21.87-.75.27-1C42,11.47,42.35,5.37,38,3.37a5.86,5.86,0,0,0-8.12,4.5c-.16,1.13.38,2.27.23,3.36-.28,2.2-1.65,3-3.1,4.36a27,27,0,0,0-4.26,5.1c-2.54,3.88-4.6,8.84-4.38,13.54,0,.22.35.29.4.06Z"/><path class="cls-2" d="M16,38.82c2.42-1.93,3.26-5.15,3.75-8.07a22.07,22.07,0,0,1,4.7-10.93c.22-.28-.14-.66-.41-.4a18.6,18.6,0,0,0-4.77,8c-1.23,3.79-1.55,7.62-3.74,11-.2.3.22.56.47.36Z"/><path class="cls-2" d="M43.22,11.49c1.39,2.29,4.1,3.2,6.63,3.6,3.59.58,7.29.57,10.44,2.66a.2.2,0,0,0,.24-.32c-2.15-2-4.53-2.51-7.34-3-3.56-.58-6.63-1.26-9.69-3.25a.2.2,0,0,0-.28.28Z"/><path class="cls-2" d="M25.31,55.07a3.15,3.15,0,0,1,2.76-1.93c1,0,1.87.41,2.82.23a.27.27,0,0,0,.12-.45c-1.84-1.76-6-.75-5.89,2.1,0,.09.14.15.19,0Z"/><path class="cls-2" d="M41,49.13a8.45,8.45,0,0,0,2-2.3c.3-.46.56-.95.83-1.43s.55-1.5,1.35-1.11a.43.43,0,0,0,.63-.36c0-1.39-1.81-.89-2.33-.09s-.87,1.68-1.34,2.49a22,22,0,0,0-1.43,2.61.17.17,0,0,0,.26.19Z"/><path class="cls-2" d="M22.44,80.17c2.63-.21,3.76-1.44,3.91-3.92.32-5.2,4.36-6.86,7.85-9.85.27-.23-.08-.57-.35-.45a16.33,16.33,0,0,0-7,5.87,9.75,9.75,0,0,0-1.38,3.56c-.08.49,0,1.05-.11,1.52-.4,1.78-1.61,2.15-3,2.86a.22.22,0,0,0,.11.41Z"/><path class="cls-2" d="M26.19,77a3.45,3.45,0,0,1-.67,1.7l.93.25q0-.45-.09-.9l-.47.47c.54,0,1.24.2,1.59-.29a.29.29,0,0,0,0-.3c-.32-.49-1.07-.32-1.59-.35a.49.49,0,0,0-.47.47q0,.45,0,.9a.5.5,0,0,0,.93.25,2.69,2.69,0,0,0,.28-2.26.24.24,0,0,0-.47.06Z"/><path class="cls-2" d="M27.72,79a15.44,15.44,0,0,0,4.7-.54.26.26,0,0,0-.07-.5,15.8,15.8,0,0,0-4.67.72.16.16,0,0,0,0,.32Z"/><path class="cls-2" d="M77.59,80.2c-3.35-1.68-1.62-5-1.14-7.65a.15.15,0,0,0-.27-.12c-1.75,2.33-2.48,7.38,1.23,8.2.25.05.43-.31.18-.43Z"/><path class="cls-2" d="M74.62,77.05c-.12.75-.43,1.76.16,2.38.41.43,1.07-.23.65-.65-.16-.16-.13-.59-.17-.79s-.14-.63-.21-.94-.4-.22-.43,0Z"/><path class="cls-2" d="M71,78.29c2.68.3,5-3.79,5.21-6,0-.21-.3-.27-.39-.1C74.58,74.44,73.74,77,71,77.81a.25.25,0,0,0,.07.48Z"/><path class="cls-2" d="M73.86,76A7.39,7.39,0,0,1,72.3,77.8c-.35.3,0,.75.41.7.77-.12,1.41,1.29,2.21.78a.15.15,0,0,0,0-.2c-.17-.41-.71-.75-1.07-1a1.8,1.8,0,0,0-1.41-.38l.4.7a4.56,4.56,0,0,0,1.42-2.23.25.25,0,0,0-.45-.19Z"/><path class="cls-2" d="M30.78,12.57c-1.44-4,1-8.91,5.82-7.64,3.24.85,3.88,4.54,6,6.72,4.34,4.56,11.5,3.9,16.88,6.4A29.94,29.94,0,0,1,72.65,31c3.52,6.49,4.85,13.43,6.12,20.61.06.37.67.29.66-.09-.65-14.76-7.34-32.07-23-36.41C52.39,14,47.59,14,44.22,11.07c-2.54-2.18-3.2-6-6.67-7.14-5-1.67-10.29,4.08-7,8.74.08.1.28,0,.23-.1Z"/><rect class="cls-3" width="100" height="100"/></g></g></g></svg>